<svg width="310" height="310" viewBox="0 0 310 310" fill="none" xmlns="http://www.w3.org/2000/svg">
<rect x="83" y="121" width="12" height="12" fill="#DDFF0F"/>
<path d="M111.172 125.916H110.032C109.952 125.556 109.82 125.248 109.636 124.992C109.46 124.736 109.248 124.548 109 124.428C108.752 124.308 108.516 124.224 108.292 124.176C108.068 124.128 107.836 124.104 107.596 124.104C106.772 124.104 106.092 124.404 105.556 125.004C105.02 125.604 104.752 126.456 104.752 127.56C104.752 129.976 105.712 131.184 107.632 131.184C107.808 131.184 107.98 131.168 108.148 131.136C108.324 131.104 108.516 131.036 108.724 130.932C108.932 130.82 109.12 130.68 109.288 130.512C109.464 130.344 109.628 130.112 109.78 129.816C109.932 129.52 110.044 129.18 110.116 128.796H111.256C111.192 129.244 111.08 129.652 110.92 130.02C110.768 130.388 110.596 130.688 110.404 130.92C110.22 131.152 110.004 131.356 109.756 131.532C109.516 131.7 109.288 131.828 109.072 131.916C108.864 132.004 108.64 132.072 108.4 132.12C108.168 132.168 107.984 132.196 107.848 132.204C107.712 132.22 107.58 132.228 107.452 132.228C106.94 132.228 106.456 132.144 106 131.976C105.544 131.8 105.128 131.536 104.752 131.184C104.384 130.824 104.088 130.34 103.864 129.732C103.648 129.116 103.54 128.404 103.54 127.596C103.54 126.236 103.904 125.14 104.632 124.308C105.36 123.476 106.348 123.06 107.596 123.06C108.652 123.06 109.488 123.336 110.104 123.888C110.728 124.44 111.084 125.116 111.172 125.916ZM112.546 125.652H114.046L116.002 130.632L117.958 125.652H119.434V132H118.39V128.316L118.45 126.948H118.366L116.374 132H115.606L113.614 126.948H113.53C113.57 127.412 113.59 127.868 113.59 128.316V132H112.546V125.652ZM121.943 127.584H120.959C120.959 126.176 121.831 125.472 123.575 125.472C123.759 125.472 123.955 125.492 124.163 125.532C124.379 125.564 124.631 125.636 124.919 125.748C125.215 125.852 125.455 126.036 125.639 126.3C125.831 126.556 125.927 126.872 125.927 127.248V130.872C125.927 131.136 126.043 131.268 126.275 131.268C126.347 131.268 126.463 131.252 126.623 131.22V132C126.319 132.08 126.127 132.12 126.047 132.12C125.823 132.12 125.635 132.092 125.483 132.036C125.331 131.988 125.215 131.912 125.135 131.808C125.063 131.704 125.011 131.604 124.979 131.508C124.955 131.412 124.935 131.292 124.919 131.148C124.735 131.34 124.563 131.5 124.403 131.628C124.243 131.756 124.003 131.88 123.683 132C123.363 132.12 123.011 132.18 122.627 132.18C122.043 132.18 121.567 132.012 121.199 131.676C120.831 131.34 120.647 130.896 120.647 130.344C120.647 130.16 120.659 129.996 120.683 129.852C120.707 129.708 120.767 129.544 120.863 129.36C120.959 129.168 121.087 129.008 121.247 128.88C121.415 128.744 121.655 128.624 121.967 128.52C122.279 128.408 122.647 128.336 123.071 128.304C123.639 128.256 124.043 128.204 124.283 128.148C124.531 128.084 124.687 128 124.751 127.896C124.823 127.792 124.859 127.62 124.859 127.38C124.859 126.7 124.367 126.36 123.383 126.36C123.095 126.36 122.851 126.4 122.651 126.48C122.459 126.552 122.315 126.66 122.219 126.804C122.131 126.94 122.067 127.068 122.027 127.188C121.987 127.3 121.959 127.432 121.943 127.584ZM124.859 129.804V128.76C124.683 128.896 124.099 129.028 123.107 129.156C122.931 129.18 122.779 129.208 122.651 129.24C122.531 129.272 122.391 129.324 122.231 129.396C122.071 129.46 121.947 129.56 121.859 129.696C121.779 129.824 121.739 129.984 121.739 130.176C121.739 130.92 122.127 131.292 122.903 131.292C123.415 131.292 123.867 131.148 124.259 130.86C124.659 130.572 124.859 130.22 124.859 129.804ZM130.529 126.432C130.217 126.432 129.945 126.492 129.713 126.612C129.489 126.724 129.317 126.86 129.197 127.02C129.085 127.18 128.993 127.38 128.921 127.62C128.857 127.86 128.817 128.064 128.801 128.232C128.793 128.4 128.789 128.592 128.789 128.808C128.789 129.536 128.933 130.128 129.221 130.584C129.509 131.032 129.933 131.256 130.493 131.256C130.917 131.256 131.301 131.088 131.645 130.752C131.997 130.416 132.173 129.868 132.173 129.108C132.173 128.9 132.165 128.712 132.149 128.544C132.141 128.376 132.121 128.18 132.089 127.956C132.057 127.732 132.001 127.54 131.921 127.38C131.849 127.212 131.753 127.052 131.633 126.9C131.521 126.748 131.369 126.632 131.177 126.552C130.993 126.472 130.777 126.432 130.529 126.432ZM127.721 134.508V125.652H128.717V126.552C128.941 126.216 129.193 125.952 129.473 125.76C129.753 125.568 130.141 125.472 130.637 125.472C131.453 125.472 132.093 125.768 132.557 126.36C133.029 126.952 133.265 127.712 133.265 128.64C133.265 128.968 133.237 129.288 133.181 129.6C133.133 129.904 133.041 130.216 132.905 130.536C132.777 130.856 132.613 131.136 132.413 131.376C132.213 131.608 131.949 131.8 131.621 131.952C131.293 132.104 130.921 132.18 130.505 132.18C129.721 132.18 129.149 131.872 128.789 131.256V134.508H127.721ZM133.775 125.652H139.019V126.54H136.931V132H135.863V126.54H133.775V125.652ZM144.696 131.328V134.508H143.676V131.256C143.524 131.512 143.304 131.732 143.016 131.916C142.736 132.092 142.404 132.18 142.02 132.18C141.212 132.18 140.612 131.872 140.22 131.256C139.836 130.64 139.644 129.8 139.644 128.736C139.644 127.8 139.856 127.024 140.28 126.408C140.704 125.784 141.264 125.472 141.96 125.472C142.656 125.472 143.228 125.776 143.676 126.384V123.288H144.696V126.396C145.128 125.78 145.688 125.472 146.376 125.472C147.072 125.472 147.636 125.784 148.068 126.408C148.508 127.024 148.728 127.796 148.728 128.724C148.728 129.788 148.528 130.632 148.128 131.256C147.736 131.872 147.132 132.18 146.316 132.18C145.62 132.18 145.088 131.896 144.72 131.328H144.696ZM147.624 128.844C147.624 128.164 147.492 127.588 147.228 127.116C146.964 126.636 146.592 126.396 146.112 126.396C145.168 126.396 144.696 127.272 144.696 129.024C144.696 129.84 144.836 130.416 145.116 130.752C145.404 131.088 145.736 131.256 146.112 131.256C147.12 131.256 147.624 130.452 147.624 128.844ZM140.748 128.856C140.748 130.456 141.232 131.256 142.2 131.256C142.584 131.256 142.924 131.092 143.22 130.764C143.524 130.436 143.676 129.868 143.676 129.06C143.676 128.556 143.632 128.112 143.544 127.728C143.456 127.344 143.296 127.028 143.064 126.78C142.84 126.524 142.552 126.396 142.2 126.396C141.72 126.396 141.356 126.632 141.108 127.104C140.868 127.576 140.748 128.16 140.748 128.856ZM149.58 128.82C149.58 128.396 149.64 127.992 149.76 127.608C149.88 127.216 150.056 126.86 150.288 126.54C150.52 126.212 150.828 125.952 151.212 125.76C151.596 125.568 152.032 125.472 152.52 125.472C153.008 125.472 153.444 125.568 153.828 125.76C154.212 125.952 154.52 126.212 154.752 126.54C154.984 126.86 155.16 127.216 155.28 127.608C155.4 127.992 155.46 128.396 155.46 128.82C155.46 129.724 155.204 130.512 154.692 131.184C154.188 131.848 153.464 132.18 152.52 132.18C151.576 132.18 150.848 131.848 150.336 131.184C149.832 130.512 149.58 129.724 149.58 128.82ZM150.672 128.82C150.672 129.012 150.684 129.208 150.708 129.408C150.74 129.6 150.796 129.812 150.876 130.044C150.964 130.276 151.072 130.48 151.2 130.656C151.336 130.824 151.516 130.968 151.74 131.088C151.972 131.2 152.232 131.256 152.52 131.256C152.808 131.256 153.064 131.2 153.288 131.088C153.52 130.968 153.7 130.824 153.828 130.656C153.964 130.48 154.072 130.276 154.152 130.044C154.24 129.812 154.296 129.6 154.32 129.408C154.352 129.208 154.368 129.012 154.368 128.82C154.368 128.572 154.34 128.324 154.284 128.076C154.236 127.82 154.148 127.56 154.02 127.296C153.9 127.032 153.708 126.816 153.444 126.648C153.188 126.48 152.88 126.396 152.52 126.396C152.16 126.396 151.848 126.48 151.584 126.648C151.328 126.816 151.136 127.032 151.008 127.296C150.888 127.56 150.8 127.82 150.744 128.076C150.696 128.324 150.672 128.572 150.672 128.82ZM157.735 125.652V128.208H160.699V125.652H161.767V132H160.699V129.096H157.735V132H156.667V125.652H157.735ZM170.475 125.652V132H169.407V125.652H170.475ZM164.391 125.652V128.208H165.903C166.687 128.208 167.283 128.388 167.691 128.748C168.107 129.108 168.315 129.58 168.315 130.164C168.315 130.7 168.119 131.14 167.727 131.484C167.335 131.828 166.735 132 165.927 132H163.323V125.652H164.391ZM164.391 129.096V131.112H165.915C166.395 131.112 166.731 131.036 166.923 130.884C167.123 130.724 167.223 130.464 167.223 130.104C167.223 129.432 166.787 129.096 165.915 129.096H164.391ZM186.733 128.496V129.372H174.613V128.496H186.733ZM196.058 125.664C196.058 125.952 196.022 126.208 195.95 126.432C195.878 126.648 195.774 126.824 195.638 126.96C195.51 127.096 195.398 127.2 195.302 127.272C195.214 127.336 195.102 127.4 194.966 127.464C195.326 127.616 195.614 127.824 195.83 128.088C196.054 128.344 196.198 128.588 196.262 128.82C196.326 129.044 196.358 129.28 196.358 129.528C196.358 130.28 196.114 130.92 195.626 131.448C195.138 131.968 194.422 132.228 193.478 132.228C192.654 132.228 191.962 132 191.402 131.544C190.842 131.088 190.562 130.42 190.562 129.54C190.562 128.548 191.042 127.86 192.002 127.476C191.234 127.172 190.85 126.616 190.85 125.808C190.85 125.56 190.89 125.312 190.97 125.064C191.058 124.816 191.19 124.568 191.366 124.32C191.55 124.064 191.818 123.86 192.17 123.708C192.53 123.548 192.95 123.468 193.43 123.468C194.302 123.468 194.958 123.692 195.398 124.14C195.838 124.58 196.058 125.088 196.058 125.664ZM193.454 127.992C192.894 127.992 192.462 128.148 192.158 128.46C191.854 128.772 191.702 129.14 191.702 129.564C191.702 130.004 191.838 130.4 192.11 130.752C192.39 131.096 192.858 131.268 193.514 131.268C194.65 131.268 195.218 130.728 195.218 129.648C195.218 129.104 195.054 128.692 194.726 128.412C194.398 128.132 193.974 127.992 193.454 127.992ZM193.442 127.068C193.898 127.068 194.262 126.94 194.534 126.684C194.814 126.428 194.954 126.1 194.954 125.7C194.954 125.372 194.83 125.08 194.582 124.824C194.334 124.56 193.93 124.428 193.37 124.428C192.858 124.428 192.494 124.564 192.278 124.836C192.062 125.108 191.954 125.416 191.954 125.76C191.954 126.152 192.098 126.468 192.386 126.708C192.682 126.948 193.034 127.068 193.442 127.068ZM200.204 131.268C201.388 131.268 201.98 130.128 201.98 127.848C201.98 125.568 201.388 124.428 200.204 124.428C199.02 124.428 198.428 125.568 198.428 127.848C198.428 130.128 199.02 131.268 200.204 131.268ZM203.048 126.708C203.096 127.076 203.12 127.456 203.12 127.848C203.12 128.24 203.096 128.62 203.048 128.988C203.008 129.356 202.924 129.744 202.796 130.152C202.668 130.552 202.5 130.9 202.292 131.196C202.084 131.492 201.8 131.74 201.44 131.94C201.088 132.132 200.676 132.228 200.204 132.228C199.732 132.228 199.316 132.132 198.956 131.94C198.604 131.74 198.324 131.492 198.116 131.196C197.908 130.9 197.74 130.552 197.612 130.152C197.484 129.744 197.396 129.356 197.348 128.988C197.308 128.62 197.288 128.24 197.288 127.848C197.288 127.456 197.308 127.076 197.348 126.708C197.396 126.34 197.484 125.956 197.612 125.556C197.74 125.148 197.908 124.796 198.116 124.5C198.324 124.204 198.604 123.96 198.956 123.768C199.316 123.568 199.732 123.468 200.204 123.468C200.676 123.468 201.088 123.568 201.44 123.768C201.8 123.96 202.084 124.204 202.292 124.5C202.5 124.796 202.668 125.148 202.796 125.556C202.924 125.956 203.008 126.34 203.048 126.708ZM204.614 132V130.716H205.886V131.904C205.886 132.288 205.834 132.612 205.73 132.876C205.634 133.14 205.502 133.332 205.334 133.452C205.166 133.572 205.03 133.652 204.926 133.692C204.822 133.732 204.718 133.76 204.614 133.776V133.224C205.046 133.184 205.262 132.776 205.262 132H204.614ZM212.898 125.664C212.898 125.952 212.862 126.208 212.79 126.432C212.718 126.648 212.614 126.824 212.478 126.96C212.35 127.096 212.238 127.2 212.142 127.272C212.054 127.336 211.942 127.4 211.806 127.464C212.166 127.616 212.454 127.824 212.67 128.088C212.894 128.344 213.038 128.588 213.102 128.82C213.166 129.044 213.198 129.28 213.198 129.528C213.198 130.28 212.954 130.92 212.466 131.448C211.978 131.968 211.262 132.228 210.318 132.228C209.494 132.228 208.802 132 208.242 131.544C207.682 131.088 207.402 130.42 207.402 129.54C207.402 128.548 207.882 127.86 208.842 127.476C208.074 127.172 207.69 126.616 207.69 125.808C207.69 125.56 207.73 125.312 207.81 125.064C207.898 124.816 208.03 124.568 208.206 124.32C208.39 124.064 208.658 123.86 209.01 123.708C209.37 123.548 209.79 123.468 210.27 123.468C211.142 123.468 211.798 123.692 212.238 124.14C212.678 124.58 212.898 125.088 212.898 125.664ZM210.294 127.992C209.734 127.992 209.302 128.148 208.998 128.46C208.694 128.772 208.542 129.14 208.542 129.564C208.542 130.004 208.678 130.4 208.95 130.752C209.23 131.096 209.698 131.268 210.354 131.268C211.49 131.268 212.058 130.728 212.058 129.648C212.058 129.104 211.894 128.692 211.566 128.412C211.238 128.132 210.814 127.992 210.294 127.992ZM210.282 127.068C210.738 127.068 211.102 126.94 211.374 126.684C211.654 126.428 211.794 126.1 211.794 125.7C211.794 125.372 211.67 125.08 211.422 124.824C211.174 124.56 210.77 124.428 210.21 124.428C209.698 124.428 209.334 124.564 209.118 124.836C208.902 125.108 208.794 125.416 208.794 125.76C208.794 126.152 208.938 126.468 209.226 126.708C209.522 126.948 209.874 127.068 210.282 127.068ZM214.74 127.104C214.34 126.696 214.14 126.204 214.14 125.628C214.14 125.052 214.34 124.568 214.74 124.176C215.148 123.776 215.64 123.576 216.216 123.576C216.784 123.576 217.268 123.776 217.668 124.176C218.068 124.576 218.268 125.06 218.268 125.628C218.268 126.196 218.068 126.684 217.668 127.092C217.268 127.5 216.784 127.704 216.216 127.704C215.64 127.704 215.148 127.504 214.74 127.104ZM214.992 125.628C214.992 125.996 215.108 126.292 215.34 126.516C215.58 126.74 215.868 126.852 216.204 126.852C216.548 126.852 216.836 126.732 217.068 126.492C217.308 126.252 217.428 125.964 217.428 125.628C217.428 125.292 217.308 125.008 217.068 124.776C216.836 124.544 216.552 124.428 216.216 124.428C215.872 124.428 215.58 124.548 215.34 124.788C215.108 125.02 214.992 125.3 214.992 125.628ZM220.44 131.496C220.04 131.088 219.84 130.596 219.84 130.02C219.84 129.444 220.04 128.96 220.44 128.568C220.848 128.168 221.34 127.968 221.916 127.968C222.484 127.968 222.968 128.168 223.368 128.568C223.768 128.968 223.968 129.452 223.968 130.02C223.968 130.588 223.768 131.076 223.368 131.484C222.968 131.892 222.484 132.096 221.916 132.096C221.34 132.096 220.848 131.896 220.44 131.496ZM220.692 130.02C220.692 130.388 220.808 130.684 221.04 130.908C221.28 131.132 221.568 131.244 221.904 131.244C222.248 131.244 222.536 131.124 222.768 130.884C223.008 130.644 223.128 130.356 223.128 130.02C223.128 129.684 223.008 129.4 222.768 129.168C222.536 128.936 222.252 128.82 221.916 128.82C221.572 128.82 221.28 128.94 221.04 129.18C220.808 129.412 220.692 129.692 220.692 130.02ZM221.772 123.48L216.972 132.24H216.324L221.112 123.48H221.772Z" fill="white"/>
<rect x="83" y="147" width="12" height="12" fill="#FCD963"/>
<path d="M103.888 149.288H110.788V158H109.612V150.332H105.064V158H103.888V149.288ZM113.736 149.288V153.512L117.96 149.288H119.58L115.956 152.804L119.676 158H118.152L115.104 153.632L113.736 154.94V158H112.56V149.288H113.736ZM135.253 154.496V155.372H123.133V154.496H135.253ZM142.957 149.468V158H141.817V151.952H139.837V151.1C140.229 151.076 140.529 151.044 140.737 151.004C140.945 150.964 141.149 150.888 141.349 150.776C141.557 150.664 141.717 150.508 141.829 150.308C141.941 150.1 142.041 149.82 142.129 149.468H142.957ZM147.5 150.704L147.14 153.044C147.596 152.692 148.144 152.516 148.784 152.516C149.528 152.516 150.18 152.764 150.74 153.26C151.3 153.748 151.58 154.408 151.58 155.24C151.58 155.464 151.56 155.692 151.52 155.924C151.48 156.148 151.392 156.404 151.256 156.692C151.12 156.98 150.944 157.236 150.728 157.46C150.52 157.676 150.22 157.856 149.828 158C149.444 158.152 149 158.228 148.496 158.228C148.256 158.228 148.024 158.208 147.8 158.168C147.576 158.128 147.344 158.056 147.104 157.952C146.872 157.84 146.664 157.7 146.48 157.532C146.296 157.364 146.136 157.14 146 156.86C145.872 156.58 145.788 156.256 145.748 155.888H146.852C146.9 156.36 147.084 156.716 147.404 156.956C147.732 157.188 148.148 157.304 148.652 157.304C149.188 157.304 149.62 157.12 149.948 156.752C150.276 156.376 150.44 155.912 150.44 155.36C150.44 154.768 150.264 154.308 149.912 153.98C149.56 153.644 149.108 153.476 148.556 153.476C147.916 153.476 147.392 153.744 146.984 154.28L146.06 154.232L146.696 149.66H151.112V150.704H147.5ZM153.134 158V156.716H154.406V157.904C154.406 158.288 154.354 158.612 154.25 158.876C154.154 159.14 154.022 159.332 153.854 159.452C153.686 159.572 153.55 159.652 153.446 159.692C153.342 159.732 153.238 159.76 153.134 159.776V159.224C153.566 159.184 153.782 158.776 153.782 158H153.134ZM161.789 155.924H160.541V158H159.485V155.924H155.765V154.88L159.665 149.468H160.541V155H161.789V155.924ZM159.461 151.136L156.737 155H159.485V151.136H159.461ZM163.259 153.104C162.859 152.696 162.659 152.204 162.659 151.628C162.659 151.052 162.859 150.568 163.259 150.176C163.667 149.776 164.159 149.576 164.735 149.576C165.303 149.576 165.787 149.776 166.187 150.176C166.587 150.576 166.787 151.06 166.787 151.628C166.787 152.196 166.587 152.684 166.187 153.092C165.787 153.5 165.303 153.704 164.735 153.704C164.159 153.704 163.667 153.504 163.259 153.104ZM163.511 151.628C163.511 151.996 163.627 152.292 163.859 152.516C164.099 152.74 164.387 152.852 164.723 152.852C165.067 152.852 165.355 152.732 165.587 152.492C165.827 152.252 165.947 151.964 165.947 151.628C165.947 151.292 165.827 151.008 165.587 150.776C165.355 150.544 165.071 150.428 164.735 150.428C164.391 150.428 164.099 150.548 163.859 150.788C163.627 151.02 163.511 151.3 163.511 151.628ZM168.959 157.496C168.559 157.088 168.359 156.596 168.359 156.02C168.359 155.444 168.559 154.96 168.959 154.568C169.367 154.168 169.859 153.968 170.435 153.968C171.003 153.968 171.487 154.168 171.887 154.568C172.287 154.968 172.487 155.452 172.487 156.02C172.487 156.588 172.287 157.076 171.887 157.484C171.487 157.892 171.003 158.096 170.435 158.096C169.859 158.096 169.367 157.896 168.959 157.496ZM169.211 156.02C169.211 156.388 169.327 156.684 169.559 156.908C169.799 157.132 170.087 157.244 170.423 157.244C170.767 157.244 171.055 157.124 171.287 156.884C171.527 156.644 171.647 156.356 171.647 156.02C171.647 155.684 171.527 155.4 171.287 155.168C171.055 154.936 170.771 154.82 170.435 154.82C170.091 154.82 169.799 154.94 169.559 155.18C169.327 155.412 169.211 155.692 169.211 156.02ZM170.291 149.48L165.491 158.24H164.843L169.631 149.48H170.291Z" fill="white"/>
<rect x="83" y="173" width="12" height="12" fill="#EE593B"/>
<path d="M103.888 175.288H110.788V184H109.612V176.332H105.064V184H103.888V175.288ZM113.088 177.652H117.732V184H116.664V178.54H114.156V181.432C114.156 183.208 113.608 184.096 112.512 184.096C112.28 184.096 112.052 184.064 111.828 184V183.172C111.94 183.188 112.084 183.196 112.26 183.196C112.476 183.196 112.636 183.148 112.74 183.052C112.852 182.956 112.936 182.756 112.992 182.452C113.056 182.148 113.088 181.688 113.088 181.072V177.652ZM120.244 179.584H119.26C119.26 178.176 120.132 177.472 121.876 177.472C122.06 177.472 122.256 177.492 122.464 177.532C122.68 177.564 122.932 177.636 123.22 177.748C123.516 177.852 123.756 178.036 123.94 178.3C124.132 178.556 124.228 178.872 124.228 179.248V182.872C124.228 183.136 124.344 183.268 124.576 183.268C124.648 183.268 124.764 183.252 124.924 183.22V184C124.62 184.08 124.428 184.12 124.348 184.12C124.124 184.12 123.936 184.092 123.784 184.036C123.632 183.988 123.516 183.912 123.436 183.808C123.364 183.704 123.312 183.604 123.28 183.508C123.256 183.412 123.236 183.292 123.22 183.148C123.036 183.34 122.864 183.5 122.704 183.628C122.544 183.756 122.304 183.88 121.984 184C121.664 184.12 121.312 184.18 120.928 184.18C120.344 184.18 119.868 184.012 119.5 183.676C119.132 183.34 118.948 182.896 118.948 182.344C118.948 182.16 118.96 181.996 118.984 181.852C119.008 181.708 119.068 181.544 119.164 181.36C119.26 181.168 119.388 181.008 119.548 180.88C119.716 180.744 119.956 180.624 120.268 180.52C120.58 180.408 120.948 180.336 121.372 180.304C121.94 180.256 122.344 180.204 122.584 180.148C122.832 180.084 122.988 180 123.052 179.896C123.124 179.792 123.16 179.62 123.16 179.38C123.16 178.7 122.668 178.36 121.684 178.36C121.396 178.36 121.152 178.4 120.952 178.48C120.76 178.552 120.616 178.66 120.52 178.804C120.432 178.94 120.368 179.068 120.328 179.188C120.288 179.3 120.26 179.432 120.244 179.584ZM123.16 181.804V180.76C122.984 180.896 122.4 181.028 121.408 181.156C121.232 181.18 121.08 181.208 120.952 181.24C120.832 181.272 120.692 181.324 120.532 181.396C120.372 181.46 120.248 181.56 120.16 181.696C120.08 181.824 120.04 181.984 120.04 182.176C120.04 182.92 120.428 183.292 121.204 183.292C121.716 183.292 122.168 183.148 122.56 182.86C122.96 182.572 123.16 182.22 123.16 181.804ZM127.09 177.652V180.208H130.054V177.652H131.122V184H130.054V181.096H127.09V184H126.022V177.652H127.09ZM133.746 177.652V183.112H136.422V177.652H137.49V183.112H140.166V177.652H141.234V184H132.678V177.652H133.746ZM147.052 182.008H148.12C147.768 183.456 146.816 184.18 145.264 184.18C144.392 184.18 143.704 183.884 143.2 183.292C142.696 182.7 142.444 181.936 142.444 181C142.444 179.952 142.696 179.104 143.2 178.456C143.712 177.8 144.472 177.472 145.48 177.472C146.368 177.472 147.044 177.804 147.508 178.468C147.972 179.124 148.204 180.028 148.204 181.18H143.584C143.584 181.844 143.74 182.356 144.052 182.716C144.364 183.076 144.82 183.256 145.42 183.256C145.876 183.256 146.26 183.116 146.572 182.836C146.892 182.556 147.052 182.28 147.052 182.008ZM143.584 180.328H147.112C147.032 179.064 146.436 178.432 145.324 178.432C144.844 178.432 144.432 178.624 144.088 179.008C143.752 179.384 143.584 179.824 143.584 180.328ZM148.705 177.652H153.949V178.54H151.861V184H150.793V178.54H148.705V177.652ZM162.037 177.652V184H160.969V177.652H162.037ZM155.953 177.652V180.208H157.465C158.249 180.208 158.845 180.388 159.253 180.748C159.669 181.108 159.877 181.58 159.877 182.164C159.877 182.7 159.681 183.14 159.289 183.484C158.897 183.828 158.297 184 157.489 184H154.885V177.652H155.953ZM155.953 181.096V183.112H157.477C157.957 183.112 158.293 183.036 158.485 182.884C158.685 182.724 158.785 182.464 158.785 182.104C158.785 181.432 158.349 181.096 157.477 181.096H155.953ZM178.296 180.496V181.372H166.176V180.496H178.296ZM184.368 180.052V179.164C184.64 179.164 184.856 179.16 185.016 179.152C185.184 179.144 185.376 179.116 185.592 179.068C185.808 179.012 185.976 178.94 186.096 178.852C186.224 178.756 186.332 178.616 186.42 178.432C186.508 178.248 186.552 178.028 186.552 177.772C186.552 177.628 186.528 177.488 186.48 177.352C186.432 177.208 186.352 177.064 186.24 176.92C186.136 176.768 185.972 176.648 185.748 176.56C185.532 176.472 185.276 176.428 184.98 176.428C183.948 176.428 183.396 177.04 183.324 178.264H182.28C182.28 177.992 182.3 177.736 182.34 177.496C182.388 177.248 182.476 177 182.604 176.752C182.732 176.496 182.892 176.276 183.084 176.092C183.284 175.908 183.548 175.76 183.876 175.648C184.212 175.528 184.596 175.468 185.028 175.468C185.836 175.468 186.476 175.676 186.948 176.092C187.42 176.508 187.656 177.048 187.656 177.712C187.656 178.208 187.544 178.604 187.32 178.9C187.096 179.196 186.844 179.388 186.564 179.476V179.5C187.508 179.804 187.98 180.464 187.98 181.48C187.98 182.248 187.724 182.9 187.212 183.436C186.7 183.964 185.936 184.228 184.92 184.228C184.024 184.228 183.324 183.968 182.82 183.448C182.324 182.928 182.076 182.24 182.076 181.384H183.168C183.176 181.632 183.204 181.848 183.252 182.032C183.3 182.216 183.38 182.412 183.492 182.62C183.612 182.828 183.796 182.988 184.044 183.1C184.3 183.212 184.616 183.268 184.992 183.268C185.536 183.268 185.98 183.116 186.324 182.812C186.676 182.5 186.852 182.1 186.852 181.612C186.852 181.004 186.648 180.592 186.24 180.376C185.832 180.16 185.208 180.052 184.368 180.052ZM189.439 184V182.716H190.711V183.904C190.711 184.288 190.659 184.612 190.555 184.876C190.459 185.14 190.327 185.332 190.159 185.452C189.991 185.572 189.855 185.652 189.751 185.692C189.647 185.732 189.543 185.76 189.439 185.776V185.224C189.871 185.184 190.087 184.776 190.087 184H189.439ZM192.214 176.704V175.66H198.094V176.596C197.838 176.868 197.562 177.212 197.266 177.628C196.97 178.036 196.638 178.552 196.27 179.176C195.91 179.8 195.578 180.54 195.274 181.396C194.97 182.244 194.746 183.112 194.602 184H193.426C193.57 182.864 193.974 181.612 194.638 180.244C195.302 178.868 196.054 177.688 196.894 176.704H192.214ZM200.104 178.528H199.036C199.036 178 199.108 177.54 199.252 177.148C199.404 176.756 199.584 176.456 199.792 176.248C200.008 176.04 200.26 175.876 200.548 175.756C200.836 175.628 201.088 175.548 201.304 175.516C201.52 175.484 201.744 175.468 201.976 175.468C202.736 175.468 203.368 175.7 203.872 176.164C204.384 176.628 204.64 177.248 204.64 178.024C204.64 178.4 204.588 178.728 204.484 179.008C204.38 179.28 204.184 179.548 203.896 179.812C203.616 180.068 203.32 180.292 203.008 180.484C202.696 180.676 202.24 180.936 201.64 181.264C201.128 181.544 200.736 181.848 200.464 182.176C200.2 182.504 200.052 182.776 200.02 182.992H204.64V184H198.82C198.876 183.064 199.092 182.324 199.468 181.78C199.852 181.228 200.592 180.668 201.688 180.1C202.328 179.772 202.788 179.464 203.068 179.176C203.356 178.88 203.5 178.48 203.5 177.976C203.5 177.576 203.36 177.22 203.08 176.908C202.808 176.588 202.388 176.428 201.82 176.428C201.516 176.428 201.252 176.488 201.028 176.608C200.804 176.72 200.636 176.848 200.524 176.992C200.42 177.128 200.332 177.316 200.26 177.556C200.196 177.788 200.156 177.96 200.14 178.072C200.124 178.184 200.112 178.336 200.104 178.528ZM206.302 179.104C205.902 178.696 205.702 178.204 205.702 177.628C205.702 177.052 205.902 176.568 206.302 176.176C206.71 175.776 207.202 175.576 207.778 175.576C208.346 175.576 208.83 175.776 209.23 176.176C209.63 176.576 209.83 177.06 209.83 177.628C209.83 178.196 209.63 178.684 209.23 179.092C208.83 179.5 208.346 179.704 207.778 179.704C207.202 179.704 206.71 179.504 206.302 179.104ZM206.554 177.628C206.554 177.996 206.67 178.292 206.902 178.516C207.142 178.74 207.43 178.852 207.766 178.852C208.11 178.852 208.398 178.732 208.63 178.492C208.87 178.252 208.99 177.964 208.99 177.628C208.99 177.292 208.87 177.008 208.63 176.776C208.398 176.544 208.114 176.428 207.778 176.428C207.434 176.428 207.142 176.548 206.902 176.788C206.67 177.02 206.554 177.3 206.554 177.628ZM212.002 183.496C211.602 183.088 211.402 182.596 211.402 182.02C211.402 181.444 211.602 180.96 212.002 180.568C212.41 180.168 212.902 179.968 213.478 179.968C214.046 179.968 214.53 180.168 214.93 180.568C215.33 180.968 215.53 181.452 215.53 182.02C215.53 182.588 215.33 183.076 214.93 183.484C214.53 183.892 214.046 184.096 213.478 184.096C212.902 184.096 212.41 183.896 212.002 183.496ZM212.254 182.02C212.254 182.388 212.37 182.684 212.602 182.908C212.842 183.132 213.13 183.244 213.466 183.244C213.81 183.244 214.098 183.124 214.33 182.884C214.57 182.644 214.69 182.356 214.69 182.02C214.69 181.684 214.57 181.4 214.33 181.168C214.098 180.936 213.814 180.82 213.478 180.82C213.134 180.82 212.842 180.94 212.602 181.18C212.37 181.412 212.254 181.692 212.254 182.02ZM213.334 175.48L208.534 184.24H207.886L212.674 175.48H213.334Z" fill="white"/>
<circle cx="155" cy="155" r="150" stroke="#DDFF0F" stroke-width="10"/>
<path d="M155.001 5C90.6775 5 35.8105 45.4875 14.4941 102.368" stroke="#FCD963" stroke-width="10" stroke-linecap="round"/>
<path d="M155.001 5C142.761 5 130.864 6.46601 119.475 9.23202" stroke="#EE593B" stroke-width="10" stroke-linecap="round"/>
<path d="M155 305C237.843 305 305 237.843 305 155C305 72.1573 237.843 5 155 5" stroke="#DDFF0F" stroke-width="10" stroke-linecap="round"/>
</svg>
