<svg width="310" height="310" viewBox="0 0 310 310" fill="none" xmlns="http://www.w3.org/2000/svg">
<rect x="72" y="74" width="12" height="12" fill="#DDFF0F"/>
<path d="M94.148 77.704L93.788 80.044C94.244 79.692 94.792 79.516 95.432 79.516C96.176 79.516 96.828 79.764 97.388 80.26C97.948 80.748 98.228 81.408 98.228 82.24C98.228 82.464 98.208 82.692 98.168 82.924C98.128 83.148 98.04 83.404 97.904 83.692C97.768 83.98 97.592 84.236 97.376 84.46C97.168 84.676 96.868 84.856 96.476 85C96.092 85.152 95.648 85.228 95.144 85.228C94.904 85.228 94.672 85.208 94.448 85.168C94.224 85.128 93.992 85.056 93.752 84.952C93.52 84.84 93.312 84.7 93.128 84.532C92.944 84.364 92.784 84.14 92.648 83.86C92.52 83.58 92.436 83.256 92.396 82.888H93.5C93.548 83.36 93.732 83.716 94.052 83.956C94.38 84.188 94.796 84.304 95.3 84.304C95.836 84.304 96.268 84.12 96.596 83.752C96.924 83.376 97.088 82.912 97.088 82.36C97.088 81.768 96.912 81.308 96.56 80.98C96.208 80.644 95.756 80.476 95.204 80.476C94.564 80.476 94.04 80.744 93.632 81.28L92.708 81.232L93.344 76.66H97.76V77.704H94.148ZM100.886 77.704L100.526 80.044C100.982 79.692 101.53 79.516 102.17 79.516C102.914 79.516 103.566 79.764 104.126 80.26C104.686 80.748 104.966 81.408 104.966 82.24C104.966 82.464 104.946 82.692 104.906 82.924C104.866 83.148 104.778 83.404 104.642 83.692C104.506 83.98 104.33 84.236 104.114 84.46C103.906 84.676 103.606 84.856 103.214 85C102.83 85.152 102.386 85.228 101.882 85.228C101.642 85.228 101.41 85.208 101.186 85.168C100.962 85.128 100.73 85.056 100.49 84.952C100.258 84.84 100.05 84.7 99.8663 84.532C99.6823 84.364 99.5223 84.14 99.3863 83.86C99.2583 83.58 99.1743 83.256 99.1343 82.888H100.238C100.286 83.36 100.47 83.716 100.79 83.956C101.118 84.188 101.534 84.304 102.038 84.304C102.574 84.304 103.006 84.12 103.334 83.752C103.662 83.376 103.826 82.912 103.826 82.36C103.826 81.768 103.65 81.308 103.298 80.98C102.946 80.644 102.494 80.476 101.942 80.476C101.302 80.476 100.778 80.744 100.37 81.28L99.4463 81.232L100.082 76.66H104.498V77.704H100.886ZM110.256 78.652H114.9V85H113.832V79.54H111.324V82.432C111.324 84.208 110.776 85.096 109.68 85.096C109.448 85.096 109.22 85.064 108.996 85V84.172C109.108 84.188 109.252 84.196 109.428 84.196C109.644 84.196 109.804 84.148 109.908 84.052C110.02 83.956 110.104 83.756 110.16 83.452C110.224 83.148 110.256 82.688 110.256 82.072V78.652ZM120.724 83.008H121.792C121.44 84.456 120.488 85.18 118.936 85.18C118.064 85.18 117.376 84.884 116.872 84.292C116.368 83.7 116.116 82.936 116.116 82C116.116 80.952 116.368 80.104 116.872 79.456C117.384 78.8 118.144 78.472 119.152 78.472C120.04 78.472 120.716 78.804 121.18 79.468C121.644 80.124 121.876 81.028 121.876 82.18H117.256C117.256 82.844 117.412 83.356 117.724 83.716C118.036 84.076 118.492 84.256 119.092 84.256C119.548 84.256 119.932 84.116 120.244 83.836C120.564 83.556 120.724 83.28 120.724 83.008ZM117.256 81.328H120.784C120.704 80.064 120.108 79.432 118.996 79.432C118.516 79.432 118.104 79.624 117.76 80.008C117.424 80.384 117.256 80.824 117.256 81.328ZM122.377 78.652H127.621V79.54H125.533V85H124.465V79.54H122.377V78.652ZM132.989 78.652V83.404H133.013L136.121 78.652H137.237V85H136.169V80.248H136.145L133.037 85H131.921V78.652H132.989ZM147.227 80.788H146.195C146.051 79.884 145.551 79.432 144.695 79.432C144.279 79.432 143.935 79.56 143.663 79.816C143.391 80.064 143.203 80.356 143.099 80.692C143.003 81.028 142.955 81.404 142.955 81.82C142.955 83.444 143.531 84.256 144.683 84.256C145.051 84.256 145.371 84.124 145.643 83.86C145.923 83.596 146.107 83.228 146.195 82.756H147.227C147.195 83.036 147.127 83.308 147.023 83.572C146.927 83.828 146.783 84.084 146.591 84.34C146.407 84.596 146.147 84.8 145.811 84.952C145.475 85.104 145.087 85.18 144.647 85.18C143.775 85.18 143.083 84.884 142.571 84.292C142.067 83.7 141.815 82.936 141.815 82C141.815 80.96 142.071 80.112 142.583 79.456C143.095 78.8 143.851 78.472 144.851 78.472C145.619 78.472 146.195 78.7 146.579 79.156C146.963 79.604 147.179 80.148 147.227 80.788ZM147.748 78.652H152.992V79.54H150.904V85H149.836V79.54H147.748V78.652ZM154.876 80.584H153.892C153.892 79.176 154.764 78.472 156.508 78.472C156.692 78.472 156.888 78.492 157.096 78.532C157.312 78.564 157.564 78.636 157.852 78.748C158.148 78.852 158.388 79.036 158.572 79.3C158.764 79.556 158.86 79.872 158.86 80.248V83.872C158.86 84.136 158.976 84.268 159.208 84.268C159.28 84.268 159.396 84.252 159.556 84.22V85C159.252 85.08 159.06 85.12 158.98 85.12C158.756 85.12 158.568 85.092 158.416 85.036C158.264 84.988 158.148 84.912 158.068 84.808C157.996 84.704 157.944 84.604 157.912 84.508C157.888 84.412 157.868 84.292 157.852 84.148C157.668 84.34 157.496 84.5 157.336 84.628C157.176 84.756 156.936 84.88 156.616 85C156.296 85.12 155.944 85.18 155.56 85.18C154.976 85.18 154.5 85.012 154.132 84.676C153.764 84.34 153.58 83.896 153.58 83.344C153.58 83.16 153.592 82.996 153.616 82.852C153.64 82.708 153.7 82.544 153.796 82.36C153.892 82.168 154.02 82.008 154.18 81.88C154.348 81.744 154.588 81.624 154.9 81.52C155.212 81.408 155.58 81.336 156.004 81.304C156.572 81.256 156.976 81.204 157.216 81.148C157.464 81.084 157.62 81 157.684 80.896C157.756 80.792 157.792 80.62 157.792 80.38C157.792 79.7 157.3 79.36 156.316 79.36C156.028 79.36 155.784 79.4 155.584 79.48C155.392 79.552 155.248 79.66 155.152 79.804C155.064 79.94 155 80.068 154.96 80.188C154.92 80.3 154.892 80.432 154.876 80.584ZM157.792 82.804V81.76C157.616 81.896 157.032 82.028 156.04 82.156C155.864 82.18 155.712 82.208 155.584 82.24C155.464 82.272 155.324 82.324 155.164 82.396C155.004 82.46 154.88 82.56 154.792 82.696C154.712 82.824 154.672 82.984 154.672 83.176C154.672 83.92 155.06 84.292 155.836 84.292C156.348 84.292 156.8 84.148 157.192 83.86C157.592 83.572 157.792 83.22 157.792 82.804ZM163.463 79.432C163.151 79.432 162.879 79.492 162.647 79.612C162.423 79.724 162.251 79.86 162.131 80.02C162.019 80.18 161.927 80.38 161.855 80.62C161.791 80.86 161.751 81.064 161.735 81.232C161.727 81.4 161.723 81.592 161.723 81.808C161.723 82.536 161.867 83.128 162.155 83.584C162.443 84.032 162.867 84.256 163.427 84.256C163.851 84.256 164.235 84.088 164.579 83.752C164.931 83.416 165.107 82.868 165.107 82.108C165.107 81.9 165.099 81.712 165.083 81.544C165.075 81.376 165.055 81.18 165.023 80.956C164.991 80.732 164.935 80.54 164.855 80.38C164.783 80.212 164.687 80.052 164.567 79.9C164.455 79.748 164.303 79.632 164.111 79.552C163.927 79.472 163.711 79.432 163.463 79.432ZM160.655 87.508V78.652H161.651V79.552C161.875 79.216 162.127 78.952 162.407 78.76C162.687 78.568 163.075 78.472 163.571 78.472C164.387 78.472 165.027 78.768 165.491 79.36C165.963 79.952 166.199 80.712 166.199 81.64C166.199 81.968 166.171 82.288 166.115 82.6C166.067 82.904 165.975 83.216 165.839 83.536C165.711 83.856 165.547 84.136 165.347 84.376C165.147 84.608 164.883 84.8 164.555 84.952C164.227 85.104 163.855 85.18 163.439 85.18C162.655 85.18 162.083 84.872 161.723 84.256V87.508H160.655ZM168.485 78.652V84.112H171.161V78.652H172.229V84.112H174.905V78.652H175.973V85H167.417V78.652H168.485ZM181.79 83.008H182.858C182.506 84.456 181.554 85.18 180.002 85.18C179.13 85.18 178.442 84.884 177.938 84.292C177.434 83.7 177.182 82.936 177.182 82C177.182 80.952 177.434 80.104 177.938 79.456C178.45 78.8 179.21 78.472 180.218 78.472C181.106 78.472 181.782 78.804 182.246 79.468C182.71 80.124 182.942 81.028 182.942 82.18H178.322C178.322 82.844 178.478 83.356 178.79 83.716C179.102 84.076 179.558 84.256 180.158 84.256C180.614 84.256 180.998 84.116 181.31 83.836C181.63 83.556 181.79 83.28 181.79 83.008ZM178.322 81.328H181.85C181.77 80.064 181.174 79.432 180.062 79.432C179.582 79.432 179.17 79.624 178.826 80.008C178.49 80.384 178.322 80.824 178.322 81.328ZM198.854 81.496V82.372H186.734V81.496H198.854ZM208.551 82.924H207.303V85H206.247V82.924H202.527V81.88L206.427 76.468H207.303V82H208.551V82.924ZM206.223 78.136L203.499 82H206.247V78.136H206.223ZM215.289 82.924H214.041V85H212.985V82.924H209.265V81.88L213.165 76.468H214.041V82H215.289V82.924ZM212.961 78.136L210.237 82H212.985V78.136H212.961ZM216.735 85V83.716H218.007V84.904C218.007 85.288 217.955 85.612 217.851 85.876C217.755 86.14 217.623 86.332 217.455 86.452C217.287 86.572 217.151 86.652 217.047 86.692C216.943 86.732 216.839 86.76 216.735 86.776V86.224C217.167 86.184 217.383 85.776 217.383 85H216.735ZM225.391 82.924H224.143V85H223.087V82.924H219.367V81.88L223.267 76.468H224.143V82H225.391V82.924ZM223.063 78.136L220.339 82H223.087V78.136H223.063ZM226.861 80.104C226.461 79.696 226.261 79.204 226.261 78.628C226.261 78.052 226.461 77.568 226.861 77.176C227.269 76.776 227.761 76.576 228.337 76.576C228.905 76.576 229.389 76.776 229.789 77.176C230.189 77.576 230.389 78.06 230.389 78.628C230.389 79.196 230.189 79.684 229.789 80.092C229.389 80.5 228.905 80.704 228.337 80.704C227.761 80.704 227.269 80.504 226.861 80.104ZM227.113 78.628C227.113 78.996 227.229 79.292 227.461 79.516C227.701 79.74 227.989 79.852 228.325 79.852C228.669 79.852 228.957 79.732 229.189 79.492C229.429 79.252 229.549 78.964 229.549 78.628C229.549 78.292 229.429 78.008 229.189 77.776C228.957 77.544 228.673 77.428 228.337 77.428C227.993 77.428 227.701 77.548 227.461 77.788C227.229 78.02 227.113 78.3 227.113 78.628ZM232.561 84.496C232.161 84.088 231.961 83.596 231.961 83.02C231.961 82.444 232.161 81.96 232.561 81.568C232.969 81.168 233.461 80.968 234.037 80.968C234.605 80.968 235.089 81.168 235.489 81.568C235.889 81.968 236.089 82.452 236.089 83.02C236.089 83.588 235.889 84.076 235.489 84.484C235.089 84.892 234.605 85.096 234.037 85.096C233.461 85.096 232.969 84.896 232.561 84.496ZM232.813 83.02C232.813 83.388 232.929 83.684 233.161 83.908C233.401 84.132 233.689 84.244 234.025 84.244C234.369 84.244 234.657 84.124 234.889 83.884C235.129 83.644 235.249 83.356 235.249 83.02C235.249 82.684 235.129 82.4 234.889 82.168C234.657 81.936 234.373 81.82 234.037 81.82C233.693 81.82 233.401 81.94 233.161 82.18C232.929 82.412 232.813 82.692 232.813 83.02ZM233.893 76.48L229.093 85.24H228.445L233.233 76.48H233.893Z" fill="white"/>
<rect x="72" y="100" width="12" height="12" fill="#FCD963"/>
<path d="M94.712 107.052V106.164C94.984 106.164 95.2 106.16 95.36 106.152C95.528 106.144 95.72 106.116 95.936 106.068C96.152 106.012 96.32 105.94 96.44 105.852C96.568 105.756 96.676 105.616 96.764 105.432C96.852 105.248 96.896 105.028 96.896 104.772C96.896 104.628 96.872 104.488 96.824 104.352C96.776 104.208 96.696 104.064 96.584 103.92C96.48 103.768 96.316 103.648 96.092 103.56C95.876 103.472 95.62 103.428 95.324 103.428C94.292 103.428 93.74 104.04 93.668 105.264H92.624C92.624 104.992 92.644 104.736 92.684 104.496C92.732 104.248 92.82 104 92.948 103.752C93.076 103.496 93.236 103.276 93.428 103.092C93.628 102.908 93.892 102.76 94.22 102.648C94.556 102.528 94.94 102.468 95.372 102.468C96.18 102.468 96.82 102.676 97.292 103.092C97.764 103.508 98 104.048 98 104.712C98 105.208 97.888 105.604 97.664 105.9C97.44 106.196 97.188 106.388 96.908 106.476V106.5C97.852 106.804 98.324 107.464 98.324 108.48C98.324 109.248 98.068 109.9 97.556 110.436C97.044 110.964 96.28 111.228 95.264 111.228C94.368 111.228 93.668 110.968 93.164 110.448C92.668 109.928 92.42 109.24 92.42 108.384H93.512C93.52 108.632 93.548 108.848 93.596 109.032C93.644 109.216 93.724 109.412 93.836 109.62C93.956 109.828 94.14 109.988 94.388 110.1C94.644 110.212 94.96 110.268 95.336 110.268C95.88 110.268 96.324 110.116 96.668 109.812C97.02 109.5 97.196 109.1 97.196 108.612C97.196 108.004 96.992 107.592 96.584 107.376C96.176 107.16 95.552 107.052 94.712 107.052ZM100.886 103.704L100.526 106.044C100.982 105.692 101.53 105.516 102.17 105.516C102.914 105.516 103.566 105.764 104.126 106.26C104.686 106.748 104.966 107.408 104.966 108.24C104.966 108.464 104.946 108.692 104.906 108.924C104.866 109.148 104.778 109.404 104.642 109.692C104.506 109.98 104.33 110.236 104.114 110.46C103.906 110.676 103.606 110.856 103.214 111C102.83 111.152 102.386 111.228 101.882 111.228C101.642 111.228 101.41 111.208 101.186 111.168C100.962 111.128 100.73 111.056 100.49 110.952C100.258 110.84 100.05 110.7 99.8663 110.532C99.6823 110.364 99.5223 110.14 99.3863 109.86C99.2583 109.58 99.1743 109.256 99.1343 108.888H100.238C100.286 109.36 100.47 109.716 100.79 109.956C101.118 110.188 101.534 110.304 102.038 110.304C102.574 110.304 103.006 110.12 103.334 109.752C103.662 109.376 103.826 108.912 103.826 108.36C103.826 107.768 103.65 107.308 103.298 106.98C102.946 106.644 102.494 106.476 101.942 106.476C101.302 106.476 100.778 106.744 100.37 107.28L99.4463 107.232L100.082 102.66H104.498V103.704H100.886ZM117.597 107.496V108.372H105.477V107.496H117.597ZM123.93 108.924H122.682V111H121.626V108.924H117.906V107.88L121.806 102.468H122.682V108H123.93V108.924ZM121.602 104.136L118.878 108H121.626V104.136H121.602ZM130.668 108.924H129.42V111H128.364V108.924H124.644V107.88L128.544 102.468H129.42V108H130.668V108.924ZM128.34 104.136L125.616 108H128.364V104.136H128.34ZM135.214 104.652H139.342V105.54H136.282V111H135.214V104.652ZM139.893 107.82C139.893 107.396 139.953 106.992 140.073 106.608C140.193 106.216 140.369 105.86 140.601 105.54C140.833 105.212 141.141 104.952 141.525 104.76C141.909 104.568 142.345 104.472 142.833 104.472C143.321 104.472 143.757 104.568 144.141 104.76C144.525 104.952 144.833 105.212 145.065 105.54C145.297 105.86 145.473 106.216 145.593 106.608C145.713 106.992 145.773 107.396 145.773 107.82C145.773 108.724 145.517 109.512 145.005 110.184C144.501 110.848 143.777 111.18 142.833 111.18C141.889 111.18 141.161 110.848 140.649 110.184C140.145 109.512 139.893 108.724 139.893 107.82ZM140.985 107.82C140.985 108.012 140.997 108.208 141.021 108.408C141.053 108.6 141.109 108.812 141.189 109.044C141.277 109.276 141.385 109.48 141.513 109.656C141.649 109.824 141.829 109.968 142.053 110.088C142.285 110.2 142.545 110.256 142.833 110.256C143.121 110.256 143.377 110.2 143.601 110.088C143.833 109.968 144.013 109.824 144.141 109.656C144.277 109.48 144.385 109.276 144.465 109.044C144.553 108.812 144.609 108.6 144.633 108.408C144.665 108.208 144.681 108.012 144.681 107.82C144.681 107.572 144.653 107.324 144.597 107.076C144.549 106.82 144.461 106.56 144.333 106.296C144.213 106.032 144.021 105.816 143.757 105.648C143.501 105.48 143.193 105.396 142.833 105.396C142.473 105.396 142.161 105.48 141.897 105.648C141.641 105.816 141.449 106.032 141.321 106.296C141.201 106.56 141.113 106.82 141.057 107.076C141.009 107.324 140.985 107.572 140.985 107.82ZM147.735 104.652H152.175V110.112H152.883V112.86H151.911V111H147.291V112.86H146.319V110.112H147.027C147.499 109.224 147.735 108.092 147.735 106.716V104.652ZM151.107 110.112V105.54H148.767V106.692C148.767 108.076 148.555 109.216 148.131 110.112H151.107ZM154.83 106.584H153.846C153.846 105.176 154.718 104.472 156.462 104.472C156.646 104.472 156.842 104.492 157.05 104.532C157.266 104.564 157.518 104.636 157.806 104.748C158.102 104.852 158.342 105.036 158.526 105.3C158.718 105.556 158.814 105.872 158.814 106.248V109.872C158.814 110.136 158.93 110.268 159.162 110.268C159.234 110.268 159.35 110.252 159.51 110.22V111C159.206 111.08 159.014 111.12 158.934 111.12C158.71 111.12 158.522 111.092 158.37 111.036C158.218 110.988 158.102 110.912 158.022 110.808C157.95 110.704 157.898 110.604 157.866 110.508C157.842 110.412 157.822 110.292 157.806 110.148C157.622 110.34 157.45 110.5 157.29 110.628C157.13 110.756 156.89 110.88 156.57 111C156.25 111.12 155.898 111.18 155.514 111.18C154.93 111.18 154.454 111.012 154.086 110.676C153.718 110.34 153.534 109.896 153.534 109.344C153.534 109.16 153.546 108.996 153.57 108.852C153.594 108.708 153.654 108.544 153.75 108.36C153.846 108.168 153.974 108.008 154.134 107.88C154.302 107.744 154.542 107.624 154.854 107.52C155.166 107.408 155.534 107.336 155.958 107.304C156.526 107.256 156.93 107.204 157.17 107.148C157.418 107.084 157.574 107 157.638 106.896C157.71 106.792 157.746 106.62 157.746 106.38C157.746 105.7 157.254 105.36 156.27 105.36C155.982 105.36 155.738 105.4 155.538 105.48C155.346 105.552 155.202 105.66 155.106 105.804C155.018 105.94 154.954 106.068 154.914 106.188C154.874 106.3 154.846 106.432 154.83 106.584ZM157.746 108.804V107.76C157.57 107.896 156.986 108.028 155.994 108.156C155.818 108.18 155.666 108.208 155.538 108.24C155.418 108.272 155.278 108.324 155.118 108.396C154.958 108.46 154.834 108.56 154.746 108.696C154.666 108.824 154.626 108.984 154.626 109.176C154.626 109.92 155.014 110.292 155.79 110.292C156.302 110.292 156.754 110.148 157.146 109.86C157.546 109.572 157.746 109.22 157.746 108.804ZM175.311 107.496V108.372H163.191V107.496H175.311ZM183.016 102.468V111H181.876V104.952H179.896V104.1C180.288 104.076 180.588 104.044 180.796 104.004C181.004 103.964 181.208 103.888 181.408 103.776C181.616 103.664 181.776 103.508 181.888 103.308C182 103.1 182.1 102.82 182.188 102.468H183.016ZM187.558 103.704L187.198 106.044C187.654 105.692 188.202 105.516 188.842 105.516C189.586 105.516 190.238 105.764 190.798 106.26C191.358 106.748 191.638 107.408 191.638 108.24C191.638 108.464 191.618 108.692 191.578 108.924C191.538 109.148 191.45 109.404 191.314 109.692C191.178 109.98 191.002 110.236 190.786 110.46C190.578 110.676 190.278 110.856 189.886 111C189.502 111.152 189.058 111.228 188.554 111.228C188.314 111.228 188.082 111.208 187.858 111.168C187.634 111.128 187.402 111.056 187.162 110.952C186.93 110.84 186.722 110.7 186.538 110.532C186.354 110.364 186.194 110.14 186.058 109.86C185.93 109.58 185.846 109.256 185.806 108.888H186.91C186.958 109.36 187.142 109.716 187.462 109.956C187.79 110.188 188.206 110.304 188.71 110.304C189.246 110.304 189.678 110.12 190.006 109.752C190.334 109.376 190.498 108.912 190.498 108.36C190.498 107.768 190.322 107.308 189.97 106.98C189.618 106.644 189.166 106.476 188.614 106.476C187.974 106.476 187.45 106.744 187.042 107.28L186.118 107.232L186.754 102.66H191.17V103.704H187.558ZM193.192 111V109.716H194.464V110.904C194.464 111.288 194.412 111.612 194.308 111.876C194.212 112.14 194.08 112.332 193.912 112.452C193.744 112.572 193.608 112.652 193.504 112.692C193.4 112.732 193.296 112.76 193.192 112.776V112.224C193.624 112.184 193.84 111.776 193.84 111H193.192ZM201.476 104.664C201.476 104.952 201.44 105.208 201.368 105.432C201.296 105.648 201.192 105.824 201.056 105.96C200.928 106.096 200.816 106.2 200.72 106.272C200.632 106.336 200.52 106.4 200.384 106.464C200.744 106.616 201.032 106.824 201.248 107.088C201.472 107.344 201.616 107.588 201.68 107.82C201.744 108.044 201.776 108.28 201.776 108.528C201.776 109.28 201.532 109.92 201.044 110.448C200.556 110.968 199.84 111.228 198.896 111.228C198.072 111.228 197.38 111 196.82 110.544C196.26 110.088 195.98 109.42 195.98 108.54C195.98 107.548 196.46 106.86 197.42 106.476C196.652 106.172 196.268 105.616 196.268 104.808C196.268 104.56 196.308 104.312 196.388 104.064C196.476 103.816 196.608 103.568 196.784 103.32C196.968 103.064 197.236 102.86 197.588 102.708C197.948 102.548 198.368 102.468 198.848 102.468C199.72 102.468 200.376 102.692 200.816 103.14C201.256 103.58 201.476 104.088 201.476 104.664ZM198.872 106.992C198.312 106.992 197.88 107.148 197.576 107.46C197.272 107.772 197.12 108.14 197.12 108.564C197.12 109.004 197.256 109.4 197.528 109.752C197.808 110.096 198.276 110.268 198.932 110.268C200.068 110.268 200.636 109.728 200.636 108.648C200.636 108.104 200.472 107.692 200.144 107.412C199.816 107.132 199.392 106.992 198.872 106.992ZM198.86 106.068C199.316 106.068 199.68 105.94 199.952 105.684C200.232 105.428 200.372 105.1 200.372 104.7C200.372 104.372 200.248 104.08 200 103.824C199.752 103.56 199.348 103.428 198.788 103.428C198.276 103.428 197.912 103.564 197.696 103.836C197.48 104.108 197.372 104.416 197.372 104.76C197.372 105.152 197.516 105.468 197.804 105.708C198.1 105.948 198.452 106.068 198.86 106.068ZM203.318 106.104C202.918 105.696 202.718 105.204 202.718 104.628C202.718 104.052 202.918 103.568 203.318 103.176C203.726 102.776 204.218 102.576 204.794 102.576C205.362 102.576 205.846 102.776 206.246 103.176C206.646 103.576 206.846 104.06 206.846 104.628C206.846 105.196 206.646 105.684 206.246 106.092C205.846 106.5 205.362 106.704 204.794 106.704C204.218 106.704 203.726 106.504 203.318 106.104ZM203.57 104.628C203.57 104.996 203.686 105.292 203.918 105.516C204.158 105.74 204.446 105.852 204.782 105.852C205.126 105.852 205.414 105.732 205.646 105.492C205.886 105.252 206.006 104.964 206.006 104.628C206.006 104.292 205.886 104.008 205.646 103.776C205.414 103.544 205.13 103.428 204.794 103.428C204.45 103.428 204.158 103.548 203.918 103.788C203.686 104.02 203.57 104.3 203.57 104.628ZM209.018 110.496C208.618 110.088 208.418 109.596 208.418 109.02C208.418 108.444 208.618 107.96 209.018 107.568C209.426 107.168 209.918 106.968 210.494 106.968C211.062 106.968 211.546 107.168 211.946 107.568C212.346 107.968 212.546 108.452 212.546 109.02C212.546 109.588 212.346 110.076 211.946 110.484C211.546 110.892 211.062 111.096 210.494 111.096C209.918 111.096 209.426 110.896 209.018 110.496ZM209.27 109.02C209.27 109.388 209.386 109.684 209.618 109.908C209.858 110.132 210.146 110.244 210.482 110.244C210.826 110.244 211.114 110.124 211.346 109.884C211.586 109.644 211.706 109.356 211.706 109.02C211.706 108.684 211.586 108.4 211.346 108.168C211.114 107.936 210.83 107.82 210.494 107.82C210.15 107.82 209.858 107.94 209.618 108.18C209.386 108.412 209.27 108.692 209.27 109.02ZM210.35 102.48L205.55 111.24H204.902L209.69 102.48H210.35Z" fill="white"/>
<rect x="72" y="126" width="12" height="12" fill="#EE593B"/>
<path d="M93.608 131.528H92.54C92.54 131 92.612 130.54 92.756 130.148C92.908 129.756 93.088 129.456 93.296 129.248C93.512 129.04 93.764 128.876 94.052 128.756C94.34 128.628 94.592 128.548 94.808 128.516C95.024 128.484 95.248 128.468 95.48 128.468C96.24 128.468 96.872 128.7 97.376 129.164C97.888 129.628 98.144 130.248 98.144 131.024C98.144 131.4 98.092 131.728 97.988 132.008C97.884 132.28 97.688 132.548 97.4 132.812C97.12 133.068 96.824 133.292 96.512 133.484C96.2 133.676 95.744 133.936 95.144 134.264C94.632 134.544 94.24 134.848 93.968 135.176C93.704 135.504 93.556 135.776 93.524 135.992H98.144V137H92.324C92.38 136.064 92.596 135.324 92.972 134.78C93.356 134.228 94.096 133.668 95.192 133.1C95.832 132.772 96.292 132.464 96.572 132.176C96.86 131.88 97.004 131.48 97.004 130.976C97.004 130.576 96.864 130.22 96.584 129.908C96.312 129.588 95.892 129.428 95.324 129.428C95.02 129.428 94.756 129.488 94.532 129.608C94.308 129.72 94.14 129.848 94.028 129.992C93.924 130.128 93.836 130.316 93.764 130.556C93.7 130.788 93.66 130.96 93.644 131.072C93.628 131.184 93.616 131.336 93.608 131.528ZM100.886 129.704L100.526 132.044C100.982 131.692 101.53 131.516 102.17 131.516C102.914 131.516 103.566 131.764 104.126 132.26C104.686 132.748 104.966 133.408 104.966 134.24C104.966 134.464 104.946 134.692 104.906 134.924C104.866 135.148 104.778 135.404 104.642 135.692C104.506 135.98 104.33 136.236 104.114 136.46C103.906 136.676 103.606 136.856 103.214 137C102.83 137.152 102.386 137.228 101.882 137.228C101.642 137.228 101.41 137.208 101.186 137.168C100.962 137.128 100.73 137.056 100.49 136.952C100.258 136.84 100.05 136.7 99.8663 136.532C99.6823 136.364 99.5223 136.14 99.3863 135.86C99.2583 135.58 99.1743 135.256 99.1343 134.888H100.238C100.286 135.36 100.47 135.716 100.79 135.956C101.118 136.188 101.534 136.304 102.038 136.304C102.574 136.304 103.006 136.12 103.334 135.752C103.662 135.376 103.826 134.912 103.826 134.36C103.826 133.768 103.65 133.308 103.298 132.98C102.946 132.644 102.494 132.476 101.942 132.476C101.302 132.476 100.778 132.744 100.37 133.28L99.4463 133.232L100.082 128.66H104.498V129.704H100.886ZM117.597 133.496V134.372H105.477V133.496H117.597ZM120.306 133.052V132.164C120.578 132.164 120.794 132.16 120.954 132.152C121.122 132.144 121.314 132.116 121.53 132.068C121.746 132.012 121.914 131.94 122.034 131.852C122.162 131.756 122.27 131.616 122.358 131.432C122.446 131.248 122.49 131.028 122.49 130.772C122.49 130.628 122.466 130.488 122.418 130.352C122.37 130.208 122.29 130.064 122.178 129.92C122.074 129.768 121.91 129.648 121.686 129.56C121.47 129.472 121.214 129.428 120.918 129.428C119.886 129.428 119.334 130.04 119.262 131.264H118.218C118.218 130.992 118.238 130.736 118.278 130.496C118.326 130.248 118.414 130 118.542 129.752C118.67 129.496 118.83 129.276 119.022 129.092C119.222 128.908 119.486 128.76 119.814 128.648C120.15 128.528 120.534 128.468 120.966 128.468C121.774 128.468 122.414 128.676 122.886 129.092C123.358 129.508 123.594 130.048 123.594 130.712C123.594 131.208 123.482 131.604 123.258 131.9C123.034 132.196 122.782 132.388 122.502 132.476V132.5C123.446 132.804 123.918 133.464 123.918 134.48C123.918 135.248 123.662 135.9 123.15 136.436C122.638 136.964 121.874 137.228 120.858 137.228C119.962 137.228 119.262 136.968 118.758 136.448C118.262 135.928 118.014 135.24 118.014 134.384H119.106C119.114 134.632 119.142 134.848 119.19 135.032C119.238 135.216 119.318 135.412 119.43 135.62C119.55 135.828 119.734 135.988 119.982 136.1C120.238 136.212 120.554 136.268 120.93 136.268C121.474 136.268 121.918 136.116 122.262 135.812C122.614 135.5 122.79 135.1 122.79 134.612C122.79 134.004 122.586 133.592 122.178 133.376C121.77 133.16 121.146 133.052 120.306 133.052ZM130.668 134.924H129.42V137H128.364V134.924H124.644V133.88L128.544 128.468H129.42V134H130.668V134.924ZM128.34 130.136L125.616 134H128.364V130.136H128.34ZM135.214 130.652H139.342V131.54H136.282V137H135.214V130.652ZM139.893 133.82C139.893 133.396 139.953 132.992 140.073 132.608C140.193 132.216 140.369 131.86 140.601 131.54C140.833 131.212 141.141 130.952 141.525 130.76C141.909 130.568 142.345 130.472 142.833 130.472C143.321 130.472 143.757 130.568 144.141 130.76C144.525 130.952 144.833 131.212 145.065 131.54C145.297 131.86 145.473 132.216 145.593 132.608C145.713 132.992 145.773 133.396 145.773 133.82C145.773 134.724 145.517 135.512 145.005 136.184C144.501 136.848 143.777 137.18 142.833 137.18C141.889 137.18 141.161 136.848 140.649 136.184C140.145 135.512 139.893 134.724 139.893 133.82ZM140.985 133.82C140.985 134.012 140.997 134.208 141.021 134.408C141.053 134.6 141.109 134.812 141.189 135.044C141.277 135.276 141.385 135.48 141.513 135.656C141.649 135.824 141.829 135.968 142.053 136.088C142.285 136.2 142.545 136.256 142.833 136.256C143.121 136.256 143.377 136.2 143.601 136.088C143.833 135.968 144.013 135.824 144.141 135.656C144.277 135.48 144.385 135.276 144.465 135.044C144.553 134.812 144.609 134.6 144.633 134.408C144.665 134.208 144.681 134.012 144.681 133.82C144.681 133.572 144.653 133.324 144.597 133.076C144.549 132.82 144.461 132.56 144.333 132.296C144.213 132.032 144.021 131.816 143.757 131.648C143.501 131.48 143.193 131.396 142.833 131.396C142.473 131.396 142.161 131.48 141.897 131.648C141.641 131.816 141.449 132.032 141.321 132.296C141.201 132.56 141.113 132.82 141.057 133.076C141.009 133.324 140.985 133.572 140.985 133.82ZM147.735 130.652H152.175V136.112H152.883V138.86H151.911V137H147.291V138.86H146.319V136.112H147.027C147.499 135.224 147.735 134.092 147.735 132.716V130.652ZM151.107 136.112V131.54H148.767V132.692C148.767 134.076 148.555 135.216 148.131 136.112H151.107ZM154.83 132.584H153.846C153.846 131.176 154.718 130.472 156.462 130.472C156.646 130.472 156.842 130.492 157.05 130.532C157.266 130.564 157.518 130.636 157.806 130.748C158.102 130.852 158.342 131.036 158.526 131.3C158.718 131.556 158.814 131.872 158.814 132.248V135.872C158.814 136.136 158.93 136.268 159.162 136.268C159.234 136.268 159.35 136.252 159.51 136.22V137C159.206 137.08 159.014 137.12 158.934 137.12C158.71 137.12 158.522 137.092 158.37 137.036C158.218 136.988 158.102 136.912 158.022 136.808C157.95 136.704 157.898 136.604 157.866 136.508C157.842 136.412 157.822 136.292 157.806 136.148C157.622 136.34 157.45 136.5 157.29 136.628C157.13 136.756 156.89 136.88 156.57 137C156.25 137.12 155.898 137.18 155.514 137.18C154.93 137.18 154.454 137.012 154.086 136.676C153.718 136.34 153.534 135.896 153.534 135.344C153.534 135.16 153.546 134.996 153.57 134.852C153.594 134.708 153.654 134.544 153.75 134.36C153.846 134.168 153.974 134.008 154.134 133.88C154.302 133.744 154.542 133.624 154.854 133.52C155.166 133.408 155.534 133.336 155.958 133.304C156.526 133.256 156.93 133.204 157.17 133.148C157.418 133.084 157.574 133 157.638 132.896C157.71 132.792 157.746 132.62 157.746 132.38C157.746 131.7 157.254 131.36 156.27 131.36C155.982 131.36 155.738 131.4 155.538 131.48C155.346 131.552 155.202 131.66 155.106 131.804C155.018 131.94 154.954 132.068 154.914 132.188C154.874 132.3 154.846 132.432 154.83 132.584ZM157.746 134.804V133.76C157.57 133.896 156.986 134.028 155.994 134.156C155.818 134.18 155.666 134.208 155.538 134.24C155.418 134.272 155.278 134.324 155.118 134.396C154.958 134.46 154.834 134.56 154.746 134.696C154.666 134.824 154.626 134.984 154.626 135.176C154.626 135.92 155.014 136.292 155.79 136.292C156.302 136.292 156.754 136.148 157.146 135.86C157.546 135.572 157.746 135.22 157.746 134.804ZM175.311 133.496V134.372H163.191V133.496H175.311ZM183.016 128.468V137H181.876V130.952H179.896V130.1C180.288 130.076 180.588 130.044 180.796 130.004C181.004 129.964 181.208 129.888 181.408 129.776C181.616 129.664 181.776 129.508 181.888 129.308C182 129.1 182.1 128.82 182.188 128.468H183.016ZM191.746 134.924H190.498V137H189.442V134.924H185.722V133.88L189.622 128.468H190.498V134H191.746V134.924ZM189.418 130.136L186.694 134H189.442V130.136H189.418ZM193.192 137V135.716H194.464V136.904C194.464 137.288 194.412 137.612 194.308 137.876C194.212 138.14 194.08 138.332 193.912 138.452C193.744 138.572 193.608 138.652 193.504 138.692C193.4 138.732 193.296 138.76 193.192 138.776V138.224C193.624 138.184 193.84 137.776 193.84 137H193.192ZM195.968 129.704V128.66H201.848V129.596C201.592 129.868 201.316 130.212 201.02 130.628C200.724 131.036 200.392 131.552 200.024 132.176C199.664 132.8 199.332 133.54 199.028 134.396C198.724 135.244 198.5 136.112 198.356 137H197.18C197.324 135.864 197.728 134.612 198.392 133.244C199.056 131.868 199.808 130.688 200.648 129.704H195.968ZM203.318 132.104C202.918 131.696 202.718 131.204 202.718 130.628C202.718 130.052 202.918 129.568 203.318 129.176C203.726 128.776 204.218 128.576 204.794 128.576C205.362 128.576 205.846 128.776 206.246 129.176C206.646 129.576 206.846 130.06 206.846 130.628C206.846 131.196 206.646 131.684 206.246 132.092C205.846 132.5 205.362 132.704 204.794 132.704C204.218 132.704 203.726 132.504 203.318 132.104ZM203.57 130.628C203.57 130.996 203.686 131.292 203.918 131.516C204.158 131.74 204.446 131.852 204.782 131.852C205.126 131.852 205.414 131.732 205.646 131.492C205.886 131.252 206.006 130.964 206.006 130.628C206.006 130.292 205.886 130.008 205.646 129.776C205.414 129.544 205.13 129.428 204.794 129.428C204.45 129.428 204.158 129.548 203.918 129.788C203.686 130.02 203.57 130.3 203.57 130.628ZM209.018 136.496C208.618 136.088 208.418 135.596 208.418 135.02C208.418 134.444 208.618 133.96 209.018 133.568C209.426 133.168 209.918 132.968 210.494 132.968C211.062 132.968 211.546 133.168 211.946 133.568C212.346 133.968 212.546 134.452 212.546 135.02C212.546 135.588 212.346 136.076 211.946 136.484C211.546 136.892 211.062 137.096 210.494 137.096C209.918 137.096 209.426 136.896 209.018 136.496ZM209.27 135.02C209.27 135.388 209.386 135.684 209.618 135.908C209.858 136.132 210.146 136.244 210.482 136.244C210.826 136.244 211.114 136.124 211.346 135.884C211.586 135.644 211.706 135.356 211.706 135.02C211.706 134.684 211.586 134.4 211.346 134.168C211.114 133.936 210.83 133.82 210.494 133.82C210.15 133.82 209.858 133.94 209.618 134.18C209.386 134.412 209.27 134.692 209.27 135.02ZM210.35 128.48L205.55 137.24H204.902L209.69 128.48H210.35Z" fill="white"/>
<rect x="72" y="152" width="12" height="12" fill="#78B6E7"/>
<path d="M98.336 160.924H97.088V163H96.032V160.924H92.312V159.88L96.212 154.468H97.088V160H98.336V160.924ZM96.008 156.136L93.284 160H96.032V156.136H96.008ZM100.886 155.704L100.526 158.044C100.982 157.692 101.53 157.516 102.17 157.516C102.914 157.516 103.566 157.764 104.126 158.26C104.686 158.748 104.966 159.408 104.966 160.24C104.966 160.464 104.946 160.692 104.906 160.924C104.866 161.148 104.778 161.404 104.642 161.692C104.506 161.98 104.33 162.236 104.114 162.46C103.906 162.676 103.606 162.856 103.214 163C102.83 163.152 102.386 163.228 101.882 163.228C101.642 163.228 101.41 163.208 101.186 163.168C100.962 163.128 100.73 163.056 100.49 162.952C100.258 162.84 100.05 162.7 99.8663 162.532C99.6823 162.364 99.5223 162.14 99.3863 161.86C99.2583 161.58 99.1743 161.256 99.1343 160.888H100.238C100.286 161.36 100.47 161.716 100.79 161.956C101.118 162.188 101.534 162.304 102.038 162.304C102.574 162.304 103.006 162.12 103.334 161.752C103.662 161.376 103.826 160.912 103.826 160.36C103.826 159.768 103.65 159.308 103.298 158.98C102.946 158.644 102.494 158.476 101.942 158.476C101.302 158.476 100.778 158.744 100.37 159.28L99.4463 159.232L100.082 154.66H104.498V155.704H100.886ZM117.597 159.496V160.372H105.477V159.496H117.597ZM119.742 155.704L119.382 158.044C119.838 157.692 120.386 157.516 121.026 157.516C121.77 157.516 122.422 157.764 122.982 158.26C123.542 158.748 123.822 159.408 123.822 160.24C123.822 160.464 123.802 160.692 123.762 160.924C123.722 161.148 123.634 161.404 123.498 161.692C123.362 161.98 123.186 162.236 122.97 162.46C122.762 162.676 122.462 162.856 122.07 163C121.686 163.152 121.242 163.228 120.738 163.228C120.498 163.228 120.266 163.208 120.042 163.168C119.818 163.128 119.586 163.056 119.346 162.952C119.114 162.84 118.906 162.7 118.722 162.532C118.538 162.364 118.378 162.14 118.242 161.86C118.114 161.58 118.03 161.256 117.99 160.888H119.094C119.142 161.36 119.326 161.716 119.646 161.956C119.974 162.188 120.39 162.304 120.894 162.304C121.43 162.304 121.862 162.12 122.19 161.752C122.518 161.376 122.682 160.912 122.682 160.36C122.682 159.768 122.506 159.308 122.154 158.98C121.802 158.644 121.35 158.476 120.798 158.476C120.158 158.476 119.634 158.744 119.226 159.28L118.302 159.232L118.938 154.66H123.354V155.704H119.742ZM130.668 160.924H129.42V163H128.364V160.924H124.644V159.88L128.544 154.468H129.42V160H130.668V160.924ZM128.34 156.136L125.616 160H128.364V156.136H128.34ZM135.214 156.652H139.342V157.54H136.282V163H135.214V156.652ZM139.893 159.82C139.893 159.396 139.953 158.992 140.073 158.608C140.193 158.216 140.369 157.86 140.601 157.54C140.833 157.212 141.141 156.952 141.525 156.76C141.909 156.568 142.345 156.472 142.833 156.472C143.321 156.472 143.757 156.568 144.141 156.76C144.525 156.952 144.833 157.212 145.065 157.54C145.297 157.86 145.473 158.216 145.593 158.608C145.713 158.992 145.773 159.396 145.773 159.82C145.773 160.724 145.517 161.512 145.005 162.184C144.501 162.848 143.777 163.18 142.833 163.18C141.889 163.18 141.161 162.848 140.649 162.184C140.145 161.512 139.893 160.724 139.893 159.82ZM140.985 159.82C140.985 160.012 140.997 160.208 141.021 160.408C141.053 160.6 141.109 160.812 141.189 161.044C141.277 161.276 141.385 161.48 141.513 161.656C141.649 161.824 141.829 161.968 142.053 162.088C142.285 162.2 142.545 162.256 142.833 162.256C143.121 162.256 143.377 162.2 143.601 162.088C143.833 161.968 144.013 161.824 144.141 161.656C144.277 161.48 144.385 161.276 144.465 161.044C144.553 160.812 144.609 160.6 144.633 160.408C144.665 160.208 144.681 160.012 144.681 159.82C144.681 159.572 144.653 159.324 144.597 159.076C144.549 158.82 144.461 158.56 144.333 158.296C144.213 158.032 144.021 157.816 143.757 157.648C143.501 157.48 143.193 157.396 142.833 157.396C142.473 157.396 142.161 157.48 141.897 157.648C141.641 157.816 141.449 158.032 141.321 158.296C141.201 158.56 141.113 158.82 141.057 159.076C141.009 159.324 140.985 159.572 140.985 159.82ZM147.735 156.652H152.175V162.112H152.883V164.86H151.911V163H147.291V164.86H146.319V162.112H147.027C147.499 161.224 147.735 160.092 147.735 158.716V156.652ZM151.107 162.112V157.54H148.767V158.692C148.767 160.076 148.555 161.216 148.131 162.112H151.107ZM154.83 158.584H153.846C153.846 157.176 154.718 156.472 156.462 156.472C156.646 156.472 156.842 156.492 157.05 156.532C157.266 156.564 157.518 156.636 157.806 156.748C158.102 156.852 158.342 157.036 158.526 157.3C158.718 157.556 158.814 157.872 158.814 158.248V161.872C158.814 162.136 158.93 162.268 159.162 162.268C159.234 162.268 159.35 162.252 159.51 162.22V163C159.206 163.08 159.014 163.12 158.934 163.12C158.71 163.12 158.522 163.092 158.37 163.036C158.218 162.988 158.102 162.912 158.022 162.808C157.95 162.704 157.898 162.604 157.866 162.508C157.842 162.412 157.822 162.292 157.806 162.148C157.622 162.34 157.45 162.5 157.29 162.628C157.13 162.756 156.89 162.88 156.57 163C156.25 163.12 155.898 163.18 155.514 163.18C154.93 163.18 154.454 163.012 154.086 162.676C153.718 162.34 153.534 161.896 153.534 161.344C153.534 161.16 153.546 160.996 153.57 160.852C153.594 160.708 153.654 160.544 153.75 160.36C153.846 160.168 153.974 160.008 154.134 159.88C154.302 159.744 154.542 159.624 154.854 159.52C155.166 159.408 155.534 159.336 155.958 159.304C156.526 159.256 156.93 159.204 157.17 159.148C157.418 159.084 157.574 159 157.638 158.896C157.71 158.792 157.746 158.62 157.746 158.38C157.746 157.7 157.254 157.36 156.27 157.36C155.982 157.36 155.738 157.4 155.538 157.48C155.346 157.552 155.202 157.66 155.106 157.804C155.018 157.94 154.954 158.068 154.914 158.188C154.874 158.3 154.846 158.432 154.83 158.584ZM157.746 160.804V159.76C157.57 159.896 156.986 160.028 155.994 160.156C155.818 160.18 155.666 160.208 155.538 160.24C155.418 160.272 155.278 160.324 155.118 160.396C154.958 160.46 154.834 160.56 154.746 160.696C154.666 160.824 154.626 160.984 154.626 161.176C154.626 161.92 155.014 162.292 155.79 162.292C156.302 162.292 156.754 162.148 157.146 161.86C157.546 161.572 157.746 161.22 157.746 160.804ZM175.311 159.496V160.372H163.191V159.496H175.311ZM183.016 154.468V163H181.876V156.952H179.896V156.1C180.288 156.076 180.588 156.044 180.796 156.004C181.004 155.964 181.208 155.888 181.408 155.776C181.616 155.664 181.776 155.508 181.888 155.308C182 155.1 182.1 154.82 182.188 154.468H183.016ZM187.018 157.528H185.95C185.95 157 186.022 156.54 186.166 156.148C186.318 155.756 186.498 155.456 186.706 155.248C186.922 155.04 187.174 154.876 187.462 154.756C187.75 154.628 188.002 154.548 188.218 154.516C188.434 154.484 188.658 154.468 188.89 154.468C189.65 154.468 190.282 154.7 190.786 155.164C191.298 155.628 191.554 156.248 191.554 157.024C191.554 157.4 191.502 157.728 191.398 158.008C191.294 158.28 191.098 158.548 190.81 158.812C190.53 159.068 190.234 159.292 189.922 159.484C189.61 159.676 189.154 159.936 188.554 160.264C188.042 160.544 187.65 160.848 187.378 161.176C187.114 161.504 186.966 161.776 186.934 161.992H191.554V163H185.734C185.79 162.064 186.006 161.324 186.382 160.78C186.766 160.228 187.506 159.668 188.602 159.1C189.242 158.772 189.702 158.464 189.982 158.176C190.27 157.88 190.414 157.48 190.414 156.976C190.414 156.576 190.274 156.22 189.994 155.908C189.722 155.588 189.302 155.428 188.734 155.428C188.43 155.428 188.166 155.488 187.942 155.608C187.718 155.72 187.55 155.848 187.438 155.992C187.334 156.128 187.246 156.316 187.174 156.556C187.11 156.788 187.07 156.96 187.054 157.072C187.038 157.184 187.026 157.336 187.018 157.528ZM193.192 163V161.716H194.464V162.904C194.464 163.288 194.412 163.612 194.308 163.876C194.212 164.14 194.08 164.332 193.912 164.452C193.744 164.572 193.608 164.652 193.504 164.692C193.4 164.732 193.296 164.76 193.192 164.776V164.224C193.624 164.184 193.84 163.776 193.84 163H193.192ZM198.704 160.144C197.912 160.144 197.268 159.896 196.772 159.4C196.276 158.904 196.028 158.236 196.028 157.396C196.028 156.572 196.268 155.88 196.748 155.32C197.236 154.752 197.908 154.468 198.764 154.468C199.276 154.468 199.724 154.564 200.108 154.756C200.492 154.948 200.784 155.18 200.984 155.452C201.184 155.724 201.344 156.056 201.464 156.448C201.584 156.84 201.66 157.184 201.692 157.48C201.724 157.776 201.74 158.092 201.74 158.428C201.74 158.604 201.732 158.788 201.716 158.98C201.708 159.172 201.68 159.436 201.632 159.772C201.592 160.1 201.532 160.412 201.452 160.708C201.372 160.996 201.252 161.3 201.092 161.62C200.94 161.94 200.76 162.216 200.552 162.448C200.344 162.672 200.076 162.856 199.748 163C199.42 163.152 199.056 163.228 198.656 163.228C198.272 163.228 197.928 163.172 197.624 163.06C197.32 162.956 197.076 162.824 196.892 162.664C196.716 162.504 196.564 162.32 196.436 162.112C196.316 161.896 196.232 161.692 196.184 161.5C196.144 161.308 196.124 161.124 196.124 160.948H197.192C197.224 161.38 197.364 161.72 197.612 161.968C197.86 162.216 198.2 162.34 198.632 162.34C199.208 162.34 199.656 162.088 199.976 161.584C200.304 161.072 200.536 160.26 200.672 159.148L200.648 159.124C200.496 159.444 200.236 159.696 199.868 159.88C199.5 160.056 199.112 160.144 198.704 160.144ZM198.86 159.184C199.028 159.184 199.192 159.16 199.352 159.112C199.52 159.064 199.696 158.98 199.88 158.86C200.064 158.732 200.212 158.532 200.324 158.26C200.436 157.98 200.492 157.644 200.492 157.252C200.492 156.724 200.348 156.288 200.06 155.944C199.78 155.6 199.352 155.428 198.776 155.428C198.28 155.428 197.88 155.604 197.576 155.956C197.28 156.308 197.132 156.772 197.132 157.348C197.132 158.572 197.708 159.184 198.86 159.184ZM203.318 158.104C202.918 157.696 202.718 157.204 202.718 156.628C202.718 156.052 202.918 155.568 203.318 155.176C203.726 154.776 204.218 154.576 204.794 154.576C205.362 154.576 205.846 154.776 206.246 155.176C206.646 155.576 206.846 156.06 206.846 156.628C206.846 157.196 206.646 157.684 206.246 158.092C205.846 158.5 205.362 158.704 204.794 158.704C204.218 158.704 203.726 158.504 203.318 158.104ZM203.57 156.628C203.57 156.996 203.686 157.292 203.918 157.516C204.158 157.74 204.446 157.852 204.782 157.852C205.126 157.852 205.414 157.732 205.646 157.492C205.886 157.252 206.006 156.964 206.006 156.628C206.006 156.292 205.886 156.008 205.646 155.776C205.414 155.544 205.13 155.428 204.794 155.428C204.45 155.428 204.158 155.548 203.918 155.788C203.686 156.02 203.57 156.3 203.57 156.628ZM209.018 162.496C208.618 162.088 208.418 161.596 208.418 161.02C208.418 160.444 208.618 159.96 209.018 159.568C209.426 159.168 209.918 158.968 210.494 158.968C211.062 158.968 211.546 159.168 211.946 159.568C212.346 159.968 212.546 160.452 212.546 161.02C212.546 161.588 212.346 162.076 211.946 162.484C211.546 162.892 211.062 163.096 210.494 163.096C209.918 163.096 209.426 162.896 209.018 162.496ZM209.27 161.02C209.27 161.388 209.386 161.684 209.618 161.908C209.858 162.132 210.146 162.244 210.482 162.244C210.826 162.244 211.114 162.124 211.346 161.884C211.586 161.644 211.706 161.356 211.706 161.02C211.706 160.684 211.586 160.4 211.346 160.168C211.114 159.936 210.83 159.82 210.494 159.82C210.15 159.82 209.858 159.94 209.618 160.18C209.386 160.412 209.27 160.692 209.27 161.02ZM210.35 154.48L205.55 163.24H204.902L209.69 154.48H210.35Z" fill="white"/>
<rect x="72" y="178" width="12" height="12" fill="#A955B7"/>
<path d="M98.492 187.896V188.856L92.588 186.348V185.508L98.492 183V183.96L93.776 185.928L98.492 187.896ZM103.422 180.468V189H102.282V182.952H100.302V182.1C100.694 182.076 100.994 182.044 101.202 182.004C101.41 181.964 101.614 181.888 101.814 181.776C102.022 181.664 102.182 181.508 102.294 181.308C102.406 181.1 102.506 180.82 102.594 180.468H103.422ZM111.78 182.664C111.78 182.952 111.744 183.208 111.672 183.432C111.6 183.648 111.496 183.824 111.36 183.96C111.232 184.096 111.12 184.2 111.024 184.272C110.936 184.336 110.824 184.4 110.688 184.464C111.048 184.616 111.336 184.824 111.552 185.088C111.776 185.344 111.92 185.588 111.984 185.82C112.048 186.044 112.08 186.28 112.08 186.528C112.08 187.28 111.836 187.92 111.348 188.448C110.86 188.968 110.144 189.228 109.2 189.228C108.376 189.228 107.684 189 107.124 188.544C106.564 188.088 106.284 187.42 106.284 186.54C106.284 185.548 106.764 184.86 107.724 184.476C106.956 184.172 106.572 183.616 106.572 182.808C106.572 182.56 106.612 182.312 106.692 182.064C106.78 181.816 106.912 181.568 107.088 181.32C107.272 181.064 107.54 180.86 107.892 180.708C108.252 180.548 108.672 180.468 109.152 180.468C110.024 180.468 110.68 180.692 111.12 181.14C111.56 181.58 111.78 182.088 111.78 182.664ZM109.176 184.992C108.616 184.992 108.184 185.148 107.88 185.46C107.576 185.772 107.424 186.14 107.424 186.564C107.424 187.004 107.56 187.4 107.832 187.752C108.112 188.096 108.58 188.268 109.236 188.268C110.372 188.268 110.94 187.728 110.94 186.648C110.94 186.104 110.776 185.692 110.448 185.412C110.12 185.132 109.696 184.992 109.176 184.992ZM109.164 184.068C109.62 184.068 109.984 183.94 110.256 183.684C110.536 183.428 110.676 183.1 110.676 182.7C110.676 182.372 110.552 182.08 110.304 181.824C110.056 181.56 109.652 181.428 109.092 181.428C108.58 181.428 108.216 181.564 108 181.836C107.784 182.108 107.676 182.416 107.676 182.76C107.676 183.152 107.82 183.468 108.108 183.708C108.404 183.948 108.756 184.068 109.164 184.068ZM117.334 182.652H121.978V189H120.91V183.54H118.402V186.432C118.402 188.208 117.854 189.096 116.758 189.096C116.526 189.096 116.298 189.064 116.074 189V188.172C116.186 188.188 116.33 188.196 116.506 188.196C116.722 188.196 116.882 188.148 116.986 188.052C117.098 187.956 117.182 187.756 117.238 187.452C117.302 187.148 117.334 186.688 117.334 186.072V182.652ZM127.802 187.008H128.87C128.518 188.456 127.566 189.18 126.014 189.18C125.142 189.18 124.454 188.884 123.95 188.292C123.446 187.7 123.194 186.936 123.194 186C123.194 184.952 123.446 184.104 123.95 183.456C124.462 182.8 125.222 182.472 126.23 182.472C127.118 182.472 127.794 182.804 128.258 183.468C128.722 184.124 128.954 185.028 128.954 186.18H124.334C124.334 186.844 124.49 187.356 124.802 187.716C125.114 188.076 125.57 188.256 126.17 188.256C126.626 188.256 127.01 188.116 127.322 187.836C127.642 187.556 127.802 187.28 127.802 187.008ZM124.334 185.328H127.862C127.782 184.064 127.186 183.432 126.074 183.432C125.594 183.432 125.182 183.624 124.838 184.008C124.502 184.384 124.334 184.824 124.334 185.328ZM129.455 182.652H134.699V183.54H132.611V189H131.543V183.54H129.455V182.652ZM150.339 185.496V186.372H138.219V185.496H150.339ZM154.155 181.704V180.66H160.035V181.596C159.779 181.868 159.503 182.212 159.207 182.628C158.911 183.036 158.579 183.552 158.211 184.176C157.851 184.8 157.519 185.54 157.215 186.396C156.911 187.244 156.687 188.112 156.543 189H155.367C155.511 187.864 155.915 186.612 156.579 185.244C157.243 183.868 157.995 182.688 158.835 181.704H154.155ZM161.482 189V187.716H162.754V188.904C162.754 189.288 162.702 189.612 162.598 189.876C162.502 190.14 162.37 190.332 162.201 190.452C162.034 190.572 161.898 190.652 161.794 190.692C161.69 190.732 161.586 190.76 161.482 190.776V190.224C161.914 190.184 162.13 189.776 162.13 189H161.482ZM169.897 182.736H168.853C168.701 181.864 168.213 181.428 167.389 181.428C166.997 181.428 166.657 181.548 166.369 181.788C166.089 182.02 165.881 182.32 165.745 182.688C165.617 183.048 165.521 183.388 165.457 183.708C165.401 184.02 165.373 184.312 165.373 184.584L165.397 184.608C165.789 183.912 166.461 183.564 167.413 183.564C167.701 183.564 167.989 183.612 168.277 183.708C168.565 183.804 168.849 183.952 169.129 184.152C169.409 184.344 169.637 184.624 169.813 184.992C169.989 185.36 170.077 185.784 170.077 186.264C170.077 187.104 169.817 187.808 169.297 188.376C168.785 188.944 168.057 189.228 167.113 189.228C166.473 189.228 165.933 189.036 165.493 188.652C165.061 188.268 164.749 187.772 164.557 187.164C164.365 186.548 164.269 185.836 164.269 185.028C164.269 184.508 164.317 184.004 164.413 183.516C164.509 183.028 164.665 182.544 164.881 182.064C165.097 181.584 165.421 181.2 165.853 180.912C166.293 180.616 166.813 180.468 167.413 180.468C167.677 180.468 167.941 180.508 168.205 180.588C168.469 180.66 168.725 180.78 168.973 180.948C169.229 181.116 169.441 181.356 169.609 181.668C169.777 181.972 169.873 182.328 169.897 182.736ZM165.517 186.372C165.517 186.884 165.669 187.328 165.973 187.704C166.277 188.08 166.721 188.268 167.305 188.268C167.809 188.268 168.213 188.088 168.517 187.728C168.821 187.368 168.973 186.896 168.973 186.312C168.973 186.112 168.945 185.916 168.889 185.724C168.833 185.524 168.741 185.332 168.613 185.148C168.493 184.956 168.313 184.804 168.073 184.692C167.841 184.58 167.569 184.524 167.257 184.524C166.697 184.524 166.265 184.7 165.961 185.052C165.665 185.396 165.517 185.836 165.517 186.372ZM172.147 183.528H171.079C171.079 183 171.151 182.54 171.295 182.148C171.447 181.756 171.627 181.456 171.835 181.248C172.051 181.04 172.303 180.876 172.591 180.756C172.879 180.628 173.131 180.548 173.347 180.516C173.563 180.484 173.787 180.468 174.019 180.468C174.779 180.468 175.411 180.7 175.915 181.164C176.427 181.628 176.683 182.248 176.683 183.024C176.683 183.4 176.631 183.728 176.527 184.008C176.423 184.28 176.227 184.548 175.939 184.812C175.659 185.068 175.363 185.292 175.051 185.484C174.739 185.676 174.283 185.936 173.683 186.264C173.171 186.544 172.779 186.848 172.507 187.176C172.243 187.504 172.095 187.776 172.063 187.992H176.683V189H170.863C170.919 188.064 171.135 187.324 171.511 186.78C171.895 186.228 172.635 185.668 173.731 185.1C174.371 184.772 174.831 184.464 175.111 184.176C175.399 183.88 175.543 183.48 175.543 182.976C175.543 182.576 175.403 182.22 175.123 181.908C174.851 181.588 174.431 181.428 173.863 181.428C173.559 181.428 173.295 181.488 173.071 181.608C172.847 181.72 172.679 181.848 172.567 181.992C172.463 182.128 172.375 182.316 172.303 182.556C172.239 182.788 172.199 182.96 172.183 183.072C172.167 183.184 172.155 183.336 172.147 183.528ZM178.345 184.104C177.945 183.696 177.745 183.204 177.745 182.628C177.745 182.052 177.945 181.568 178.345 181.176C178.753 180.776 179.245 180.576 179.821 180.576C180.389 180.576 180.873 180.776 181.273 181.176C181.673 181.576 181.873 182.06 181.873 182.628C181.873 183.196 181.673 183.684 181.273 184.092C180.873 184.5 180.389 184.704 179.821 184.704C179.245 184.704 178.753 184.504 178.345 184.104ZM178.597 182.628C178.597 182.996 178.713 183.292 178.945 183.516C179.185 183.74 179.473 183.852 179.809 183.852C180.153 183.852 180.441 183.732 180.673 183.492C180.913 183.252 181.033 182.964 181.033 182.628C181.033 182.292 180.913 182.008 180.673 181.776C180.441 181.544 180.157 181.428 179.821 181.428C179.477 181.428 179.185 181.548 178.945 181.788C178.713 182.02 178.597 182.3 178.597 182.628ZM184.045 188.496C183.645 188.088 183.445 187.596 183.445 187.02C183.445 186.444 183.645 185.96 184.045 185.568C184.453 185.168 184.945 184.968 185.521 184.968C186.089 184.968 186.573 185.168 186.973 185.568C187.373 185.968 187.573 186.452 187.573 187.02C187.573 187.588 187.373 188.076 186.973 188.484C186.573 188.892 186.089 189.096 185.521 189.096C184.945 189.096 184.453 188.896 184.045 188.496ZM184.297 187.02C184.297 187.388 184.413 187.684 184.645 187.908C184.885 188.132 185.173 188.244 185.509 188.244C185.853 188.244 186.141 188.124 186.373 187.884C186.613 187.644 186.733 187.356 186.733 187.02C186.733 186.684 186.613 186.4 186.373 186.168C186.141 185.936 185.857 185.82 185.521 185.82C185.177 185.82 184.885 185.94 184.645 186.18C184.413 186.412 184.297 186.692 184.297 187.02ZM185.377 180.48L180.577 189.24H179.929L184.717 180.48H185.377Z" fill="white"/>
<rect x="72" y="204" width="12" height="12" fill="#F6F6F9"/>
<path d="M98.984 213.2C99.528 212.544 99.8 211.692 99.8 210.644C99.8 209.596 99.528 208.744 98.984 208.088C98.44 207.432 97.704 207.104 96.776 207.104C95.84 207.104 95.1 207.428 94.556 208.076C94.02 208.724 93.752 209.572 93.752 210.62C93.752 211.668 94.024 212.524 94.568 213.188C95.112 213.852 95.848 214.184 96.776 214.184C97.704 214.184 98.44 213.856 98.984 213.2ZM100.88 209.444C100.968 209.844 101.012 210.244 101.012 210.644C101.012 211.044 100.968 211.444 100.88 211.844C100.8 212.244 100.656 212.652 100.448 213.068C100.24 213.484 99.98 213.848 99.668 214.16C99.364 214.472 98.96 214.728 98.456 214.928C97.96 215.128 97.4 215.228 96.776 215.228C96.152 215.228 95.588 215.128 95.084 214.928C94.588 214.728 94.184 214.472 93.872 214.16C93.568 213.848 93.312 213.484 93.104 213.068C92.896 212.652 92.748 212.244 92.66 211.844C92.58 211.444 92.54 211.044 92.54 210.644C92.54 210.244 92.58 209.844 92.66 209.444C92.748 209.044 92.896 208.636 93.104 208.22C93.312 207.804 93.568 207.44 93.872 207.128C94.184 206.816 94.588 206.56 95.084 206.36C95.588 206.16 96.152 206.06 96.776 206.06C97.4 206.06 97.96 206.16 98.456 206.36C98.96 206.56 99.364 206.816 99.668 207.128C99.98 207.44 100.24 207.804 100.448 208.22C100.656 208.636 100.8 209.044 100.88 209.444ZM107.395 210.788H106.363C106.219 209.884 105.719 209.432 104.863 209.432C104.447 209.432 104.103 209.56 103.831 209.816C103.559 210.064 103.371 210.356 103.267 210.692C103.171 211.028 103.123 211.404 103.123 211.82C103.123 213.444 103.699 214.256 104.851 214.256C105.219 214.256 105.539 214.124 105.811 213.86C106.091 213.596 106.275 213.228 106.363 212.756H107.395C107.363 213.036 107.295 213.308 107.191 213.572C107.095 213.828 106.951 214.084 106.759 214.34C106.575 214.596 106.315 214.8 105.979 214.952C105.643 215.104 105.255 215.18 104.815 215.18C103.943 215.18 103.251 214.884 102.739 214.292C102.235 213.7 101.983 212.936 101.983 212C101.983 210.96 102.239 210.112 102.751 209.456C103.263 208.8 104.019 208.472 105.019 208.472C105.787 208.472 106.363 208.7 106.747 209.156C107.131 209.604 107.347 210.148 107.395 210.788ZM107.916 208.652H113.16V209.54H111.072V215H110.004V209.54H107.916V208.652ZM115.044 210.584H114.06C114.06 209.176 114.932 208.472 116.676 208.472C116.86 208.472 117.056 208.492 117.264 208.532C117.48 208.564 117.732 208.636 118.02 208.748C118.316 208.852 118.556 209.036 118.74 209.3C118.932 209.556 119.028 209.872 119.028 210.248V213.872C119.028 214.136 119.144 214.268 119.376 214.268C119.448 214.268 119.564 214.252 119.724 214.22V215C119.42 215.08 119.228 215.12 119.148 215.12C118.924 215.12 118.736 215.092 118.584 215.036C118.432 214.988 118.316 214.912 118.236 214.808C118.164 214.704 118.112 214.604 118.08 214.508C118.056 214.412 118.036 214.292 118.02 214.148C117.836 214.34 117.664 214.5 117.504 214.628C117.344 214.756 117.104 214.88 116.784 215C116.464 215.12 116.112 215.18 115.728 215.18C115.144 215.18 114.668 215.012 114.3 214.676C113.932 214.34 113.748 213.896 113.748 213.344C113.748 213.16 113.76 212.996 113.784 212.852C113.808 212.708 113.868 212.544 113.964 212.36C114.06 212.168 114.188 212.008 114.348 211.88C114.516 211.744 114.756 211.624 115.068 211.52C115.38 211.408 115.748 211.336 116.172 211.304C116.74 211.256 117.144 211.204 117.384 211.148C117.632 211.084 117.788 211 117.852 210.896C117.924 210.792 117.96 210.62 117.96 210.38C117.96 209.7 117.468 209.36 116.484 209.36C116.196 209.36 115.952 209.4 115.752 209.48C115.56 209.552 115.416 209.66 115.32 209.804C115.232 209.94 115.168 210.068 115.128 210.188C115.088 210.3 115.06 210.432 115.044 210.584ZM117.96 212.804V211.76C117.784 211.896 117.2 212.028 116.208 212.156C116.032 212.18 115.88 212.208 115.752 212.24C115.632 212.272 115.492 212.324 115.332 212.396C115.172 212.46 115.048 212.56 114.96 212.696C114.88 212.824 114.84 212.984 114.84 213.176C114.84 213.92 115.228 214.292 116.004 214.292C116.516 214.292 116.968 214.148 117.36 213.86C117.76 213.572 117.96 213.22 117.96 212.804ZM121.459 208.652H126.103V215H125.035V209.54H122.527V212.432C122.527 214.208 121.979 215.096 120.883 215.096C120.651 215.096 120.423 215.064 120.199 215V214.172C120.311 214.188 120.455 214.196 120.631 214.196C120.847 214.196 121.007 214.148 121.111 214.052C121.223 213.956 121.307 213.756 121.363 213.452C121.427 213.148 121.459 212.688 121.459 212.072V208.652ZM128.735 208.652V211.208H130.247C131.031 211.208 131.627 211.388 132.035 211.748C132.451 212.108 132.659 212.58 132.659 213.164C132.659 213.7 132.463 214.14 132.071 214.484C131.679 214.828 131.079 215 130.271 215H127.667V208.652H128.735ZM128.735 212.096V214.112H130.259C130.739 214.112 131.075 214.036 131.267 213.884C131.467 213.724 131.567 213.464 131.567 213.104C131.567 212.432 131.131 212.096 130.259 212.096H128.735ZM134.934 208.652V211.208H137.898V208.652H138.966V215H137.898V212.096H134.934V215H133.866V208.652H134.934ZM147.674 208.652V215H146.606V208.652H147.674ZM141.59 208.652V211.208H143.102C143.886 211.208 144.482 211.388 144.89 211.748C145.306 212.108 145.514 212.58 145.514 213.164C145.514 213.7 145.318 214.14 144.926 214.484C144.534 214.828 143.934 215 143.126 215H140.522V208.652H141.59ZM141.59 212.096V214.112H143.114C143.594 214.112 143.93 214.036 144.122 213.884C144.322 213.724 144.422 213.464 144.422 213.104C144.422 212.432 143.986 212.096 143.114 212.096H141.59ZM153.489 213.008H154.557C154.205 214.456 153.253 215.18 151.701 215.18C150.829 215.18 150.141 214.884 149.637 214.292C149.133 213.7 148.881 212.936 148.881 212C148.881 210.952 149.133 210.104 149.637 209.456C150.149 208.8 150.909 208.472 151.917 208.472C152.805 208.472 153.481 208.804 153.945 209.468C154.409 210.124 154.641 211.028 154.641 212.18H150.021C150.021 212.844 150.177 213.356 150.489 213.716C150.801 214.076 151.257 214.256 151.857 214.256C152.313 214.256 152.697 214.116 153.009 213.836C153.329 213.556 153.489 213.28 153.489 213.008ZM150.021 211.328H153.549C153.469 210.064 152.873 209.432 151.761 209.432C151.281 209.432 150.869 209.624 150.525 210.008C150.189 210.384 150.021 210.824 150.021 211.328ZM170.554 211.496V212.372H158.434V211.496H170.554ZM180.25 212.924H179.002V215H177.946V212.924H174.226V211.88L178.126 206.468H179.002V212H180.25V212.924ZM177.922 208.136L175.198 212H177.946V208.136H177.922ZM181.696 215V213.716H182.968V214.904C182.968 215.288 182.916 215.612 182.812 215.876C182.716 216.14 182.584 216.332 182.416 216.452C182.248 216.572 182.112 216.652 182.008 216.692C181.904 216.732 181.8 216.76 181.696 216.776V216.224C182.128 216.184 182.344 215.776 182.344 215H181.696ZM190.112 208.736H189.068C188.916 207.864 188.428 207.428 187.604 207.428C187.212 207.428 186.872 207.548 186.584 207.788C186.304 208.02 186.096 208.32 185.96 208.688C185.832 209.048 185.736 209.388 185.672 209.708C185.616 210.02 185.588 210.312 185.588 210.584L185.612 210.608C186.004 209.912 186.676 209.564 187.628 209.564C187.916 209.564 188.204 209.612 188.492 209.708C188.78 209.804 189.064 209.952 189.344 210.152C189.624 210.344 189.852 210.624 190.028 210.992C190.204 211.36 190.292 211.784 190.292 212.264C190.292 213.104 190.032 213.808 189.512 214.376C189 214.944 188.272 215.228 187.328 215.228C186.688 215.228 186.148 215.036 185.708 214.652C185.276 214.268 184.964 213.772 184.772 213.164C184.58 212.548 184.484 211.836 184.484 211.028C184.484 210.508 184.532 210.004 184.628 209.516C184.724 209.028 184.88 208.544 185.096 208.064C185.312 207.584 185.636 207.2 186.068 206.912C186.508 206.616 187.028 206.468 187.628 206.468C187.892 206.468 188.156 206.508 188.42 206.588C188.684 206.66 188.94 206.78 189.188 206.948C189.444 207.116 189.656 207.356 189.824 207.668C189.992 207.972 190.088 208.328 190.112 208.736ZM185.732 212.372C185.732 212.884 185.884 213.328 186.188 213.704C186.492 214.08 186.936 214.268 187.52 214.268C188.024 214.268 188.428 214.088 188.732 213.728C189.036 213.368 189.188 212.896 189.188 212.312C189.188 212.112 189.16 211.916 189.104 211.724C189.048 211.524 188.956 211.332 188.828 211.148C188.708 210.956 188.528 210.804 188.288 210.692C188.056 210.58 187.784 210.524 187.472 210.524C186.912 210.524 186.48 210.7 186.176 211.052C185.88 211.396 185.732 211.836 185.732 212.372ZM192.362 209.528H191.294C191.294 209 191.366 208.54 191.51 208.148C191.662 207.756 191.842 207.456 192.05 207.248C192.266 207.04 192.518 206.876 192.806 206.756C193.094 206.628 193.346 206.548 193.562 206.516C193.778 206.484 194.002 206.468 194.234 206.468C194.994 206.468 195.626 206.7 196.13 207.164C196.642 207.628 196.898 208.248 196.898 209.024C196.898 209.4 196.846 209.728 196.742 210.008C196.638 210.28 196.442 210.548 196.154 210.812C195.874 211.068 195.578 211.292 195.266 211.484C194.954 211.676 194.498 211.936 193.898 212.264C193.386 212.544 192.994 212.848 192.722 213.176C192.458 213.504 192.31 213.776 192.278 213.992H196.898V215H191.078C191.134 214.064 191.35 213.324 191.726 212.78C192.11 212.228 192.85 211.668 193.946 211.1C194.586 210.772 195.046 210.464 195.326 210.176C195.614 209.88 195.758 209.48 195.758 208.976C195.758 208.576 195.618 208.22 195.338 207.908C195.066 207.588 194.646 207.428 194.078 207.428C193.774 207.428 193.51 207.488 193.286 207.608C193.062 207.72 192.894 207.848 192.782 207.992C192.678 208.128 192.59 208.316 192.518 208.556C192.454 208.788 192.414 208.96 192.398 209.072C192.382 209.184 192.37 209.336 192.362 209.528ZM198.56 210.104C198.16 209.696 197.96 209.204 197.96 208.628C197.96 208.052 198.16 207.568 198.56 207.176C198.968 206.776 199.46 206.576 200.036 206.576C200.604 206.576 201.088 206.776 201.488 207.176C201.888 207.576 202.088 208.06 202.088 208.628C202.088 209.196 201.888 209.684 201.488 210.092C201.088 210.5 200.604 210.704 200.036 210.704C199.46 210.704 198.968 210.504 198.56 210.104ZM198.812 208.628C198.812 208.996 198.928 209.292 199.16 209.516C199.4 209.74 199.688 209.852 200.024 209.852C200.368 209.852 200.656 209.732 200.888 209.492C201.128 209.252 201.248 208.964 201.248 208.628C201.248 208.292 201.128 208.008 200.888 207.776C200.656 207.544 200.372 207.428 200.036 207.428C199.692 207.428 199.4 207.548 199.16 207.788C198.928 208.02 198.812 208.3 198.812 208.628ZM204.26 214.496C203.86 214.088 203.66 213.596 203.66 213.02C203.66 212.444 203.86 211.96 204.26 211.568C204.668 211.168 205.16 210.968 205.736 210.968C206.304 210.968 206.788 211.168 207.188 211.568C207.588 211.968 207.788 212.452 207.788 213.02C207.788 213.588 207.588 214.076 207.188 214.484C206.788 214.892 206.304 215.096 205.736 215.096C205.16 215.096 204.668 214.896 204.26 214.496ZM204.512 213.02C204.512 213.388 204.628 213.684 204.86 213.908C205.1 214.132 205.388 214.244 205.724 214.244C206.068 214.244 206.356 214.124 206.588 213.884C206.828 213.644 206.948 213.356 206.948 213.02C206.948 212.684 206.828 212.4 206.588 212.168C206.356 211.936 206.072 211.82 205.736 211.82C205.392 211.82 205.1 211.94 204.86 212.18C204.628 212.412 204.512 212.692 204.512 213.02ZM205.592 206.48L200.792 215.24H200.144L204.932 206.48H205.592Z" fill="white"/>
<circle cx="155" cy="155" r="150" stroke="#FCD963" stroke-width="10"/>
<path d="M155 5C72.1573 5 5 72.1573 5 155C5 203.123 27.6613 245.953 62.8947 273.4" stroke="#EE593B" stroke-width="10" stroke-linecap="round"/>
<path d="M154.999 5C74.8044 5 9.30849 67.9324 5.20312 147.105" stroke="#78B6E7" stroke-width="10" stroke-linecap="round"/>
<path d="M155 5C116.582 5 81.5378 19.4426 55 43.1946" stroke="#A955B7" stroke-width="10" stroke-linecap="round"/>
<path d="M154.999 5C142.759 5 130.862 6.46601 119.473 9.23202" stroke="#F6F6F9" stroke-width="10" stroke-linecap="round"/>
<path d="M155 5C237.843 5 305 72.1573 305 155C305 217.573 266.685 271.198 212.237 293.693" stroke="#DDFF0F" stroke-width="10" stroke-linecap="round"/>
</svg>
