<svg width="238" height="238" viewBox="0 0 238 238" fill="none" xmlns="http://www.w3.org/2000/svg">
<rect x="61" y="100" width="12" height="12" fill="#C4C4C4"/>
<path d="M81.888 102.288H83.568L86.04 109.656H86.064L88.548 102.288H90.216V111H89.076V105.852C89.076 105.812 89.08 105.52 89.088 104.976C89.104 104.424 89.112 103.992 89.112 103.68H89.1L86.64 111H85.476L83.028 103.68H82.992C82.992 103.992 82.996 104.424 83.004 104.976C83.02 105.52 83.028 105.812 83.028 105.852V111H81.888V102.288ZM91.2336 104.652H92.4456L94.1376 109.824H94.1616L95.8536 104.652H97.0296C96.9656 104.828 96.8056 105.272 96.5496 105.984C96.3016 106.696 96.1056 107.252 95.9616 107.652C95.8176 108.052 95.6296 108.56 95.3976 109.176C95.1736 109.792 94.9656 110.348 94.7736 110.844C94.5816 111.332 94.4016 111.768 94.2336 112.152C93.9856 112.728 93.7416 113.112 93.5016 113.304C93.2616 113.496 92.8496 113.592 92.2656 113.592C92.1856 113.592 92.0336 113.56 91.8096 113.496V112.524C92.0096 112.596 92.2256 112.632 92.4576 112.632C92.7216 112.632 92.9096 112.556 93.0216 112.404C93.1336 112.252 93.3216 111.84 93.5856 111.168L91.2336 104.652ZM102.22 104.652V107.484L104.584 104.652H105.952L103.48 107.448L106.048 111H104.776L102.76 108.156L102.22 108.72V111H101.2V108.72L100.72 108.156L98.6559 111H97.3719L99.9399 107.448L97.4799 104.652H98.8359L101.2 107.46V104.652H102.22ZM106.808 104.652H107.876V106.596C107.876 107.196 108.264 107.496 109.04 107.496C109.704 107.496 110.264 107.424 110.72 107.28V104.652H111.788V111H110.72V108.168C110.064 108.328 109.396 108.408 108.716 108.408C108.164 108.408 107.708 108.284 107.348 108.036C106.988 107.78 106.808 107.352 106.808 106.752V104.652ZM114.418 104.652V109.404H114.442L117.55 104.652H118.666V111H117.598V106.248H117.574L114.466 111H113.35V104.652H114.418ZM121.297 104.652V107.208H124.261V104.652H125.329V111H124.261V108.096H121.297V111H120.229V104.652H121.297ZM134.037 104.652V111H132.969V104.652H134.037ZM127.953 104.652V107.208H129.465C130.249 107.208 130.845 107.388 131.253 107.748C131.669 108.108 131.877 108.58 131.877 109.164C131.877 109.7 131.681 110.14 131.289 110.484C130.897 110.828 130.297 111 129.489 111H126.885V104.652H127.953ZM127.953 108.096V110.112H129.477C129.957 110.112 130.293 110.036 130.485 109.884C130.685 109.724 130.785 109.464 130.785 109.104C130.785 108.432 130.349 108.096 129.477 108.096H127.953ZM150.296 107.496V108.372H138.176V107.496H150.296ZM155.804 103.704L155.444 106.044C155.9 105.692 156.448 105.516 157.088 105.516C157.832 105.516 158.484 105.764 159.044 106.26C159.604 106.748 159.884 107.408 159.884 108.24C159.884 108.464 159.864 108.692 159.824 108.924C159.784 109.148 159.696 109.404 159.56 109.692C159.424 109.98 159.248 110.236 159.032 110.46C158.824 110.676 158.524 110.856 158.132 111C157.748 111.152 157.304 111.228 156.8 111.228C156.56 111.228 156.328 111.208 156.104 111.168C155.88 111.128 155.648 111.056 155.408 110.952C155.176 110.84 154.968 110.7 154.784 110.532C154.6 110.364 154.44 110.14 154.304 109.86C154.176 109.58 154.092 109.256 154.052 108.888H155.156C155.204 109.36 155.388 109.716 155.708 109.956C156.036 110.188 156.452 110.304 156.956 110.304C157.492 110.304 157.924 110.12 158.252 109.752C158.58 109.376 158.744 108.912 158.744 108.36C158.744 107.768 158.568 107.308 158.216 106.98C157.864 106.644 157.412 106.476 156.86 106.476C156.22 106.476 155.696 106.744 155.288 107.28L154.364 107.232L155 102.66H159.416V103.704H155.804ZM164.739 102.468V111H163.599V104.952H161.619V104.1C162.011 104.076 162.311 104.044 162.519 104.004C162.727 103.964 162.931 103.888 163.131 103.776C163.339 103.664 163.499 103.508 163.611 103.308C163.723 103.1 163.823 102.82 163.911 102.468H164.739ZM168.201 106.104C167.801 105.696 167.601 105.204 167.601 104.628C167.601 104.052 167.801 103.568 168.201 103.176C168.609 102.776 169.101 102.576 169.677 102.576C170.245 102.576 170.729 102.776 171.129 103.176C171.529 103.576 171.729 104.06 171.729 104.628C171.729 105.196 171.529 105.684 171.129 106.092C170.729 106.5 170.245 106.704 169.677 106.704C169.101 106.704 168.609 106.504 168.201 106.104ZM168.453 104.628C168.453 104.996 168.569 105.292 168.801 105.516C169.041 105.74 169.329 105.852 169.665 105.852C170.009 105.852 170.297 105.732 170.529 105.492C170.769 105.252 170.889 104.964 170.889 104.628C170.889 104.292 170.769 104.008 170.529 103.776C170.297 103.544 170.013 103.428 169.677 103.428C169.333 103.428 169.041 103.548 168.801 103.788C168.569 104.02 168.453 104.3 168.453 104.628ZM173.901 110.496C173.501 110.088 173.301 109.596 173.301 109.02C173.301 108.444 173.501 107.96 173.901 107.568C174.309 107.168 174.801 106.968 175.377 106.968C175.945 106.968 176.429 107.168 176.829 107.568C177.229 107.968 177.429 108.452 177.429 109.02C177.429 109.588 177.229 110.076 176.829 110.484C176.429 110.892 175.945 111.096 175.377 111.096C174.801 111.096 174.309 110.896 173.901 110.496ZM174.153 109.02C174.153 109.388 174.269 109.684 174.501 109.908C174.741 110.132 175.029 110.244 175.365 110.244C175.709 110.244 175.997 110.124 176.229 109.884C176.469 109.644 176.589 109.356 176.589 109.02C176.589 108.684 176.469 108.4 176.229 108.168C175.997 107.936 175.713 107.82 175.377 107.82C175.033 107.82 174.741 107.94 174.501 108.18C174.269 108.412 174.153 108.692 174.153 109.02ZM175.233 102.48L170.433 111.24H169.785L174.573 102.48H175.233Z" fill="white"/>
<rect x="61" y="126" width="12" height="12" fill="#DDFF0F"/>
<path d="M86.496 128.288H87.66V132.476L91.26 128.288H92.76L89.664 131.828L92.916 137H91.488L88.776 132.656L87.66 133.904V137H86.496V133.904L85.38 132.656L82.668 137H81.24L84.492 131.828L81.396 128.288H82.896L86.496 132.476V128.288ZM97.8759 135.008H98.9439C98.5919 136.456 97.6399 137.18 96.0879 137.18C95.2159 137.18 94.5279 136.884 94.0239 136.292C93.5199 135.7 93.2679 134.936 93.2679 134C93.2679 132.952 93.5199 132.104 94.0239 131.456C94.5359 130.8 95.2959 130.472 96.3039 130.472C97.1919 130.472 97.8679 130.804 98.3319 131.468C98.7959 132.124 99.0279 133.028 99.0279 134.18H94.4079C94.4079 134.844 94.5639 135.356 94.8759 135.716C95.1879 136.076 95.6439 136.256 96.2439 136.256C96.6999 136.256 97.0839 136.116 97.3959 135.836C97.7159 135.556 97.8759 135.28 97.8759 135.008ZM94.4079 133.328H97.9359C97.8559 132.064 97.2599 131.432 96.1479 131.432C95.6679 131.432 95.2559 131.624 94.9119 132.008C94.5759 132.384 94.4079 132.824 94.4079 133.328ZM101.305 130.652V133.208H104.269V130.652H105.337V137H104.269V134.096H101.305V137H100.237V130.652H101.305ZM107.961 130.652V136.112H110.625V130.652H111.693V136.112H114.357V130.652H115.425V136.112H116.133V138.86H115.161V137H106.893V130.652H107.961ZM118.297 130.652V135.404H118.321L121.429 130.652H122.545V137H121.477V132.248H121.453L118.345 137H117.229V130.652H118.297ZM125.176 130.652V133.208H128.14V130.652H129.208V137H128.14V134.096H125.176V137H124.108V130.652H125.176ZM137.916 130.652V137H136.848V130.652H137.916ZM131.832 130.652V133.208H133.344C134.128 133.208 134.724 133.388 135.132 133.748C135.548 134.108 135.756 134.58 135.756 135.164C135.756 135.7 135.56 136.14 135.168 136.484C134.776 136.828 134.176 137 133.368 137H130.764V130.652H131.832ZM131.832 134.096V136.112H133.356C133.836 136.112 134.172 136.036 134.364 135.884C134.564 135.724 134.664 135.464 134.664 135.104C134.664 134.432 134.228 134.096 133.356 134.096H131.832ZM154.175 133.496V134.372H142.055V133.496H154.175ZM163.871 134.924H162.623V137H161.567V134.924H157.847V133.88L161.747 128.468H162.623V134H163.871V134.924ZM161.543 130.136L158.819 134H161.567V130.136H161.543ZM167.465 134.144C166.673 134.144 166.029 133.896 165.533 133.4C165.037 132.904 164.789 132.236 164.789 131.396C164.789 130.572 165.029 129.88 165.509 129.32C165.997 128.752 166.669 128.468 167.525 128.468C168.037 128.468 168.485 128.564 168.869 128.756C169.253 128.948 169.545 129.18 169.745 129.452C169.945 129.724 170.105 130.056 170.225 130.448C170.345 130.84 170.421 131.184 170.453 131.48C170.485 131.776 170.501 132.092 170.501 132.428C170.501 132.604 170.493 132.788 170.477 132.98C170.469 133.172 170.441 133.436 170.393 133.772C170.353 134.1 170.293 134.412 170.213 134.708C170.133 134.996 170.013 135.3 169.853 135.62C169.701 135.94 169.521 136.216 169.313 136.448C169.105 136.672 168.837 136.856 168.509 137C168.181 137.152 167.817 137.228 167.417 137.228C167.033 137.228 166.689 137.172 166.385 137.06C166.081 136.956 165.837 136.824 165.653 136.664C165.477 136.504 165.325 136.32 165.197 136.112C165.077 135.896 164.993 135.692 164.945 135.5C164.905 135.308 164.885 135.124 164.885 134.948H165.953C165.985 135.38 166.125 135.72 166.373 135.968C166.621 136.216 166.961 136.34 167.393 136.34C167.969 136.34 168.417 136.088 168.737 135.584C169.065 135.072 169.297 134.26 169.433 133.148L169.409 133.124C169.257 133.444 168.997 133.696 168.629 133.88C168.261 134.056 167.873 134.144 167.465 134.144ZM167.621 133.184C167.789 133.184 167.953 133.16 168.113 133.112C168.281 133.064 168.457 132.98 168.641 132.86C168.825 132.732 168.973 132.532 169.085 132.26C169.197 131.98 169.253 131.644 169.253 131.252C169.253 130.724 169.109 130.288 168.821 129.944C168.541 129.6 168.113 129.428 167.537 129.428C167.041 129.428 166.641 129.604 166.337 129.956C166.041 130.308 165.893 130.772 165.893 131.348C165.893 132.572 166.469 133.184 167.621 133.184ZM172.08 132.104C171.68 131.696 171.48 131.204 171.48 130.628C171.48 130.052 171.68 129.568 172.08 129.176C172.488 128.776 172.98 128.576 173.556 128.576C174.124 128.576 174.608 128.776 175.008 129.176C175.408 129.576 175.608 130.06 175.608 130.628C175.608 131.196 175.408 131.684 175.008 132.092C174.608 132.5 174.124 132.704 173.556 132.704C172.98 132.704 172.488 132.504 172.08 132.104ZM172.332 130.628C172.332 130.996 172.448 131.292 172.68 131.516C172.92 131.74 173.208 131.852 173.544 131.852C173.888 131.852 174.176 131.732 174.408 131.492C174.648 131.252 174.768 130.964 174.768 130.628C174.768 130.292 174.648 130.008 174.408 129.776C174.176 129.544 173.892 129.428 173.556 129.428C173.212 129.428 172.92 129.548 172.68 129.788C172.448 130.02 172.332 130.3 172.332 130.628ZM177.78 136.496C177.38 136.088 177.18 135.596 177.18 135.02C177.18 134.444 177.38 133.96 177.78 133.568C178.188 133.168 178.68 132.968 179.256 132.968C179.824 132.968 180.308 133.168 180.708 133.568C181.108 133.968 181.308 134.452 181.308 135.02C181.308 135.588 181.108 136.076 180.708 136.484C180.308 136.892 179.824 137.096 179.256 137.096C178.68 137.096 178.188 136.896 177.78 136.496ZM178.032 135.02C178.032 135.388 178.148 135.684 178.38 135.908C178.62 136.132 178.908 136.244 179.244 136.244C179.588 136.244 179.876 136.124 180.108 135.884C180.348 135.644 180.468 135.356 180.468 135.02C180.468 134.684 180.348 134.4 180.108 134.168C179.876 133.936 179.592 133.82 179.256 133.82C178.912 133.82 178.62 133.94 178.38 134.18C178.148 134.412 178.032 134.692 178.032 135.02ZM179.112 128.48L174.312 137.24H173.664L178.452 128.48H179.112Z" fill="white"/>
<circle cx="119" cy="119" r="114" stroke="#C4C4C4" stroke-width="10"/>
<path d="M130.5 5.57275C188.06 11.3387 233 59.9211 233 119C233 175.312 192.17 222.088 138.5 231.339" stroke="#DDFF0F" stroke-width="10" stroke-linecap="round"/>
</svg>
