<svg width="238" height="238" viewBox="0 0 238 238" fill="none" xmlns="http://www.w3.org/2000/svg">
<rect x="27" y="92" width="12" height="12" fill="#DDFF0F"/>
<path d="M51.344 90.468V99H50.204V92.952H48.224V92.1C48.616 92.076 48.916 92.044 49.124 92.004C49.332 91.964 49.536 91.888 49.736 91.776C49.944 91.664 50.104 91.508 50.216 91.308C50.328 91.1 50.428 90.82 50.516 90.468H51.344ZM57.1103 98.268C58.2943 98.268 58.8863 97.128 58.8863 94.848C58.8863 92.568 58.2943 91.428 57.1103 91.428C55.9263 91.428 55.3343 92.568 55.3343 94.848C55.3343 97.128 55.9263 98.268 57.1103 98.268ZM59.9543 93.708C60.0023 94.076 60.0263 94.456 60.0263 94.848C60.0263 95.24 60.0023 95.62 59.9543 95.988C59.9143 96.356 59.8303 96.744 59.7023 97.152C59.5743 97.552 59.4063 97.9 59.1983 98.196C58.9903 98.492 58.7063 98.74 58.3463 98.94C57.9943 99.132 57.5823 99.228 57.1103 99.228C56.6383 99.228 56.2223 99.132 55.8623 98.94C55.5103 98.74 55.2303 98.492 55.0223 98.196C54.8143 97.9 54.6463 97.552 54.5183 97.152C54.3903 96.744 54.3023 96.356 54.2543 95.988C54.2143 95.62 54.1943 95.24 54.1943 94.848C54.1943 94.456 54.2143 94.076 54.2543 93.708C54.3023 93.34 54.3903 92.956 54.5183 92.556C54.6463 92.148 54.8143 91.796 55.0223 91.5C55.2303 91.204 55.5103 90.96 55.8623 90.768C56.2223 90.568 56.6383 90.468 57.1103 90.468C57.5823 90.468 57.9943 90.568 58.3463 90.768C58.7063 90.96 58.9903 91.204 59.1983 91.5C59.4063 91.796 59.5743 92.148 59.7023 92.556C59.8303 92.956 59.9143 93.34 59.9543 93.708ZM61.5446 94.104C61.1446 93.696 60.9446 93.204 60.9446 92.628C60.9446 92.052 61.1446 91.568 61.5446 91.176C61.9526 90.776 62.4446 90.576 63.0206 90.576C63.5886 90.576 64.0726 90.776 64.4726 91.176C64.8726 91.576 65.0726 92.06 65.0726 92.628C65.0726 93.196 64.8726 93.684 64.4726 94.092C64.0726 94.5 63.5886 94.704 63.0206 94.704C62.4446 94.704 61.9526 94.504 61.5446 94.104ZM61.7966 92.628C61.7966 92.996 61.9126 93.292 62.1446 93.516C62.3846 93.74 62.6726 93.852 63.0086 93.852C63.3526 93.852 63.6406 93.732 63.8726 93.492C64.1126 93.252 64.2326 92.964 64.2326 92.628C64.2326 92.292 64.1126 92.008 63.8726 91.776C63.6406 91.544 63.3566 91.428 63.0206 91.428C62.6766 91.428 62.3846 91.548 62.1446 91.788C61.9126 92.02 61.7966 92.3 61.7966 92.628ZM67.2446 98.496C66.8446 98.088 66.6446 97.596 66.6446 97.02C66.6446 96.444 66.8446 95.96 67.2446 95.568C67.6526 95.168 68.1446 94.968 68.7206 94.968C69.2886 94.968 69.7726 95.168 70.1726 95.568C70.5726 95.968 70.7726 96.452 70.7726 97.02C70.7726 97.588 70.5726 98.076 70.1726 98.484C69.7726 98.892 69.2886 99.096 68.7206 99.096C68.1446 99.096 67.6526 98.896 67.2446 98.496ZM67.4966 97.02C67.4966 97.388 67.6126 97.684 67.8446 97.908C68.0846 98.132 68.3726 98.244 68.7086 98.244C69.0526 98.244 69.3406 98.124 69.5726 97.884C69.8126 97.644 69.9326 97.356 69.9326 97.02C69.9326 96.684 69.8126 96.4 69.5726 96.168C69.3406 95.936 69.0566 95.82 68.7206 95.82C68.3766 95.82 68.0846 95.94 67.8446 96.18C67.6126 96.412 67.4966 96.692 67.4966 97.02ZM68.5766 90.48L63.7766 99.24H63.1286L67.9166 90.48H68.5766ZM75.3894 92.652H80.4894V99H79.4214V93.54H76.4574V99H75.3894V92.652ZM84.8536 93.432C84.5416 93.432 84.2696 93.492 84.0376 93.612C83.8136 93.724 83.6416 93.86 83.5216 94.02C83.4096 94.18 83.3176 94.38 83.2456 94.62C83.1816 94.86 83.1416 95.064 83.1256 95.232C83.1176 95.4 83.1136 95.592 83.1136 95.808C83.1136 96.536 83.2576 97.128 83.5456 97.584C83.8336 98.032 84.2576 98.256 84.8176 98.256C85.2416 98.256 85.6256 98.088 85.9696 97.752C86.3216 97.416 86.4976 96.868 86.4976 96.108C86.4976 95.9 86.4896 95.712 86.4736 95.544C86.4656 95.376 86.4456 95.18 86.4136 94.956C86.3816 94.732 86.3256 94.54 86.2456 94.38C86.1736 94.212 86.0776 94.052 85.9576 93.9C85.8456 93.748 85.6936 93.632 85.5016 93.552C85.3176 93.472 85.1016 93.432 84.8536 93.432ZM82.0456 101.508V92.652H83.0416V93.552C83.2656 93.216 83.5176 92.952 83.7976 92.76C84.0776 92.568 84.4656 92.472 84.9616 92.472C85.7776 92.472 86.4176 92.768 86.8816 93.36C87.3536 93.952 87.5896 94.712 87.5896 95.64C87.5896 95.968 87.5616 96.288 87.5056 96.6C87.4576 96.904 87.3656 97.216 87.2296 97.536C87.1016 97.856 86.9376 98.136 86.7376 98.376C86.5376 98.608 86.2736 98.8 85.9456 98.952C85.6176 99.104 85.2456 99.18 84.8296 99.18C84.0456 99.18 83.4736 98.872 83.1136 98.256V101.508H82.0456ZM88.4593 95.82C88.4593 95.396 88.5193 94.992 88.6393 94.608C88.7593 94.216 88.9353 93.86 89.1673 93.54C89.3993 93.212 89.7073 92.952 90.0913 92.76C90.4753 92.568 90.9113 92.472 91.3993 92.472C91.8873 92.472 92.3233 92.568 92.7073 92.76C93.0913 92.952 93.3993 93.212 93.6313 93.54C93.8633 93.86 94.0393 94.216 94.1593 94.608C94.2793 94.992 94.3393 95.396 94.3393 95.82C94.3393 96.724 94.0833 97.512 93.5713 98.184C93.0673 98.848 92.3433 99.18 91.3993 99.18C90.4553 99.18 89.7273 98.848 89.2153 98.184C88.7113 97.512 88.4593 96.724 88.4593 95.82ZM89.5513 95.82C89.5513 96.012 89.5633 96.208 89.5873 96.408C89.6193 96.6 89.6753 96.812 89.7553 97.044C89.8433 97.276 89.9513 97.48 90.0793 97.656C90.2153 97.824 90.3953 97.968 90.6193 98.088C90.8513 98.2 91.1113 98.256 91.3993 98.256C91.6873 98.256 91.9433 98.2 92.1673 98.088C92.3993 97.968 92.5793 97.824 92.7073 97.656C92.8433 97.48 92.9513 97.276 93.0313 97.044C93.1193 96.812 93.1753 96.6 93.1993 96.408C93.2313 96.208 93.2473 96.012 93.2473 95.82C93.2473 95.572 93.2193 95.324 93.1633 95.076C93.1153 94.82 93.0273 94.56 92.8993 94.296C92.7793 94.032 92.5873 93.816 92.3233 93.648C92.0673 93.48 91.7593 93.396 91.3993 93.396C91.0393 93.396 90.7273 93.48 90.4633 93.648C90.2073 93.816 90.0153 94.032 89.8873 94.296C89.7673 94.56 89.6793 94.82 89.6233 95.076C89.5753 95.324 89.5513 95.572 89.5513 95.82ZM99.3801 92.652V95.484L101.744 92.652H103.112L100.64 95.448L103.208 99H101.936L99.9201 96.156L99.3801 96.72V99H98.3601V96.72L97.8801 96.156L95.8161 99H94.5321L97.1001 95.448L94.6401 92.652H95.9961L98.3601 95.46V92.652H99.3801ZM105.157 92.652V97.404H105.181L108.289 92.652H109.405V99H108.337V94.248H108.313L105.205 99H104.089V92.652H105.157ZM112.036 93.54V95.28H113.584C114.048 95.28 114.376 95.208 114.568 95.064C114.76 94.92 114.856 94.672 114.856 94.32C114.856 94.056 114.76 93.86 114.568 93.732C114.384 93.604 114.064 93.54 113.608 93.54H112.036ZM112.036 96.12V98.112H113.944C114.8 98.112 115.228 97.784 115.228 97.128C115.228 96.456 114.764 96.12 113.836 96.12H112.036ZM110.968 99V92.652H113.848C114.52 92.652 115.032 92.808 115.384 93.12C115.744 93.424 115.924 93.808 115.924 94.272C115.924 94.624 115.82 94.92 115.612 95.16C115.412 95.392 115.16 95.552 114.856 95.64C115.816 95.864 116.296 96.424 116.296 97.32C116.296 97.832 116.092 98.24 115.684 98.544C115.284 98.848 114.712 99 113.968 99H110.968ZM118.455 94.584H117.471C117.471 93.176 118.343 92.472 120.087 92.472C120.271 92.472 120.467 92.492 120.675 92.532C120.891 92.564 121.143 92.636 121.431 92.748C121.727 92.852 121.967 93.036 122.151 93.3C122.343 93.556 122.439 93.872 122.439 94.248V97.872C122.439 98.136 122.555 98.268 122.787 98.268C122.859 98.268 122.975 98.252 123.135 98.22V99C122.831 99.08 122.639 99.12 122.559 99.12C122.335 99.12 122.147 99.092 121.995 99.036C121.843 98.988 121.727 98.912 121.647 98.808C121.575 98.704 121.523 98.604 121.491 98.508C121.467 98.412 121.447 98.292 121.431 98.148C121.247 98.34 121.075 98.5 120.915 98.628C120.755 98.756 120.515 98.88 120.195 99C119.875 99.12 119.523 99.18 119.139 99.18C118.555 99.18 118.079 99.012 117.711 98.676C117.343 98.34 117.159 97.896 117.159 97.344C117.159 97.16 117.171 96.996 117.195 96.852C117.219 96.708 117.279 96.544 117.375 96.36C117.471 96.168 117.599 96.008 117.759 95.88C117.927 95.744 118.167 95.624 118.479 95.52C118.791 95.408 119.159 95.336 119.583 95.304C120.151 95.256 120.555 95.204 120.795 95.148C121.043 95.084 121.199 95 121.263 94.896C121.335 94.792 121.371 94.62 121.371 94.38C121.371 93.7 120.879 93.36 119.895 93.36C119.607 93.36 119.363 93.4 119.163 93.48C118.971 93.552 118.827 93.66 118.731 93.804C118.643 93.94 118.579 94.068 118.539 94.188C118.499 94.3 118.471 94.432 118.455 94.584ZM121.371 96.804V95.76C121.195 95.896 120.611 96.028 119.619 96.156C119.443 96.18 119.291 96.208 119.163 96.24C119.043 96.272 118.903 96.324 118.743 96.396C118.583 96.46 118.459 96.56 118.371 96.696C118.291 96.824 118.251 96.984 118.251 97.176C118.251 97.92 118.639 98.292 119.415 98.292C119.927 98.292 120.379 98.148 120.771 97.86C121.171 97.572 121.371 97.22 121.371 96.804ZM125.301 92.652V95.208H126.561C126.665 94.408 126.949 93.752 127.413 93.24C127.877 92.728 128.529 92.472 129.369 92.472C129.857 92.472 130.285 92.568 130.653 92.76C131.029 92.952 131.325 93.212 131.541 93.54C131.757 93.868 131.917 94.224 132.021 94.608C132.133 94.992 132.189 95.396 132.189 95.82C132.189 96.244 132.133 96.648 132.021 97.032C131.917 97.416 131.757 97.772 131.541 98.1C131.325 98.428 131.029 98.688 130.653 98.88C130.285 99.072 129.857 99.168 129.369 99.168C128.481 99.168 127.805 98.872 127.341 98.28C126.885 97.688 126.625 96.96 126.561 96.096H125.301V99H124.233V92.652H125.301ZM127.713 95.076C127.673 95.308 127.653 95.556 127.653 95.82C127.653 96.084 127.673 96.336 127.713 96.576C127.753 96.808 127.825 97.064 127.929 97.344C128.041 97.616 128.217 97.836 128.457 98.004C128.705 98.164 129.009 98.244 129.369 98.244C129.729 98.244 130.029 98.164 130.269 98.004C130.517 97.836 130.693 97.616 130.797 97.344C130.909 97.064 130.985 96.808 131.025 96.576C131.065 96.336 131.085 96.084 131.085 95.82C131.085 95.564 131.061 95.316 131.013 95.076C130.965 94.828 130.885 94.572 130.773 94.308C130.661 94.036 130.485 93.816 130.245 93.648C130.005 93.48 129.713 93.396 129.369 93.396C129.009 93.396 128.705 93.48 128.457 93.648C128.217 93.808 128.041 94.028 127.929 94.308C127.825 94.58 127.753 94.836 127.713 95.076ZM132.689 92.652H137.933V93.54H135.845V99H134.777V93.54H132.689V92.652ZM143.301 93.54V95.28H144.849C145.313 95.28 145.641 95.208 145.833 95.064C146.025 94.92 146.121 94.672 146.121 94.32C146.121 94.056 146.025 93.86 145.833 93.732C145.649 93.604 145.329 93.54 144.873 93.54H143.301ZM143.301 96.12V98.112H145.209C146.065 98.112 146.493 97.784 146.493 97.128C146.493 96.456 146.029 96.12 145.101 96.12H143.301ZM142.233 99V92.652H145.113C145.785 92.652 146.297 92.808 146.649 93.12C147.009 93.424 147.189 93.808 147.189 94.272C147.189 94.624 147.085 94.92 146.877 95.16C146.677 95.392 146.425 95.552 146.121 95.64C147.081 95.864 147.561 96.424 147.561 97.32C147.561 97.832 147.357 98.24 146.949 98.544C146.549 98.848 145.977 99 145.233 99H142.233ZM152.243 90.288H153.923L156.395 97.656H156.419L158.903 90.288H160.571V99H159.431V93.852C159.431 93.812 159.435 93.52 159.443 92.976C159.459 92.424 159.467 91.992 159.467 91.68H159.455L156.995 99H155.831L153.383 91.68H153.347C153.347 91.992 153.351 92.424 153.359 92.976C153.375 93.52 153.383 93.812 153.383 93.852V99H152.243V90.288ZM161.889 95.82C161.889 95.396 161.949 94.992 162.069 94.608C162.189 94.216 162.365 93.86 162.597 93.54C162.829 93.212 163.137 92.952 163.521 92.76C163.905 92.568 164.341 92.472 164.829 92.472C165.317 92.472 165.753 92.568 166.137 92.76C166.521 92.952 166.829 93.212 167.061 93.54C167.293 93.86 167.469 94.216 167.589 94.608C167.709 94.992 167.769 95.396 167.769 95.82C167.769 96.724 167.513 97.512 167.001 98.184C166.497 98.848 165.773 99.18 164.829 99.18C163.885 99.18 163.157 98.848 162.645 98.184C162.141 97.512 161.889 96.724 161.889 95.82ZM162.981 95.82C162.981 96.012 162.993 96.208 163.017 96.408C163.049 96.6 163.105 96.812 163.185 97.044C163.273 97.276 163.381 97.48 163.509 97.656C163.645 97.824 163.825 97.968 164.049 98.088C164.281 98.2 164.541 98.256 164.829 98.256C165.117 98.256 165.373 98.2 165.597 98.088C165.829 97.968 166.009 97.824 166.137 97.656C166.273 97.48 166.381 97.276 166.461 97.044C166.549 96.812 166.605 96.6 166.629 96.408C166.661 96.208 166.677 96.012 166.677 95.82C166.677 95.572 166.649 95.324 166.593 95.076C166.545 94.82 166.457 94.56 166.329 94.296C166.209 94.032 166.017 93.816 165.753 93.648C165.497 93.48 165.189 93.396 164.829 93.396C164.469 93.396 164.157 93.48 163.893 93.648C163.637 93.816 163.445 94.032 163.317 94.296C163.197 94.56 163.109 94.82 163.053 95.076C163.005 95.324 162.981 95.572 162.981 95.82ZM174.039 94.788H173.007C172.863 93.884 172.363 93.432 171.507 93.432C171.091 93.432 170.747 93.56 170.475 93.816C170.203 94.064 170.015 94.356 169.911 94.692C169.815 95.028 169.767 95.404 169.767 95.82C169.767 97.444 170.343 98.256 171.495 98.256C171.863 98.256 172.183 98.124 172.455 97.86C172.735 97.596 172.919 97.228 173.007 96.756H174.039C174.007 97.036 173.939 97.308 173.835 97.572C173.739 97.828 173.595 98.084 173.403 98.34C173.219 98.596 172.959 98.8 172.623 98.952C172.287 99.104 171.899 99.18 171.459 99.18C170.587 99.18 169.895 98.884 169.383 98.292C168.879 97.7 168.627 96.936 168.627 96C168.627 94.96 168.883 94.112 169.395 93.456C169.907 92.8 170.663 92.472 171.663 92.472C172.431 92.472 173.007 92.7 173.391 93.156C173.775 93.604 173.991 94.148 174.039 94.788ZM176.161 92.652V95.412L178.885 92.652H180.241L177.817 95.016L180.385 99H179.113L177.061 95.76L176.161 96.6V99H175.093V92.652H176.161ZM182.266 93.54V95.28H183.814C184.278 95.28 184.606 95.208 184.798 95.064C184.99 94.92 185.086 94.672 185.086 94.32C185.086 94.056 184.99 93.86 184.798 93.732C184.614 93.604 184.294 93.54 183.838 93.54H182.266ZM182.266 96.12V98.112H184.174C185.03 98.112 185.458 97.784 185.458 97.128C185.458 96.456 184.994 96.12 184.066 96.12H182.266ZM181.198 99V92.652H184.078C184.75 92.652 185.262 92.808 185.614 93.12C185.974 93.424 186.154 93.808 186.154 94.272C186.154 94.624 186.05 94.92 185.842 95.16C185.642 95.392 185.39 95.552 185.086 95.64C186.046 95.864 186.526 96.424 186.526 97.32C186.526 97.832 186.322 98.24 185.914 98.544C185.514 98.848 184.942 99 184.198 99H181.198ZM191.997 97.008H193.065C192.713 98.456 191.761 99.18 190.209 99.18C189.337 99.18 188.649 98.884 188.145 98.292C187.641 97.7 187.389 96.936 187.389 96C187.389 94.952 187.641 94.104 188.145 93.456C188.657 92.8 189.417 92.472 190.425 92.472C191.313 92.472 191.989 92.804 192.453 93.468C192.917 94.124 193.149 95.028 193.149 96.18H188.529C188.529 96.844 188.685 97.356 188.997 97.716C189.309 98.076 189.765 98.256 190.365 98.256C190.821 98.256 191.205 98.116 191.517 97.836C191.837 97.556 191.997 97.28 191.997 97.008ZM188.529 95.328H192.057C191.977 94.064 191.381 93.432 190.269 93.432C189.789 93.432 189.377 93.624 189.033 94.008C188.697 94.384 188.529 94.824 188.529 95.328ZM48.848 108.652V113.404H48.872L51.98 108.652H53.096V115H52.028V110.248H52.004L48.896 115H47.78V108.652H48.848ZM65.4142 108.916H64.2742C64.1942 108.556 64.0622 108.248 63.8782 107.992C63.7022 107.736 63.4902 107.548 63.2422 107.428C62.9942 107.308 62.7582 107.224 62.5342 107.176C62.3102 107.128 62.0782 107.104 61.8382 107.104C61.0142 107.104 60.3342 107.404 59.7982 108.004C59.2622 108.604 58.9942 109.456 58.9942 110.56C58.9942 112.976 59.9542 114.184 61.8742 114.184C62.0502 114.184 62.2222 114.168 62.3902 114.136C62.5662 114.104 62.7582 114.036 62.9662 113.932C63.1742 113.82 63.3622 113.68 63.5302 113.512C63.7062 113.344 63.8702 113.112 64.0222 112.816C64.1742 112.52 64.2862 112.18 64.3582 111.796H65.4982C65.4342 112.244 65.3222 112.652 65.1622 113.02C65.0102 113.388 64.8382 113.688 64.6462 113.92C64.4622 114.152 64.2462 114.356 63.9982 114.532C63.7582 114.7 63.5302 114.828 63.3142 114.916C63.1062 115.004 62.8822 115.072 62.6422 115.12C62.4102 115.168 62.2262 115.196 62.0902 115.204C61.9542 115.22 61.8222 115.228 61.6942 115.228C61.1822 115.228 60.6982 115.144 60.2422 114.976C59.7862 114.8 59.3702 114.536 58.9942 114.184C58.6262 113.824 58.3302 113.34 58.1062 112.732C57.8902 112.116 57.7822 111.404 57.7822 110.596C57.7822 109.236 58.1462 108.14 58.8742 107.308C59.6022 106.476 60.5902 106.06 61.8382 106.06C62.8942 106.06 63.7302 106.336 64.3462 106.888C64.9702 107.44 65.3262 108.116 65.4142 108.916ZM67.7358 110.584H66.7518C66.7518 109.176 67.6238 108.472 69.3678 108.472C69.5518 108.472 69.7478 108.492 69.9558 108.532C70.1718 108.564 70.4238 108.636 70.7118 108.748C71.0078 108.852 71.2478 109.036 71.4318 109.3C71.6238 109.556 71.7198 109.872 71.7198 110.248V113.872C71.7198 114.136 71.8358 114.268 72.0678 114.268C72.1398 114.268 72.2558 114.252 72.4158 114.22V115C72.1118 115.08 71.9198 115.12 71.8398 115.12C71.6158 115.12 71.4278 115.092 71.2758 115.036C71.1238 114.988 71.0078 114.912 70.9278 114.808C70.8558 114.704 70.8038 114.604 70.7718 114.508C70.7478 114.412 70.7278 114.292 70.7118 114.148C70.5278 114.34 70.3558 114.5 70.1958 114.628C70.0358 114.756 69.7958 114.88 69.4758 115C69.1558 115.12 68.8038 115.18 68.4198 115.18C67.8358 115.18 67.3598 115.012 66.9918 114.676C66.6238 114.34 66.4398 113.896 66.4398 113.344C66.4398 113.16 66.4518 112.996 66.4758 112.852C66.4998 112.708 66.5598 112.544 66.6558 112.36C66.7518 112.168 66.8798 112.008 67.0398 111.88C67.2078 111.744 67.4478 111.624 67.7598 111.52C68.0718 111.408 68.4398 111.336 68.8638 111.304C69.4318 111.256 69.8358 111.204 70.0758 111.148C70.3238 111.084 70.4798 111 70.5438 110.896C70.6158 110.792 70.6518 110.62 70.6518 110.38C70.6518 109.7 70.1598 109.36 69.1758 109.36C68.8878 109.36 68.6438 109.4 68.4438 109.48C68.2518 109.552 68.1078 109.66 68.0118 109.804C67.9238 109.94 67.8598 110.068 67.8198 110.188C67.7798 110.3 67.7518 110.432 67.7358 110.584ZM70.6518 112.804V111.76C70.4758 111.896 69.8918 112.028 68.8998 112.156C68.7238 112.18 68.5718 112.208 68.4438 112.24C68.3238 112.272 68.1838 112.324 68.0238 112.396C67.8638 112.46 67.7398 112.56 67.6518 112.696C67.5718 112.824 67.5318 112.984 67.5318 113.176C67.5318 113.92 67.9198 114.292 68.6958 114.292C69.2078 114.292 69.6598 114.148 70.0518 113.86C70.4518 113.572 70.6518 113.22 70.6518 112.804ZM74.5824 108.652V111.208H77.5464V108.652H78.6144V115H77.5464V112.096H74.5824V115H73.5144V108.652H74.5824ZM81.2386 108.652V111.412L83.9626 108.652H85.3186L82.8946 111.016L85.4626 115H84.1906L82.1386 111.76L81.2386 112.6V115H80.1706V108.652H81.2386ZM85.7439 108.652H90.9879V109.54H88.8999V115H87.8319V109.54H85.7439V108.652ZM94.6485 111.496V112.372H91.6845V111.496H94.6485ZM96.0755 106.288H102.976V115H101.799V107.332H97.2515V115H96.0755V106.288ZM108.899 113.008H109.967C109.615 114.456 108.663 115.18 107.111 115.18C106.239 115.18 105.551 114.884 105.047 114.292C104.543 113.7 104.291 112.936 104.291 112C104.291 110.952 104.543 110.104 105.047 109.456C105.559 108.8 106.319 108.472 107.327 108.472C108.215 108.472 108.891 108.804 109.355 109.468C109.819 110.124 110.051 111.028 110.051 112.18H105.431C105.431 112.844 105.587 113.356 105.899 113.716C106.211 114.076 106.667 114.256 107.267 114.256C107.723 114.256 108.107 114.116 108.419 113.836C108.739 113.556 108.899 113.28 108.899 113.008ZM105.431 111.328H108.959C108.879 110.064 108.283 109.432 107.171 109.432C106.691 109.432 106.279 109.624 105.935 110.008C105.599 110.384 105.431 110.824 105.431 111.328ZM110.552 108.652H115.796V109.54H113.708V115H112.64V109.54H110.552V108.652ZM120.993 113.008H122.061C121.709 114.456 120.757 115.18 119.205 115.18C118.333 115.18 117.645 114.884 117.141 114.292C116.637 113.7 116.385 112.936 116.385 112C116.385 110.952 116.637 110.104 117.141 109.456C117.653 108.8 118.413 108.472 119.421 108.472C120.309 108.472 120.985 108.804 121.449 109.468C121.913 110.124 122.145 111.028 122.145 112.18H117.525C117.525 112.844 117.681 113.356 117.993 113.716C118.305 114.076 118.761 114.256 119.361 114.256C119.817 114.256 120.201 114.116 120.513 113.836C120.833 113.556 120.993 113.28 120.993 113.008ZM117.525 111.328H121.053C120.973 110.064 120.377 109.432 119.265 109.432C118.785 109.432 118.373 109.624 118.029 110.008C117.693 110.384 117.525 110.824 117.525 111.328ZM126.162 109.432C125.85 109.432 125.578 109.492 125.346 109.612C125.122 109.724 124.95 109.86 124.83 110.02C124.718 110.18 124.626 110.38 124.554 110.62C124.49 110.86 124.45 111.064 124.434 111.232C124.426 111.4 124.422 111.592 124.422 111.808C124.422 112.536 124.566 113.128 124.854 113.584C125.142 114.032 125.566 114.256 126.126 114.256C126.55 114.256 126.934 114.088 127.278 113.752C127.63 113.416 127.806 112.868 127.806 112.108C127.806 111.9 127.798 111.712 127.782 111.544C127.774 111.376 127.754 111.18 127.722 110.956C127.69 110.732 127.634 110.54 127.554 110.38C127.482 110.212 127.386 110.052 127.266 109.9C127.154 109.748 127.002 109.632 126.81 109.552C126.626 109.472 126.41 109.432 126.162 109.432ZM123.354 117.508V108.652H124.35V109.552C124.574 109.216 124.826 108.952 125.106 108.76C125.386 108.568 125.774 108.472 126.27 108.472C127.086 108.472 127.726 108.768 128.19 109.36C128.662 109.952 128.898 110.712 128.898 111.64C128.898 111.968 128.87 112.288 128.814 112.6C128.766 112.904 128.674 113.216 128.538 113.536C128.41 113.856 128.246 114.136 128.046 114.376C127.846 114.608 127.582 114.8 127.254 114.952C126.926 115.104 126.554 115.18 126.138 115.18C125.354 115.18 124.782 114.872 124.422 114.256V117.508H123.354ZM134.292 106.288H135.264C135.152 106.576 135.028 106.812 134.892 106.996C134.756 107.172 134.584 107.308 134.376 107.404C134.176 107.5 133.992 107.568 133.824 107.608C133.664 107.648 133.432 107.688 133.128 107.728C132.44 107.816 131.9 108.044 131.508 108.412C131.116 108.78 130.844 109.304 130.692 109.984C130.956 109.616 131.288 109.324 131.688 109.108C132.088 108.884 132.5 108.772 132.924 108.772C133.772 108.772 134.44 109.084 134.928 109.708C135.416 110.324 135.66 111.06 135.66 111.916C135.66 112.476 135.556 112.996 135.348 113.476C135.148 113.956 134.812 114.36 134.34 114.688C133.868 115.016 133.296 115.18 132.624 115.18C131.752 115.18 131.056 114.852 130.536 114.196C130.024 113.54 129.768 112.52 129.768 111.136C129.768 109.984 130.024 109.028 130.536 108.268C131.048 107.508 131.788 107.056 132.756 106.912C133.324 106.824 133.7 106.744 133.884 106.672C134.076 106.6 134.212 106.472 134.292 106.288ZM132.72 114.256C133.08 114.256 133.392 114.168 133.656 113.992C133.92 113.816 134.112 113.596 134.232 113.332C134.352 113.06 134.436 112.808 134.484 112.576C134.54 112.344 134.568 112.124 134.568 111.916C134.568 111.716 134.54 111.504 134.484 111.28C134.436 111.048 134.348 110.804 134.22 110.548C134.1 110.292 133.908 110.08 133.644 109.912C133.388 109.744 133.08 109.66 132.72 109.66C132.12 109.66 131.66 109.896 131.34 110.368C131.02 110.84 130.86 111.356 130.86 111.916C130.86 112.132 130.872 112.34 130.896 112.54C130.928 112.74 130.984 112.948 131.064 113.164C131.152 113.38 131.26 113.568 131.388 113.728C131.524 113.88 131.704 114.008 131.928 114.112C132.16 114.208 132.424 114.256 132.72 114.256ZM136.312 108.652H137.524L139.216 113.824H139.24L140.932 108.652H142.108C142.044 108.828 141.884 109.272 141.628 109.984C141.38 110.696 141.184 111.252 141.04 111.652C140.896 112.052 140.708 112.56 140.476 113.176C140.252 113.792 140.044 114.348 139.852 114.844C139.66 115.332 139.48 115.768 139.312 116.152C139.064 116.728 138.82 117.112 138.58 117.304C138.34 117.496 137.928 117.592 137.344 117.592C137.264 117.592 137.112 117.56 136.888 117.496V116.524C137.088 116.596 137.304 116.632 137.536 116.632C137.8 116.632 137.988 116.556 138.1 116.404C138.212 116.252 138.4 115.84 138.664 115.168L136.312 108.652ZM145.826 109.432C145.514 109.432 145.242 109.492 145.01 109.612C144.786 109.724 144.614 109.86 144.494 110.02C144.382 110.18 144.29 110.38 144.218 110.62C144.154 110.86 144.114 111.064 144.098 111.232C144.09 111.4 144.086 111.592 144.086 111.808C144.086 112.536 144.23 113.128 144.518 113.584C144.806 114.032 145.23 114.256 145.79 114.256C146.214 114.256 146.598 114.088 146.942 113.752C147.294 113.416 147.47 112.868 147.47 112.108C147.47 111.9 147.462 111.712 147.446 111.544C147.438 111.376 147.418 111.18 147.386 110.956C147.354 110.732 147.298 110.54 147.218 110.38C147.146 110.212 147.05 110.052 146.93 109.9C146.818 109.748 146.666 109.632 146.474 109.552C146.29 109.472 146.074 109.432 145.826 109.432ZM143.018 117.508V108.652H144.014V109.552C144.238 109.216 144.49 108.952 144.77 108.76C145.05 108.568 145.438 108.472 145.934 108.472C146.75 108.472 147.39 108.768 147.854 109.36C148.326 109.952 148.562 110.712 148.562 111.64C148.562 111.968 148.534 112.288 148.478 112.6C148.43 112.904 148.338 113.216 148.202 113.536C148.074 113.856 147.91 114.136 147.71 114.376C147.51 114.608 147.246 114.8 146.918 114.952C146.59 115.104 146.218 115.18 145.802 115.18C145.018 115.18 144.446 114.872 144.086 114.256V117.508H143.018ZM149.78 108.652H153.908V109.54H150.848V115H149.78V108.652ZM159.067 113.008H160.135C159.783 114.456 158.831 115.18 157.279 115.18C156.407 115.18 155.719 114.884 155.215 114.292C154.711 113.7 154.459 112.936 154.459 112C154.459 110.952 154.711 110.104 155.215 109.456C155.727 108.8 156.487 108.472 157.495 108.472C158.383 108.472 159.059 108.804 159.523 109.468C159.987 110.124 160.219 111.028 160.219 112.18H155.599C155.599 112.844 155.755 113.356 156.067 113.716C156.379 114.076 156.835 114.256 157.435 114.256C157.891 114.256 158.275 114.116 158.587 113.836C158.907 113.556 159.067 113.28 159.067 113.008ZM155.599 111.328H159.127C159.047 110.064 158.451 109.432 157.339 109.432C156.859 109.432 156.447 109.624 156.103 110.008C155.767 110.384 155.599 110.824 155.599 111.328Z" fill="white"/>
<rect x="27" y="134" width="12" height="12" fill="#C4C4C4"/>
<path d="M53.984 139.2C54.528 138.544 54.8 137.692 54.8 136.644C54.8 135.596 54.528 134.744 53.984 134.088C53.44 133.432 52.704 133.104 51.776 133.104C50.84 133.104 50.1 133.428 49.556 134.076C49.02 134.724 48.752 135.572 48.752 136.62C48.752 137.668 49.024 138.524 49.568 139.188C50.112 139.852 50.848 140.184 51.776 140.184C52.704 140.184 53.44 139.856 53.984 139.2ZM55.88 135.444C55.968 135.844 56.012 136.244 56.012 136.644C56.012 137.044 55.968 137.444 55.88 137.844C55.8 138.244 55.656 138.652 55.448 139.068C55.24 139.484 54.98 139.848 54.668 140.16C54.364 140.472 53.96 140.728 53.456 140.928C52.96 141.128 52.4 141.228 51.776 141.228C51.152 141.228 50.588 141.128 50.084 140.928C49.588 140.728 49.184 140.472 48.872 140.16C48.568 139.848 48.312 139.484 48.104 139.068C47.896 138.652 47.748 138.244 47.66 137.844C47.58 137.444 47.54 137.044 47.54 136.644C47.54 136.244 47.58 135.844 47.66 135.444C47.748 135.044 47.896 134.636 48.104 134.22C48.312 133.804 48.568 133.44 48.872 133.128C49.184 132.816 49.588 132.56 50.084 132.36C50.588 132.16 51.152 132.06 51.776 132.06C52.4 132.06 52.96 132.16 53.456 132.36C53.96 132.56 54.364 132.816 54.668 133.128C54.98 133.44 55.24 133.804 55.448 134.22C55.656 134.636 55.8 135.044 55.88 135.444ZM62.3948 136.788H61.3628C61.2188 135.884 60.7188 135.432 59.8628 135.432C59.4468 135.432 59.1028 135.56 58.8308 135.816C58.5588 136.064 58.3708 136.356 58.2668 136.692C58.1708 137.028 58.1228 137.404 58.1228 137.82C58.1228 139.444 58.6988 140.256 59.8508 140.256C60.2188 140.256 60.5388 140.124 60.8108 139.86C61.0908 139.596 61.2748 139.228 61.3628 138.756H62.3948C62.3628 139.036 62.2948 139.308 62.1908 139.572C62.0948 139.828 61.9508 140.084 61.7588 140.34C61.5748 140.596 61.3148 140.8 60.9788 140.952C60.6428 141.104 60.2548 141.18 59.8148 141.18C58.9428 141.18 58.2508 140.884 57.7388 140.292C57.2348 139.7 56.9828 138.936 56.9828 138C56.9828 136.96 57.2388 136.112 57.7508 135.456C58.2628 134.8 59.0188 134.472 60.0188 134.472C60.7868 134.472 61.3628 134.7 61.7468 135.156C62.1308 135.604 62.3468 136.148 62.3948 136.788ZM62.9158 134.652H68.1598V135.54H66.0718V141H65.0038V135.54H62.9158V134.652ZM70.0444 136.584H69.0604C69.0604 135.176 69.9324 134.472 71.6764 134.472C71.8604 134.472 72.0564 134.492 72.2644 134.532C72.4804 134.564 72.7324 134.636 73.0204 134.748C73.3164 134.852 73.5564 135.036 73.7404 135.3C73.9324 135.556 74.0284 135.872 74.0284 136.248V139.872C74.0284 140.136 74.1444 140.268 74.3764 140.268C74.4484 140.268 74.5644 140.252 74.7244 140.22V141C74.4204 141.08 74.2284 141.12 74.1484 141.12C73.9244 141.12 73.7364 141.092 73.5844 141.036C73.4324 140.988 73.3164 140.912 73.2364 140.808C73.1644 140.704 73.1124 140.604 73.0804 140.508C73.0564 140.412 73.0364 140.292 73.0204 140.148C72.8364 140.34 72.6644 140.5 72.5044 140.628C72.3444 140.756 72.1044 140.88 71.7844 141C71.4644 141.12 71.1124 141.18 70.7284 141.18C70.1444 141.18 69.6684 141.012 69.3004 140.676C68.9324 140.34 68.7484 139.896 68.7484 139.344C68.7484 139.16 68.7604 138.996 68.7844 138.852C68.8084 138.708 68.8684 138.544 68.9644 138.36C69.0604 138.168 69.1884 138.008 69.3484 137.88C69.5164 137.744 69.7564 137.624 70.0684 137.52C70.3804 137.408 70.7484 137.336 71.1724 137.304C71.7404 137.256 72.1444 137.204 72.3844 137.148C72.6324 137.084 72.7884 137 72.8524 136.896C72.9244 136.792 72.9604 136.62 72.9604 136.38C72.9604 135.7 72.4684 135.36 71.4844 135.36C71.1964 135.36 70.9524 135.4 70.7524 135.48C70.5604 135.552 70.4164 135.66 70.3204 135.804C70.2324 135.94 70.1684 136.068 70.1284 136.188C70.0884 136.3 70.0604 136.432 70.0444 136.584ZM72.9604 138.804V137.76C72.7844 137.896 72.2004 138.028 71.2084 138.156C71.0324 138.18 70.8804 138.208 70.7524 138.24C70.6324 138.272 70.4924 138.324 70.3324 138.396C70.1724 138.46 70.0484 138.56 69.9604 138.696C69.8804 138.824 69.8404 138.984 69.8404 139.176C69.8404 139.92 70.2284 140.292 71.0044 140.292C71.5164 140.292 71.9684 140.148 72.3604 139.86C72.7604 139.572 72.9604 139.22 72.9604 138.804ZM76.459 134.652H81.103V141H80.035V135.54H77.527V138.432C77.527 140.208 76.979 141.096 75.883 141.096C75.651 141.096 75.423 141.064 75.199 141V140.172C75.311 140.188 75.455 140.196 75.631 140.196C75.847 140.196 76.007 140.148 76.111 140.052C76.223 139.956 76.307 139.756 76.363 139.452C76.427 139.148 76.459 138.688 76.459 138.072V134.652ZM83.7347 134.652V137.208H85.2467C86.0307 137.208 86.6267 137.388 87.0347 137.748C87.4507 138.108 87.6587 138.58 87.6587 139.164C87.6587 139.7 87.4627 140.14 87.0707 140.484C86.6787 140.828 86.0787 141 85.2707 141H82.6667V134.652H83.7347ZM83.7347 138.096V140.112H85.2587C85.7387 140.112 86.0747 140.036 86.2667 139.884C86.4667 139.724 86.5667 139.464 86.5667 139.104C86.5667 138.432 86.1307 138.096 85.2587 138.096H83.7347ZM89.9339 134.652V137.208H92.8979V134.652H93.9659V141H92.8979V138.096H89.9339V141H88.8659V134.652H89.9339ZM102.674 134.652V141H101.606V134.652H102.674ZM96.5902 134.652V137.208H98.1022C98.8862 137.208 99.4822 137.388 99.8902 137.748C100.306 138.108 100.514 138.58 100.514 139.164C100.514 139.7 100.318 140.14 99.9262 140.484C99.5342 140.828 98.9342 141 98.1262 141H95.5222V134.652H96.5902ZM96.5902 138.096V140.112H98.1142C98.5942 140.112 98.9302 140.036 99.1222 139.884C99.3222 139.724 99.4222 139.464 99.4222 139.104C99.4222 138.432 98.9862 138.096 98.1142 138.096H96.5902ZM108.489 139.008H109.557C109.205 140.456 108.253 141.18 106.701 141.18C105.829 141.18 105.141 140.884 104.637 140.292C104.133 139.7 103.881 138.936 103.881 138C103.881 136.952 104.133 136.104 104.637 135.456C105.149 134.8 105.909 134.472 106.917 134.472C107.805 134.472 108.481 134.804 108.945 135.468C109.409 136.124 109.641 137.028 109.641 138.18H105.021C105.021 138.844 105.177 139.356 105.489 139.716C105.801 140.076 106.257 140.256 106.857 140.256C107.313 140.256 107.697 140.116 108.009 139.836C108.329 139.556 108.489 139.28 108.489 139.008ZM105.021 137.328H108.549C108.469 136.064 107.873 135.432 106.761 135.432C106.281 135.432 105.869 135.624 105.525 136.008C105.189 136.384 105.021 136.824 105.021 137.328ZM116.626 138.144C115.834 138.144 115.19 137.896 114.694 137.4C114.198 136.904 113.95 136.236 113.95 135.396C113.95 134.572 114.19 133.88 114.67 133.32C115.158 132.752 115.83 132.468 116.686 132.468C117.198 132.468 117.646 132.564 118.03 132.756C118.414 132.948 118.706 133.18 118.906 133.452C119.106 133.724 119.266 134.056 119.386 134.448C119.506 134.84 119.582 135.184 119.614 135.48C119.646 135.776 119.662 136.092 119.662 136.428C119.662 136.604 119.654 136.788 119.638 136.98C119.63 137.172 119.602 137.436 119.554 137.772C119.514 138.1 119.454 138.412 119.374 138.708C119.294 138.996 119.174 139.3 119.014 139.62C118.862 139.94 118.682 140.216 118.474 140.448C118.266 140.672 117.998 140.856 117.67 141C117.342 141.152 116.978 141.228 116.578 141.228C116.194 141.228 115.85 141.172 115.546 141.06C115.242 140.956 114.998 140.824 114.814 140.664C114.638 140.504 114.486 140.32 114.358 140.112C114.238 139.896 114.154 139.692 114.106 139.5C114.066 139.308 114.046 139.124 114.046 138.948H115.114C115.146 139.38 115.286 139.72 115.534 139.968C115.782 140.216 116.122 140.34 116.554 140.34C117.13 140.34 117.578 140.088 117.898 139.584C118.226 139.072 118.458 138.26 118.594 137.148L118.57 137.124C118.418 137.444 118.158 137.696 117.79 137.88C117.422 138.056 117.034 138.144 116.626 138.144ZM116.782 137.184C116.95 137.184 117.114 137.16 117.274 137.112C117.442 137.064 117.618 136.98 117.802 136.86C117.986 136.732 118.134 136.532 118.246 136.26C118.358 135.98 118.414 135.644 118.414 135.252C118.414 134.724 118.27 134.288 117.982 133.944C117.702 133.6 117.274 133.428 116.698 133.428C116.202 133.428 115.802 133.604 115.498 133.956C115.202 134.308 115.054 134.772 115.054 135.348C115.054 136.572 115.63 137.184 116.782 137.184ZM123.544 140.268C124.728 140.268 125.32 139.128 125.32 136.848C125.32 134.568 124.728 133.428 123.544 133.428C122.36 133.428 121.768 134.568 121.768 136.848C121.768 139.128 122.36 140.268 123.544 140.268ZM126.388 135.708C126.436 136.076 126.46 136.456 126.46 136.848C126.46 137.24 126.436 137.62 126.388 137.988C126.348 138.356 126.264 138.744 126.136 139.152C126.008 139.552 125.84 139.9 125.632 140.196C125.424 140.492 125.14 140.74 124.78 140.94C124.428 141.132 124.016 141.228 123.544 141.228C123.072 141.228 122.656 141.132 122.296 140.94C121.944 140.74 121.664 140.492 121.456 140.196C121.248 139.9 121.08 139.552 120.952 139.152C120.824 138.744 120.736 138.356 120.688 137.988C120.648 137.62 120.628 137.24 120.628 136.848C120.628 136.456 120.648 136.076 120.688 135.708C120.736 135.34 120.824 134.956 120.952 134.556C121.08 134.148 121.248 133.796 121.456 133.5C121.664 133.204 121.944 132.96 122.296 132.768C122.656 132.568 123.072 132.468 123.544 132.468C124.016 132.468 124.428 132.568 124.78 132.768C125.14 132.96 125.424 133.204 125.632 133.5C125.84 133.796 126.008 134.148 126.136 134.556C126.264 134.956 126.348 135.34 126.388 135.708ZM127.978 136.104C127.578 135.696 127.378 135.204 127.378 134.628C127.378 134.052 127.578 133.568 127.978 133.176C128.386 132.776 128.878 132.576 129.454 132.576C130.022 132.576 130.506 132.776 130.906 133.176C131.306 133.576 131.506 134.06 131.506 134.628C131.506 135.196 131.306 135.684 130.906 136.092C130.506 136.5 130.022 136.704 129.454 136.704C128.878 136.704 128.386 136.504 127.978 136.104ZM128.23 134.628C128.23 134.996 128.346 135.292 128.578 135.516C128.818 135.74 129.106 135.852 129.442 135.852C129.786 135.852 130.074 135.732 130.306 135.492C130.546 135.252 130.666 134.964 130.666 134.628C130.666 134.292 130.546 134.008 130.306 133.776C130.074 133.544 129.79 133.428 129.454 133.428C129.11 133.428 128.818 133.548 128.578 133.788C128.346 134.02 128.23 134.3 128.23 134.628ZM133.678 140.496C133.278 140.088 133.078 139.596 133.078 139.02C133.078 138.444 133.278 137.96 133.678 137.568C134.086 137.168 134.578 136.968 135.154 136.968C135.722 136.968 136.206 137.168 136.606 137.568C137.006 137.968 137.206 138.452 137.206 139.02C137.206 139.588 137.006 140.076 136.606 140.484C136.206 140.892 135.722 141.096 135.154 141.096C134.578 141.096 134.086 140.896 133.678 140.496ZM133.93 139.02C133.93 139.388 134.046 139.684 134.278 139.908C134.518 140.132 134.806 140.244 135.142 140.244C135.486 140.244 135.774 140.124 136.006 139.884C136.246 139.644 136.366 139.356 136.366 139.02C136.366 138.684 136.246 138.4 136.006 138.168C135.774 137.936 135.49 137.82 135.154 137.82C134.81 137.82 134.518 137.94 134.278 138.18C134.046 138.412 133.93 138.692 133.93 139.02ZM135.01 132.48L130.21 141.24H129.562L134.35 132.48H135.01ZM153.163 137.496V138.372H141.043V137.496H153.163ZM157.303 134.652H162.403V141H161.335V135.54H158.371V141H157.303V134.652ZM163.612 137.82C163.612 137.396 163.672 136.992 163.792 136.608C163.912 136.216 164.088 135.86 164.32 135.54C164.552 135.212 164.86 134.952 165.244 134.76C165.628 134.568 166.064 134.472 166.552 134.472C167.04 134.472 167.476 134.568 167.86 134.76C168.244 134.952 168.552 135.212 168.784 135.54C169.016 135.86 169.192 136.216 169.312 136.608C169.432 136.992 169.492 137.396 169.492 137.82C169.492 138.724 169.236 139.512 168.724 140.184C168.22 140.848 167.496 141.18 166.552 141.18C165.608 141.18 164.88 140.848 164.368 140.184C163.864 139.512 163.612 138.724 163.612 137.82ZM164.704 137.82C164.704 138.012 164.716 138.208 164.74 138.408C164.772 138.6 164.828 138.812 164.908 139.044C164.996 139.276 165.104 139.48 165.232 139.656C165.368 139.824 165.548 139.968 165.772 140.088C166.004 140.2 166.264 140.256 166.552 140.256C166.84 140.256 167.096 140.2 167.32 140.088C167.552 139.968 167.732 139.824 167.86 139.656C167.996 139.48 168.104 139.276 168.184 139.044C168.272 138.812 168.328 138.6 168.352 138.408C168.384 138.208 168.4 138.012 168.4 137.82C168.4 137.572 168.372 137.324 168.316 137.076C168.268 136.82 168.18 136.56 168.052 136.296C167.932 136.032 167.74 135.816 167.476 135.648C167.22 135.48 166.912 135.396 166.552 135.396C166.192 135.396 165.88 135.48 165.616 135.648C165.36 135.816 165.168 136.032 165.04 136.296C164.92 136.56 164.832 136.82 164.776 137.076C164.728 137.324 164.704 137.572 164.704 137.82ZM176.653 140.268C177.837 140.268 178.429 139.128 178.429 136.848C178.429 134.568 177.837 133.428 176.653 133.428C175.469 133.428 174.877 134.568 174.877 136.848C174.877 139.128 175.469 140.268 176.653 140.268ZM179.497 135.708C179.545 136.076 179.569 136.456 179.569 136.848C179.569 137.24 179.545 137.62 179.497 137.988C179.457 138.356 179.373 138.744 179.245 139.152C179.117 139.552 178.949 139.9 178.741 140.196C178.533 140.492 178.249 140.74 177.889 140.94C177.537 141.132 177.125 141.228 176.653 141.228C176.181 141.228 175.765 141.132 175.405 140.94C175.053 140.74 174.773 140.492 174.565 140.196C174.357 139.9 174.189 139.552 174.061 139.152C173.933 138.744 173.845 138.356 173.797 137.988C173.757 137.62 173.737 137.24 173.737 136.848C173.737 136.456 173.757 136.076 173.797 135.708C173.845 135.34 173.933 134.956 174.061 134.556C174.189 134.148 174.357 133.796 174.565 133.5C174.773 133.204 175.053 132.96 175.405 132.768C175.765 132.568 176.181 132.468 176.653 132.468C177.125 132.468 177.537 132.568 177.889 132.768C178.249 132.96 178.533 133.204 178.741 133.5C178.949 133.796 179.117 134.148 179.245 134.556C179.373 134.956 179.457 135.34 179.497 135.708ZM182.336 139.716V141H181.064V139.716H182.336ZM185.531 133.704L185.171 136.044C185.627 135.692 186.175 135.516 186.815 135.516C187.559 135.516 188.211 135.764 188.771 136.26C189.331 136.748 189.611 137.408 189.611 138.24C189.611 138.464 189.591 138.692 189.551 138.924C189.511 139.148 189.423 139.404 189.287 139.692C189.151 139.98 188.975 140.236 188.759 140.46C188.551 140.676 188.251 140.856 187.859 141C187.475 141.152 187.031 141.228 186.527 141.228C186.287 141.228 186.055 141.208 185.831 141.168C185.607 141.128 185.375 141.056 185.135 140.952C184.903 140.84 184.695 140.7 184.511 140.532C184.327 140.364 184.167 140.14 184.031 139.86C183.903 139.58 183.819 139.256 183.779 138.888H184.883C184.931 139.36 185.115 139.716 185.435 139.956C185.763 140.188 186.179 140.304 186.683 140.304C187.219 140.304 187.651 140.12 187.979 139.752C188.307 139.376 188.471 138.912 188.471 138.36C188.471 137.768 188.295 137.308 187.943 136.98C187.591 136.644 187.139 136.476 186.587 136.476C185.947 136.476 185.423 136.744 185.015 137.28L184.091 137.232L184.727 132.66H189.143V133.704H185.531ZM193.625 137.496V138.372H190.661V137.496H193.625ZM198.508 132.468V141H197.368V134.952H195.388V134.1C195.78 134.076 196.08 134.044 196.288 134.004C196.496 133.964 196.7 133.888 196.9 133.776C197.108 133.664 197.268 133.508 197.38 133.308C197.492 133.1 197.592 132.82 197.68 132.468H198.508ZM201.97 136.104C201.57 135.696 201.37 135.204 201.37 134.628C201.37 134.052 201.57 133.568 201.97 133.176C202.378 132.776 202.87 132.576 203.446 132.576C204.014 132.576 204.498 132.776 204.898 133.176C205.298 133.576 205.498 134.06 205.498 134.628C205.498 135.196 205.298 135.684 204.898 136.092C204.498 136.5 204.014 136.704 203.446 136.704C202.87 136.704 202.378 136.504 201.97 136.104ZM202.222 134.628C202.222 134.996 202.338 135.292 202.57 135.516C202.81 135.74 203.098 135.852 203.434 135.852C203.778 135.852 204.066 135.732 204.298 135.492C204.538 135.252 204.658 134.964 204.658 134.628C204.658 134.292 204.538 134.008 204.298 133.776C204.066 133.544 203.782 133.428 203.446 133.428C203.102 133.428 202.81 133.548 202.57 133.788C202.338 134.02 202.222 134.3 202.222 134.628ZM207.67 140.496C207.27 140.088 207.07 139.596 207.07 139.02C207.07 138.444 207.27 137.96 207.67 137.568C208.078 137.168 208.57 136.968 209.146 136.968C209.714 136.968 210.198 137.168 210.598 137.568C210.998 137.968 211.198 138.452 211.198 139.02C211.198 139.588 210.998 140.076 210.598 140.484C210.198 140.892 209.714 141.096 209.146 141.096C208.57 141.096 208.078 140.896 207.67 140.496ZM207.922 139.02C207.922 139.388 208.038 139.684 208.27 139.908C208.51 140.132 208.798 140.244 209.134 140.244C209.478 140.244 209.766 140.124 209.998 139.884C210.238 139.644 210.358 139.356 210.358 139.02C210.358 138.684 210.238 138.4 209.998 138.168C209.766 137.936 209.482 137.82 209.146 137.82C208.802 137.82 208.51 137.94 208.27 138.18C208.038 138.412 207.922 138.692 207.922 139.02ZM209.002 132.48L204.202 141.24H203.554L208.342 132.48H209.002ZM48.848 150.652V153.208H51.812V150.652H52.88V157H51.812V154.096H48.848V157H47.78V150.652H48.848ZM55.3843 152.584H54.4003C54.4003 151.176 55.2723 150.472 57.0163 150.472C57.2003 150.472 57.3963 150.492 57.6043 150.532C57.8203 150.564 58.0723 150.636 58.3603 150.748C58.6563 150.852 58.8963 151.036 59.0803 151.3C59.2723 151.556 59.3683 151.872 59.3683 152.248V155.872C59.3683 156.136 59.4843 156.268 59.7162 156.268C59.7882 156.268 59.9043 156.252 60.0643 156.22V157C59.7603 157.08 59.5683 157.12 59.4883 157.12C59.2643 157.12 59.0763 157.092 58.9243 157.036C58.7723 156.988 58.6563 156.912 58.5763 156.808C58.5043 156.704 58.4523 156.604 58.4203 156.508C58.3963 156.412 58.3763 156.292 58.3603 156.148C58.1763 156.34 58.0043 156.5 57.8443 156.628C57.6843 156.756 57.4443 156.88 57.1243 157C56.8043 157.12 56.4523 157.18 56.0683 157.18C55.4843 157.18 55.0083 157.012 54.6403 156.676C54.2723 156.34 54.0883 155.896 54.0883 155.344C54.0883 155.16 54.1003 154.996 54.1243 154.852C54.1483 154.708 54.2083 154.544 54.3043 154.36C54.4003 154.168 54.5283 154.008 54.6883 153.88C54.8563 153.744 55.0963 153.624 55.4083 153.52C55.7203 153.408 56.0883 153.336 56.5123 153.304C57.0803 153.256 57.4843 153.204 57.7243 153.148C57.9723 153.084 58.1283 153 58.1923 152.896C58.2643 152.792 58.3003 152.62 58.3003 152.38C58.3003 151.7 57.8083 151.36 56.8242 151.36C56.5363 151.36 56.2923 151.4 56.0923 151.48C55.9003 151.552 55.7563 151.66 55.6603 151.804C55.5723 151.94 55.5083 152.068 55.4683 152.188C55.4283 152.3 55.4003 152.432 55.3843 152.584ZM58.3003 154.804V153.76C58.1243 153.896 57.5403 154.028 56.5483 154.156C56.3723 154.18 56.2203 154.208 56.0923 154.24C55.9723 154.272 55.8323 154.324 55.6723 154.396C55.5123 154.46 55.3883 154.56 55.3003 154.696C55.2203 154.824 55.1803 154.984 55.1803 155.176C55.1803 155.92 55.5683 156.292 56.3443 156.292C56.8563 156.292 57.3083 156.148 57.7003 155.86C58.1003 155.572 58.3003 155.22 58.3003 154.804ZM67.3341 151.432C67.0221 151.432 66.7501 151.492 66.5181 151.612C66.2941 151.724 66.1221 151.86 66.0021 152.02C65.8901 152.18 65.7981 152.38 65.7261 152.62C65.6621 152.86 65.6221 153.064 65.6061 153.232C65.5981 153.4 65.5941 153.592 65.5941 153.808C65.5941 154.536 65.7381 155.128 66.0261 155.584C66.3141 156.032 66.7381 156.256 67.2981 156.256C67.7221 156.256 68.1061 156.088 68.4501 155.752C68.8021 155.416 68.9781 154.868 68.9781 154.108C68.9781 153.9 68.9701 153.712 68.9541 153.544C68.9461 153.376 68.9261 153.18 68.8941 152.956C68.8621 152.732 68.8061 152.54 68.7261 152.38C68.6541 152.212 68.5581 152.052 68.4381 151.9C68.3261 151.748 68.1741 151.632 67.9821 151.552C67.7981 151.472 67.5821 151.432 67.3341 151.432ZM64.5261 159.508V150.652H65.5221V151.552C65.7461 151.216 65.9981 150.952 66.2781 150.76C66.5581 150.568 66.9461 150.472 67.4421 150.472C68.2581 150.472 68.8981 150.768 69.3621 151.36C69.8341 151.952 70.0701 152.712 70.0701 153.64C70.0701 153.968 70.0421 154.288 69.9861 154.6C69.9381 154.904 69.8461 155.216 69.7101 155.536C69.5821 155.856 69.4181 156.136 69.2181 156.376C69.0181 156.608 68.7541 156.8 68.4261 156.952C68.0981 157.104 67.7261 157.18 67.3101 157.18C66.5261 157.18 65.9541 156.872 65.5941 156.256V159.508H64.5261ZM75.5478 155.008H76.6158C76.2638 156.456 75.3118 157.18 73.7598 157.18C72.8878 157.18 72.1998 156.884 71.6958 156.292C71.1918 155.7 70.9398 154.936 70.9398 154C70.9398 152.952 71.1918 152.104 71.6958 151.456C72.2078 150.8 72.9678 150.472 73.9758 150.472C74.8638 150.472 75.5398 150.804 76.0038 151.468C76.4678 152.124 76.6998 153.028 76.6998 154.18H72.0798C72.0798 154.844 72.2358 155.356 72.5478 155.716C72.8598 156.076 73.3158 156.256 73.9158 156.256C74.3718 156.256 74.7558 156.116 75.0678 155.836C75.3878 155.556 75.5478 155.28 75.5478 155.008ZM72.0798 153.328H75.6078C75.5278 152.064 74.9318 151.432 73.8198 151.432C73.3398 151.432 72.9278 151.624 72.5838 152.008C72.2478 152.384 72.0798 152.824 72.0798 153.328ZM77.9089 150.652H82.0369V151.54H78.9769V157H77.9089V150.652ZM84.0043 150.652V155.404H84.0283L87.1363 150.652H88.2523V157H87.1843V152.248H87.1603L84.0523 157H82.9363V150.652H84.0043ZM89.4672 153.82C89.4672 153.396 89.5272 152.992 89.6472 152.608C89.7672 152.216 89.9432 151.86 90.1752 151.54C90.4072 151.212 90.7152 150.952 91.0992 150.76C91.4832 150.568 91.9192 150.472 92.4072 150.472C92.8952 150.472 93.3312 150.568 93.7152 150.76C94.0992 150.952 94.4072 151.212 94.6392 151.54C94.8712 151.86 95.0472 152.216 95.1672 152.608C95.2872 152.992 95.3472 153.396 95.3472 153.82C95.3472 154.724 95.0912 155.512 94.5792 156.184C94.0752 156.848 93.3512 157.18 92.4072 157.18C91.4632 157.18 90.7352 156.848 90.2232 156.184C89.7192 155.512 89.4672 154.724 89.4672 153.82ZM90.5592 153.82C90.5592 154.012 90.5712 154.208 90.5952 154.408C90.6272 154.6 90.6832 154.812 90.7632 155.044C90.8512 155.276 90.9592 155.48 91.0872 155.656C91.2232 155.824 91.4032 155.968 91.6272 156.088C91.8592 156.2 92.1192 156.256 92.4072 156.256C92.6952 156.256 92.9512 156.2 93.1752 156.088C93.4072 155.968 93.5872 155.824 93.7152 155.656C93.8512 155.48 93.9592 155.276 94.0392 155.044C94.1272 154.812 94.1832 154.6 94.2072 154.408C94.2392 154.208 94.2552 154.012 94.2552 153.82C94.2552 153.572 94.2272 153.324 94.1712 153.076C94.1232 152.82 94.0352 152.56 93.9072 152.296C93.7872 152.032 93.5952 151.816 93.3312 151.648C93.0752 151.48 92.7672 151.396 92.4072 151.396C92.0472 151.396 91.7352 151.48 91.4712 151.648C91.2152 151.816 91.0232 152.032 90.8952 152.296C90.7752 152.56 90.6872 152.82 90.6312 153.076C90.5832 153.324 90.5592 153.572 90.5592 153.82ZM97.6214 150.652V153.208H100.585V150.652H101.653V157H100.585V154.096H97.6214V157H96.5534V150.652H97.6214Z" fill="white"/>
<circle cx="119" cy="119" r="114" stroke="#C4C4C4" stroke-width="10"/>
<path d="M119 5C137.932 5 155.787 9.61515 171.5 17.7818" stroke="#DDFF0F" stroke-width="10" stroke-linecap="round"/>
</svg>
