<svg width="238" height="238" viewBox="0 0 238 238" fill="none" xmlns="http://www.w3.org/2000/svg">
<rect x="59" y="99" width="12" height="12" fill="#DDFF0F"/>
<path d="M83.344 101.468V110H82.204V103.952H80.224V103.1C80.616 103.076 80.916 103.044 81.124 103.004C81.332 102.964 81.536 102.888 81.736 102.776C81.944 102.664 82.104 102.508 82.216 102.308C82.328 102.1 82.428 101.82 82.516 101.468H83.344ZM91.7023 103.664C91.7023 103.952 91.6663 104.208 91.5943 104.432C91.5223 104.648 91.4183 104.824 91.2823 104.96C91.1543 105.096 91.0423 105.2 90.9463 105.272C90.8583 105.336 90.7463 105.4 90.6103 105.464C90.9703 105.616 91.2583 105.824 91.4743 106.088C91.6983 106.344 91.8423 106.588 91.9063 106.82C91.9703 107.044 92.0023 107.28 92.0023 107.528C92.0023 108.28 91.7583 108.92 91.2703 109.448C90.7823 109.968 90.0663 110.228 89.1223 110.228C88.2983 110.228 87.6063 110 87.0463 109.544C86.4863 109.088 86.2063 108.42 86.2063 107.54C86.2063 106.548 86.6863 105.86 87.6463 105.476C86.8783 105.172 86.4943 104.616 86.4943 103.808C86.4943 103.56 86.5343 103.312 86.6143 103.064C86.7023 102.816 86.8343 102.568 87.0103 102.32C87.1943 102.064 87.4623 101.86 87.8143 101.708C88.1743 101.548 88.5943 101.468 89.0743 101.468C89.9463 101.468 90.6023 101.692 91.0423 102.14C91.4823 102.58 91.7023 103.088 91.7023 103.664ZM89.0983 105.992C88.5383 105.992 88.1063 106.148 87.8023 106.46C87.4983 106.772 87.3463 107.14 87.3463 107.564C87.3463 108.004 87.4823 108.4 87.7543 108.752C88.0343 109.096 88.5023 109.268 89.1583 109.268C90.2943 109.268 90.8623 108.728 90.8623 107.648C90.8623 107.104 90.6983 106.692 90.3703 106.412C90.0423 106.132 89.6183 105.992 89.0983 105.992ZM89.0863 105.068C89.5423 105.068 89.9063 104.94 90.1783 104.684C90.4583 104.428 90.5983 104.1 90.5983 103.7C90.5983 103.372 90.4743 103.08 90.2263 102.824C89.9783 102.56 89.5743 102.428 89.0143 102.428C88.5023 102.428 88.1383 102.564 87.9223 102.836C87.7063 103.108 87.5983 103.416 87.5983 103.76C87.5983 104.152 87.7423 104.468 88.0303 104.708C88.3263 104.948 88.6783 105.068 89.0863 105.068ZM102.584 106.496V107.372H95.8398V106.496H102.584ZM107.549 104.528H106.481C106.481 104 106.553 103.54 106.697 103.148C106.849 102.756 107.029 102.456 107.237 102.248C107.453 102.04 107.705 101.876 107.993 101.756C108.281 101.628 108.533 101.548 108.749 101.516C108.965 101.484 109.189 101.468 109.421 101.468C110.181 101.468 110.813 101.7 111.317 102.164C111.829 102.628 112.085 103.248 112.085 104.024C112.085 104.4 112.033 104.728 111.929 105.008C111.825 105.28 111.629 105.548 111.341 105.812C111.061 106.068 110.765 106.292 110.453 106.484C110.141 106.676 109.685 106.936 109.085 107.264C108.573 107.544 108.181 107.848 107.909 108.176C107.645 108.504 107.497 108.776 107.465 108.992H112.085V110H106.265C106.321 109.064 106.537 108.324 106.913 107.78C107.297 107.228 108.037 106.668 109.133 106.1C109.773 105.772 110.233 105.464 110.513 105.176C110.801 104.88 110.945 104.48 110.945 103.976C110.945 103.576 110.805 103.22 110.525 102.908C110.253 102.588 109.833 102.428 109.265 102.428C108.961 102.428 108.697 102.488 108.473 102.608C108.249 102.72 108.081 102.848 107.969 102.992C107.865 103.128 107.777 103.316 107.705 103.556C107.641 103.788 107.601 103.96 107.585 104.072C107.569 104.184 107.557 104.336 107.549 104.528ZM114.828 102.704L114.468 105.044C114.924 104.692 115.472 104.516 116.112 104.516C116.856 104.516 117.508 104.764 118.068 105.26C118.628 105.748 118.908 106.408 118.908 107.24C118.908 107.464 118.888 107.692 118.848 107.924C118.808 108.148 118.72 108.404 118.584 108.692C118.448 108.98 118.272 109.236 118.056 109.46C117.848 109.676 117.548 109.856 117.156 110C116.772 110.152 116.328 110.228 115.824 110.228C115.584 110.228 115.352 110.208 115.128 110.168C114.904 110.128 114.672 110.056 114.432 109.952C114.2 109.84 113.992 109.7 113.808 109.532C113.624 109.364 113.464 109.14 113.328 108.86C113.2 108.58 113.116 108.256 113.076 107.888H114.18C114.228 108.36 114.412 108.716 114.732 108.956C115.06 109.188 115.476 109.304 115.98 109.304C116.516 109.304 116.948 109.12 117.276 108.752C117.604 108.376 117.768 107.912 117.768 107.36C117.768 106.768 117.592 106.308 117.24 105.98C116.888 105.644 116.436 105.476 115.884 105.476C115.244 105.476 114.72 105.744 114.312 106.28L113.388 106.232L114.024 101.66H118.44V102.704H114.828ZM124.197 103.652H128.841V110H127.773V104.54H125.265V107.432C125.265 109.208 124.717 110.096 123.621 110.096C123.389 110.096 123.161 110.064 122.937 110V109.172C123.049 109.188 123.193 109.196 123.369 109.196C123.585 109.196 123.745 109.148 123.849 109.052C123.961 108.956 124.045 108.756 124.101 108.452C124.165 108.148 124.197 107.688 124.197 107.072V103.652ZM134.665 108.008H135.733C135.381 109.456 134.429 110.18 132.877 110.18C132.005 110.18 131.317 109.884 130.813 109.292C130.309 108.7 130.057 107.936 130.057 107C130.057 105.952 130.309 105.104 130.813 104.456C131.325 103.8 132.085 103.472 133.093 103.472C133.981 103.472 134.657 103.804 135.121 104.468C135.585 105.124 135.817 106.028 135.817 107.18H131.197C131.197 107.844 131.353 108.356 131.665 108.716C131.977 109.076 132.433 109.256 133.033 109.256C133.489 109.256 133.873 109.116 134.185 108.836C134.505 108.556 134.665 108.28 134.665 108.008ZM131.197 106.328H134.725C134.645 105.064 134.049 104.432 132.937 104.432C132.457 104.432 132.045 104.624 131.701 105.008C131.365 105.384 131.197 105.824 131.197 106.328ZM136.318 103.652H141.562V104.54H139.474V110H138.406V104.54H136.318V103.652ZM157.202 106.496V107.372H145.082V106.496H157.202ZM162.711 102.704L162.351 105.044C162.807 104.692 163.355 104.516 163.995 104.516C164.739 104.516 165.391 104.764 165.951 105.26C166.511 105.748 166.791 106.408 166.791 107.24C166.791 107.464 166.771 107.692 166.73 107.924C166.691 108.148 166.603 108.404 166.467 108.692C166.331 108.98 166.155 109.236 165.939 109.46C165.731 109.676 165.431 109.856 165.039 110C164.655 110.152 164.211 110.228 163.707 110.228C163.467 110.228 163.235 110.208 163.011 110.168C162.787 110.128 162.555 110.056 162.315 109.952C162.083 109.84 161.875 109.7 161.691 109.532C161.507 109.364 161.347 109.14 161.211 108.86C161.083 108.58 160.999 108.256 160.958 107.888H162.062C162.111 108.36 162.295 108.716 162.615 108.956C162.943 109.188 163.359 109.304 163.863 109.304C164.399 109.304 164.831 109.12 165.159 108.752C165.487 108.376 165.651 107.912 165.651 107.36C165.651 106.768 165.475 106.308 165.123 105.98C164.771 105.644 164.319 105.476 163.767 105.476C163.127 105.476 162.603 105.744 162.195 106.28L161.271 106.232L161.907 101.66H166.323V102.704H162.711ZM170.673 109.268C171.857 109.268 172.449 108.128 172.449 105.848C172.449 103.568 171.857 102.428 170.673 102.428C169.489 102.428 168.897 103.568 168.897 105.848C168.897 108.128 169.489 109.268 170.673 109.268ZM173.517 104.708C173.565 105.076 173.589 105.456 173.589 105.848C173.589 106.24 173.565 106.62 173.517 106.988C173.477 107.356 173.393 107.744 173.265 108.152C173.137 108.552 172.969 108.9 172.761 109.196C172.553 109.492 172.269 109.74 171.909 109.94C171.557 110.132 171.145 110.228 170.673 110.228C170.201 110.228 169.785 110.132 169.425 109.94C169.073 109.74 168.793 109.492 168.585 109.196C168.377 108.9 168.209 108.552 168.081 108.152C167.953 107.744 167.865 107.356 167.817 106.988C167.777 106.62 167.757 106.24 167.757 105.848C167.757 105.456 167.777 105.076 167.817 104.708C167.865 104.34 167.953 103.956 168.081 103.556C168.209 103.148 168.377 102.796 168.585 102.5C168.793 102.204 169.073 101.96 169.425 101.768C169.785 101.568 170.201 101.468 170.673 101.468C171.145 101.468 171.557 101.568 171.909 101.768C172.269 101.96 172.553 102.204 172.761 102.5C172.969 102.796 173.137 103.148 173.265 103.556C173.393 103.956 173.477 104.34 173.517 104.708ZM175.107 105.104C174.707 104.696 174.507 104.204 174.507 103.628C174.507 103.052 174.707 102.568 175.107 102.176C175.515 101.776 176.007 101.576 176.583 101.576C177.151 101.576 177.635 101.776 178.035 102.176C178.435 102.576 178.635 103.06 178.635 103.628C178.635 104.196 178.435 104.684 178.035 105.092C177.635 105.5 177.151 105.704 176.583 105.704C176.007 105.704 175.515 105.504 175.107 105.104ZM175.359 103.628C175.359 103.996 175.475 104.292 175.707 104.516C175.947 104.74 176.235 104.852 176.571 104.852C176.915 104.852 177.203 104.732 177.435 104.492C177.675 104.252 177.795 103.964 177.795 103.628C177.795 103.292 177.675 103.008 177.435 102.776C177.203 102.544 176.919 102.428 176.583 102.428C176.239 102.428 175.947 102.548 175.707 102.788C175.475 103.02 175.359 103.3 175.359 103.628ZM180.807 109.496C180.407 109.088 180.207 108.596 180.207 108.02C180.207 107.444 180.407 106.96 180.807 106.568C181.215 106.168 181.707 105.968 182.283 105.968C182.851 105.968 183.335 106.168 183.735 106.568C184.135 106.968 184.335 107.452 184.335 108.02C184.335 108.588 184.135 109.076 183.735 109.484C183.335 109.892 182.851 110.096 182.283 110.096C181.707 110.096 181.215 109.896 180.807 109.496ZM181.059 108.02C181.059 108.388 181.175 108.684 181.407 108.908C181.647 109.132 181.935 109.244 182.271 109.244C182.615 109.244 182.903 109.124 183.135 108.884C183.375 108.644 183.495 108.356 183.495 108.02C183.495 107.684 183.375 107.4 183.135 107.168C182.903 106.936 182.619 106.82 182.283 106.82C181.939 106.82 181.647 106.94 181.407 107.18C181.175 107.412 181.059 107.692 181.059 108.02ZM182.139 101.48L177.339 110.24H176.691L181.479 101.48H182.139Z" fill="white"/>
<rect x="59" y="125" width="12" height="12" fill="#C4C4C4"/>
<path d="M80.608 130.528H79.54C79.54 130 79.612 129.54 79.756 129.148C79.908 128.756 80.088 128.456 80.296 128.248C80.512 128.04 80.764 127.876 81.052 127.756C81.34 127.628 81.592 127.548 81.808 127.516C82.024 127.484 82.248 127.468 82.48 127.468C83.24 127.468 83.872 127.7 84.376 128.164C84.888 128.628 85.144 129.248 85.144 130.024C85.144 130.4 85.092 130.728 84.988 131.008C84.884 131.28 84.688 131.548 84.4 131.812C84.12 132.068 83.824 132.292 83.512 132.484C83.2 132.676 82.744 132.936 82.144 133.264C81.632 133.544 81.24 133.848 80.968 134.176C80.704 134.504 80.556 134.776 80.524 134.992H85.144V136H79.324C79.38 135.064 79.596 134.324 79.972 133.78C80.356 133.228 81.096 132.668 82.192 132.1C82.832 131.772 83.292 131.464 83.572 131.176C83.86 130.88 84.004 130.48 84.004 129.976C84.004 129.576 83.864 129.22 83.584 128.908C83.312 128.588 82.892 128.428 82.324 128.428C82.02 128.428 81.756 128.488 81.532 128.608C81.308 128.72 81.14 128.848 81.028 128.992C80.924 129.128 80.836 129.316 80.764 129.556C80.7 129.788 80.66 129.96 80.644 130.072C80.628 130.184 80.616 130.336 80.608 130.528ZM87.8863 128.704L87.5263 131.044C87.9823 130.692 88.5303 130.516 89.1703 130.516C89.9143 130.516 90.5663 130.764 91.1263 131.26C91.6863 131.748 91.9663 132.408 91.9663 133.24C91.9663 133.464 91.9463 133.692 91.9063 133.924C91.8663 134.148 91.7783 134.404 91.6423 134.692C91.5063 134.98 91.3303 135.236 91.1143 135.46C90.9063 135.676 90.6063 135.856 90.2143 136C89.8303 136.152 89.3863 136.228 88.8823 136.228C88.6423 136.228 88.4103 136.208 88.1863 136.168C87.9623 136.128 87.7303 136.056 87.4903 135.952C87.2583 135.84 87.0503 135.7 86.8663 135.532C86.6823 135.364 86.5223 135.14 86.3863 134.86C86.2583 134.58 86.1743 134.256 86.1343 133.888H87.2383C87.2863 134.36 87.4703 134.716 87.7903 134.956C88.1183 135.188 88.5343 135.304 89.0383 135.304C89.5743 135.304 90.0063 135.12 90.3343 134.752C90.6623 134.376 90.8263 133.912 90.8263 133.36C90.8263 132.768 90.6503 132.308 90.2983 131.98C89.9463 131.644 89.4943 131.476 88.9423 131.476C88.3023 131.476 87.7783 131.744 87.3703 132.28L86.4463 132.232L87.0823 127.66H91.4983V128.704H87.8863ZM102.584 132.496V133.372H95.8398V132.496H102.584ZM112.277 133.924H111.029V136H109.973V133.924H106.253V132.88L110.153 127.468H111.029V133H112.277V133.924ZM109.949 129.136L107.225 133H109.973V129.136H109.949ZM116.052 135.268C117.236 135.268 117.828 134.128 117.828 131.848C117.828 129.568 117.236 128.428 116.052 128.428C114.868 128.428 114.276 129.568 114.276 131.848C114.276 134.128 114.868 135.268 116.052 135.268ZM118.896 130.708C118.944 131.076 118.968 131.456 118.968 131.848C118.968 132.24 118.944 132.62 118.896 132.988C118.856 133.356 118.772 133.744 118.644 134.152C118.516 134.552 118.348 134.9 118.14 135.196C117.932 135.492 117.648 135.74 117.288 135.94C116.936 136.132 116.524 136.228 116.052 136.228C115.58 136.228 115.164 136.132 114.804 135.94C114.452 135.74 114.172 135.492 113.964 135.196C113.756 134.9 113.588 134.552 113.46 134.152C113.332 133.744 113.244 133.356 113.196 132.988C113.156 132.62 113.136 132.24 113.136 131.848C113.136 131.456 113.156 131.076 113.196 130.708C113.244 130.34 113.332 129.956 113.46 129.556C113.588 129.148 113.756 128.796 113.964 128.5C114.172 128.204 114.452 127.96 114.804 127.768C115.164 127.568 115.58 127.468 116.052 127.468C116.524 127.468 116.936 127.568 117.288 127.768C117.648 127.96 117.932 128.204 118.14 128.5C118.348 128.796 118.516 129.148 118.644 129.556C118.772 129.956 118.856 130.34 118.896 130.708ZM124.197 129.652H128.841V136H127.773V130.54H125.265V133.432C125.265 135.208 124.717 136.096 123.621 136.096C123.389 136.096 123.161 136.064 122.937 136V135.172C123.049 135.188 123.193 135.196 123.369 135.196C123.585 135.196 123.745 135.148 123.849 135.052C123.961 134.956 124.045 134.756 124.101 134.452C124.165 134.148 124.197 133.688 124.197 133.072V129.652ZM134.665 134.008H135.733C135.381 135.456 134.429 136.18 132.877 136.18C132.005 136.18 131.317 135.884 130.813 135.292C130.309 134.7 130.057 133.936 130.057 133C130.057 131.952 130.309 131.104 130.813 130.456C131.325 129.8 132.085 129.472 133.093 129.472C133.981 129.472 134.657 129.804 135.121 130.468C135.585 131.124 135.817 132.028 135.817 133.18H131.197C131.197 133.844 131.353 134.356 131.665 134.716C131.977 135.076 132.433 135.256 133.033 135.256C133.489 135.256 133.873 135.116 134.185 134.836C134.505 134.556 134.665 134.28 134.665 134.008ZM131.197 132.328H134.725C134.645 131.064 134.049 130.432 132.937 130.432C132.457 130.432 132.045 130.624 131.701 131.008C131.365 131.384 131.197 131.824 131.197 132.328ZM136.318 129.652H141.562V130.54H139.474V136H138.406V130.54H136.318V129.652ZM157.202 132.496V133.372H145.082V132.496H157.202ZM162.711 128.704L162.351 131.044C162.807 130.692 163.355 130.516 163.995 130.516C164.739 130.516 165.391 130.764 165.951 131.26C166.511 131.748 166.791 132.408 166.791 133.24C166.791 133.464 166.771 133.692 166.73 133.924C166.691 134.148 166.603 134.404 166.467 134.692C166.331 134.98 166.155 135.236 165.939 135.46C165.731 135.676 165.431 135.856 165.039 136C164.655 136.152 164.211 136.228 163.707 136.228C163.467 136.228 163.235 136.208 163.011 136.168C162.787 136.128 162.555 136.056 162.315 135.952C162.083 135.84 161.875 135.7 161.691 135.532C161.507 135.364 161.347 135.14 161.211 134.86C161.083 134.58 160.999 134.256 160.958 133.888H162.062C162.111 134.36 162.295 134.716 162.615 134.956C162.943 135.188 163.359 135.304 163.863 135.304C164.399 135.304 164.831 135.12 165.159 134.752C165.487 134.376 165.651 133.912 165.651 133.36C165.651 132.768 165.475 132.308 165.123 131.98C164.771 131.644 164.319 131.476 163.767 131.476C163.127 131.476 162.603 131.744 162.195 132.28L161.271 132.232L161.907 127.66H166.323V128.704H162.711ZM170.673 135.268C171.857 135.268 172.449 134.128 172.449 131.848C172.449 129.568 171.857 128.428 170.673 128.428C169.489 128.428 168.897 129.568 168.897 131.848C168.897 134.128 169.489 135.268 170.673 135.268ZM173.517 130.708C173.565 131.076 173.589 131.456 173.589 131.848C173.589 132.24 173.565 132.62 173.517 132.988C173.477 133.356 173.393 133.744 173.265 134.152C173.137 134.552 172.969 134.9 172.761 135.196C172.553 135.492 172.269 135.74 171.909 135.94C171.557 136.132 171.145 136.228 170.673 136.228C170.201 136.228 169.785 136.132 169.425 135.94C169.073 135.74 168.793 135.492 168.585 135.196C168.377 134.9 168.209 134.552 168.081 134.152C167.953 133.744 167.865 133.356 167.817 132.988C167.777 132.62 167.757 132.24 167.757 131.848C167.757 131.456 167.777 131.076 167.817 130.708C167.865 130.34 167.953 129.956 168.081 129.556C168.209 129.148 168.377 128.796 168.585 128.5C168.793 128.204 169.073 127.96 169.425 127.768C169.785 127.568 170.201 127.468 170.673 127.468C171.145 127.468 171.557 127.568 171.909 127.768C172.269 127.96 172.553 128.204 172.761 128.5C172.969 128.796 173.137 129.148 173.265 129.556C173.393 129.956 173.477 130.34 173.517 130.708ZM175.107 131.104C174.707 130.696 174.507 130.204 174.507 129.628C174.507 129.052 174.707 128.568 175.107 128.176C175.515 127.776 176.007 127.576 176.583 127.576C177.151 127.576 177.635 127.776 178.035 128.176C178.435 128.576 178.635 129.06 178.635 129.628C178.635 130.196 178.435 130.684 178.035 131.092C177.635 131.5 177.151 131.704 176.583 131.704C176.007 131.704 175.515 131.504 175.107 131.104ZM175.359 129.628C175.359 129.996 175.475 130.292 175.707 130.516C175.947 130.74 176.235 130.852 176.571 130.852C176.915 130.852 177.203 130.732 177.435 130.492C177.675 130.252 177.795 129.964 177.795 129.628C177.795 129.292 177.675 129.008 177.435 128.776C177.203 128.544 176.919 128.428 176.583 128.428C176.239 128.428 175.947 128.548 175.707 128.788C175.475 129.02 175.359 129.3 175.359 129.628ZM180.807 135.496C180.407 135.088 180.207 134.596 180.207 134.02C180.207 133.444 180.407 132.96 180.807 132.568C181.215 132.168 181.707 131.968 182.283 131.968C182.851 131.968 183.335 132.168 183.735 132.568C184.135 132.968 184.335 133.452 184.335 134.02C184.335 134.588 184.135 135.076 183.735 135.484C183.335 135.892 182.851 136.096 182.283 136.096C181.707 136.096 181.215 135.896 180.807 135.496ZM181.059 134.02C181.059 134.388 181.175 134.684 181.407 134.908C181.647 135.132 181.935 135.244 182.271 135.244C182.615 135.244 182.903 135.124 183.135 134.884C183.375 134.644 183.495 134.356 183.495 134.02C183.495 133.684 183.375 133.4 183.135 133.168C182.903 132.936 182.619 132.82 182.283 132.82C181.939 132.82 181.647 132.94 181.407 133.18C181.175 133.412 181.059 133.692 181.059 134.02ZM182.139 127.48L177.339 136.24H176.691L181.479 127.48H182.139Z" fill="white"/>
<circle cx="119" cy="119" r="114" stroke="#C4C4C4" stroke-width="10"/>
<path d="M119 233C181.96 233 233 181.96 233 119C233 56.0395 181.96 5 119 5" stroke="#DDFF0F" stroke-width="10" stroke-linecap="round"/>
</svg>
