<svg width="185" height="44" viewBox="0 0 185 44" fill="none" xmlns="http://www.w3.org/2000/svg">
<path d="M84.0026 0.650545H79.0376L75.5546 20.2656H81.2374L83.9644 4.9083H100.163C101.036 4.9083 102.869 5.01766 102.869 6.51677C102.869 8.57712 101.127 8.57712 100.028 8.57712H92.5136L92.0012 12.0163C92.0012 12.0163 98.6529 12.0159 99.2943 12.0163C101.715 12.0175 102.508 12.2645 102.411 13.4829C102.327 14.5208 101.861 15.1327 100.482 15.2425H84.7904L84.0788 20.1668C84.0788 20.1668 101.482 20.2383 102.14 20.1469C105.777 19.6411 107.74 17.3732 107.75 13.665C107.755 11.6966 106.997 10.8168 104.975 10.4456L104.279 10.3177L105.014 10.1375C107.525 9.52127 108.904 7.59798 108.918 4.69175C108.93 2.07306 107.583 0.926224 104.209 0.693394C102.836 0.598618 84.6067 0.648853 84.0026 0.650545Z" fill="white"/>
<path d="M159.423 20.2656L154.691 15.4966C157.076 15.423 159.453 14.1371 160.398 11.9046C161.406 9.51717 161.877 6.93318 161.778 4.33933C161.763 1.40964 159.11 0.650588 156.291 0.650588H113.226L112.44 5.30963H152.958C155.252 5.17142 155.626 6.31251 155.626 7.77905C155.626 9.68796 154.976 10.4307 152.96 10.643C152.964 10.643 152.958 10.6432 149.874 10.6416L147.874 8.62493H139.808L151.357 20.2656H159.423Z" fill="white"/>
<path d="M51.4659 0.819048L59.5529 11.6348L63.015 7.4185L58.0863 0.819048H51.4659Z" fill="white"/>
<path d="M146.063 43.1625H152.627L155.502 39.2607H163.473L164.023 35.4433H158.316L163.838 27.9501H168.344L165.673 43.1427H171.584C172.858 36.7353 173.934 30.1845 174.964 23.7338H160.174C160.174 23.7338 150.623 36.9058 146.063 43.1625Z" fill="white"/>
<path d="M96.4878 35.9942C96.6966 34.712 98.5832 23.7487 98.5832 23.7487H104.507L104.462 23.9885C103.823 27.0288 102.526 35.2045 102.551 36.0334C102.619 38.2401 103.318 38.6827 106.962 38.8246C111.265 38.9921 113.178 38.7214 114.229 37.7962C115.161 36.9759 115.433 36.1819 116.062 32.4493L117.331 23.7487H142.015C144.833 23.7487 147.487 24.5077 147.502 27.4374C147.601 30.0313 147.13 32.6153 146.121 35.0027C145.177 37.2352 142.8 38.5211 140.415 38.5947L145.146 43.3637H137.08L125.531 31.723H133.597L135.598 33.7397C138.682 33.7413 138.688 33.7411 138.684 33.7411C140.7 33.5288 141.35 32.786 141.35 30.8771C141.35 29.4106 140.976 28.2695 138.682 28.4077H122.549L121.839 33.1935C120.647 40.0826 119.237 42.2057 115.235 43.1348C114.252 43.3631 102.249 43.4564 100.826 43.2468C98.3881 42.8876 97.068 41.8867 96.5304 39.9896C96.3566 39.3763 96.3308 36.958 96.4878 35.9942Z" fill="white"/>
<path d="M9.64637 23.8236C5.64394 24.1035 3.85472 25.3505 2.95544 28.4868C2.10654 31.4473 2.53013 33.61 4.14466 34.5594C5.41057 35.3038 6.08038 35.3764 12.31 35.4453C18.382 35.5124 18.6571 35.541 19.4179 36.1824C20.0413 36.7081 19.8575 37.7749 19.0846 38.1168C18.4599 38.3932 17.7264 38.4165 9.56474 38.4189L1.53152 38.4213L1.17789 40.7763C0.983373 42.0715 0.846433 43.1449 0.873539 43.1618C1.00507 43.243 19.3665 43.2092 20.0265 43.1264C22.9671 42.7578 24.4934 41.4081 25.31 38.4541C26.3615 34.6497 25.7334 32.5346 23.2904 31.6545C22.0577 31.2104 21.7953 31.1934 15.3652 31.1429C9.65468 31.098 9.43987 31.091 9.14225 30.9398C7.93664 30.3271 8.57152 28.9231 9.52886 28.5112C9.9492 28.3304 17.9101 28.472 17.9101 28.472L34.174 28.4329L37.7219 23.7716L18.4793 23.7853C13.8151 23.7928 9.84027 23.8101 9.64637 23.8236Z" fill="white"/>
<path d="M180.832 42.7891C180.8 42.9497 180.75 43.2004 180.75 43.2004H174.839L178.251 23.7915L184.13 23.8922C184.13 23.8922 182.287 35.4405 180.832 42.7891Z" fill="white"/>
<path d="M59.6657 23.7716L55.9574 43.2003C55.9574 43.2003 61.833 43.286 61.833 43.2003C61.833 43.2003 64.5936 29.0511 64.6329 29.0112C64.6329 29.012 76.1085 42.0903 76.1085 42.0903L89.6423 28.969L87.1607 43.2003H93.0362L96.4049 23.7716H87.8595L76.6255 34.0858L68.2385 23.7716H59.6657Z" fill="white"/>
<path d="M33.6532 43.1625H27.0895L41.2001 23.7338H55.9907C54.961 30.1845 53.8847 36.7353 52.6109 43.1427H46.6997L49.3705 27.9501H44.8644L39.3421 35.4433H45.0498L44.4998 39.2607H36.5287L33.6532 43.1625Z" fill="white"/>
<path d="M109.56 20.2551C109.56 20.2551 111.596 8.67165 111.596 8.67165H135.822L135.127 12.4891H116.979L116.368 15.3566H134.549L133.768 20.2654L109.56 20.2551Z" fill="white"/>
<path d="M63.8958 20.2477L77.4971 0.819048H70.3736L59.7129 15.4657L49.8933 15.4315C48.9234 15.4263 47.9576 15.4218 47.0058 15.4173C39.3282 15.3812 32.5604 15.3494 31.8452 15.0075C30.7439 14.4811 30.5027 13.0765 31.0294 10.2579C31.6299 7.04456 32.2277 6.11458 34.0373 5.57816C34.4766 5.44795 35.2423 5.41459 35.2423 5.41459L47.4517 5.39166L48.3318 0.650588H33.5631C28.0401 0.983587 26.108 3.31105 24.8747 11.009C23.8849 17.1877 24.8571 19.3041 29.0408 20.0779C30.364 20.3227 33.5631 20.2655 33.5631 20.2655C41.6972 20.2655 63.8958 20.2477 63.8958 20.2477Z" fill="white"/>
</svg>
