<svg width="58" height="46" viewBox="0 0 58 46" fill="none" xmlns="http://www.w3.org/2000/svg">
<path d="M28.2473 20.2572C42.7658 19.0831 46.2212 16.7847 46.2212 14.2613C46.2212 11.738 45.3163 10.4047 43.7327 10.0964C42.1492 9.78818 6.23545 10.0964 6.23545 10.0964L7.87603 0.5H28.8017C53.4771 0.602539 53.6834 0.713565 56.3108 3.8262C59.4797 7.58022 57.7448 19.1779 53.2678 24.1676C50.7346 26.9912 48.6637 27.7168 42.1492 28.0639C36.5361 28.3628 19.215 29.607 18.1694 29.7864C16.0576 30.1486 14.4306 32.0959 14.1528 34.594L14.0386 36.139H53.6149L52.0041 45.4867C34.6938 45.4867 17.3805 45.5722 0.0715332 45.3092C0.0715332 45.3092 2.64935 30.7916 3.10429 29.5721C4.2621 26.4671 6.55941 23.9442 9.35622 22.7059C11.8126 21.6186 12.4801 21.5321 28.2473 20.2572Z" fill="#FFF5F5"/>
</svg>
