<svg width="62" height="46" viewBox="0 0 62 46" fill="none" xmlns="http://www.w3.org/2000/svg">
<path d="M6.81947 10.245L8.5325 0.5H53.9218C58.1825 0.5 61.2916 5.43806 61.2916 7.17038C62.3957 19.6314 54.4976 22.8604 54.4976 22.8604C54.4976 22.8604 61.9826 38.6083 49.4308 45.1162C47.5713 45.5482 0.602539 45.4982 0.602539 45.4982L2.29622 35.5367L23.1575 35.4743L44.0186 35.4121L45.1157 34.8718C48.1595 33.373 48.4352 28.6028 45.5326 27.6586C44.9683 27.475 41.0301 27.3608 33.0117 27.2952C22.2185 27.2069 21.3226 27.1696 21.4277 26.8147C21.4901 26.6033 21.8121 24.8237 22.1432 22.8604C22.4742 20.897 22.7955 19.1144 22.857 18.8993C22.9601 18.5393 23.8908 18.5015 34.5301 18.4267C47.2954 18.3369 47.3336 18.3327 48.77 16.8963C50.6956 14.9707 50.4895 12.0368 48.3541 10.9762C47.5119 10.558 46.5812 10.5361 27.1485 10.4753C15.9698 10.4403 6.81947 10.245 6.81947 10.245Z" fill="#FFF5F5"/>
</svg>
