<svg width="60" height="46" viewBox="0 0 60 46" fill="none" xmlns="http://www.w3.org/2000/svg">
<path d="M39.8334 23.9312C30.1921 23.886 4.41761 23.6875 4.41761 23.6875L8.44562 0.5H59.4922C58.9189 3.76446 58.4089 7.04028 57.8839 10.3128L18.3204 10.4509L17.2291 15.3107H29.7704C48.8332 15.3107 51.7046 15.7561 54.4288 19.1362C58.8197 24.5847 54.5672 40.6045 47.9329 43.8624C43.7674 45.9079 41.1119 45.458 41.1119 45.458H0.507568L2.02313 35.791H20.2919C40.8562 35.6608 39.4698 35.673 41.1119 33.7546C42.3345 32.326 42.8969 30.6068 42.9297 28.1959C42.9297 24.192 40.759 23.9312 39.8334 23.9312Z" fill="#FFF5F5"/>
</svg>
