<svg width="40" height="34" viewBox="0 0 40 34" fill="none" xmlns="http://www.w3.org/2000/svg">
<path d="M36.544 1.00388L2.41763 14.2409C0.548466 14.7925 0.605107 16.6793 1.99282 17.1438L10.5457 19.8725L13.8308 30.1486C14.2273 31.2807 14.5672 31.6871 15.2469 31.7162C15.9549 31.7162 16.2381 31.4549 16.9744 30.7872C17.8524 29.9454 19.1551 28.6391 21.2508 26.5491L30.1435 33.2837C31.7861 34.2126 32.9756 33.7191 33.3721 31.7162L38.9512 3.44228C39.5177 1.00388 38.1299 0.278165 36.544 1.00388ZM11.905 19.2629L31.333 6.75154C32.2959 6.08389 32.5791 6.83863 32.1543 7.33212L16.0115 22.1948L15.1902 29.6551L11.905 19.2629Z" fill="white"/>
</svg>
