<svg width="565" height="450" viewBox="0 0 565 450" fill="none" xmlns="http://www.w3.org/2000/svg">
<path d="M0 108.421L297.883 0.000265479L385.44 240.562L328.118 261.425L348.982 318.746L108.42 406.303L0 108.421Z" fill="#DDFF0F"/>
<path d="M328.119 261.425L385.44 240.562L348.982 318.746L328.119 261.425Z" fill="#BEDA12"/>
<path d="M126.984 186.932C126.895 186.453 126.095 186.361 125.808 186.508C124.797 187.004 123.571 190.771 122.434 193.611C121.699 195.453 121.338 197.032 120.719 198.491C119.828 199.667 118.178 200.864 116.469 202.252C115.021 203.418 113.815 204.665 112.649 205.089C113.1 203.521 113.431 202.208 114.015 200.421C115.029 197.242 116.03 194.963 116.911 192.471C117.641 190.502 118.899 188.81 118.762 187.966C118.669 187.361 117.982 186.76 117.394 187.017C116.943 187.181 115.96 188.688 114.579 190.51C112.844 192.759 110.63 195.566 109.209 197.743C105.677 203.243 104 206.237 104.373 207.846C104.531 208.513 105.101 208.56 105.658 208.57C106.253 208.567 106.854 208.348 106.977 207.75C107.066 207.292 106.478 207.08 106.389 206.602C106.184 205.57 108.834 200.689 110.884 197.9C112.787 195.292 114.59 193.23 114.847 192.882C114.608 193.863 113.617 196.522 112.948 198.425C112.009 201.108 111.084 204.765 110.36 206.519C109.947 207.137 109.489 207.049 108.987 207.189C108.559 207.302 108.32 207.814 108.433 208.242C108.574 208.744 108.926 208.658 109.712 208.713C109.384 209.683 109.097 210.299 108.694 211.297C108.113 212.742 107.16 214.451 107.178 215.084C107.181 215.678 107.988 215.555 108.531 215.528C109.239 215.483 109.815 213.442 110.485 212.007C111.274 210.315 111.56 208.764 112.11 207.584C112.346 207.413 113.217 206.883 113.901 206.422C115.305 205.485 116.06 204.87 117.372 203.796C118.585 202.801 119.61 201.875 120.413 201.157C120.29 202.223 119.877 204.715 119.895 206.283C119.868 208.549 119.998 210.077 120.108 210.377C120.573 211.655 121.971 212.338 123.061 211.942C124.752 211.326 125.941 209.914 127.106 208.086C127.919 206.811 130.382 203.403 130.413 203.136C130.488 202.641 130.019 202.173 129.606 202.323C129.117 202.501 126.965 205.711 125.896 207.334C125.179 208.404 124.017 209.891 123.04 210.247C122.551 210.425 122.008 209.984 121.83 209.495C121.611 208.894 121.611 207.021 121.644 205.476C121.722 202.298 122.326 200.333 123.043 197.39C123.671 194.906 124.453 192.961 125.133 191.437C126.014 189.413 127.117 187.649 126.984 186.932ZM140.462 198.542C140.295 197.965 139.97 198.125 139.745 198.207C139.294 198.371 137.183 201.694 135.345 203.895C133.654 205.915 132.68 206.866 132.14 207.02C131.675 207.146 130.869 207.27 130.664 206.706C130.486 206.217 130.414 205.903 130.499 205.318C131.282 204.778 132.361 204.002 133.294 202.939C134.435 201.63 135.514 199.917 134.96 198.161C134.601 197.057 133.203 195.906 132.075 196.316C131.136 196.658 130.268 197.783 129.575 200.206C128.882 202.629 128.709 206.013 129.215 207.403C129.612 208.493 131.464 209.139 132.462 208.605C133.46 208.072 135.496 206.181 136.848 204.284C138.14 202.452 140.712 199.345 140.462 198.542ZM133.429 198.633C133.853 199.798 133.362 200.318 132.918 201.203C132.354 202.345 131.237 203.134 130.601 203.493C130.69 203.035 130.997 201.306 131.154 200.568C131.376 199.423 132.001 198.216 132.452 198.052C132.865 197.902 133.306 198.295 133.429 198.633ZM164.867 190C164.757 189.699 164.498 189.453 164.197 189.563C163.783 189.713 162.776 191.272 161.778 192.742C160.743 194.225 159.756 195.606 159.53 195.688C159.359 194.984 159.233 194.52 159.031 194.082C158.173 192.309 156.256 192.538 155.524 192.634C155.828 191.715 156.06 190.949 156.528 189.545C157.088 187.808 157.559 186.53 157.183 185.731C156.834 185.006 156.448 184.764 155.748 185.061C154.972 185.386 152.874 186.405 151.811 187.345C150.626 188.415 149.721 189.553 149.912 190.08C150.035 190.418 150.254 190.551 150.76 190.537C151.177 190.513 151.638 189.324 152.502 188.541C153.479 187.717 154.737 186.962 154.962 186.879C155.564 186.661 155.656 186.797 155.755 187.187C155.841 187.539 155.226 189.125 154.779 190.352C154.249 191.821 152.951 194.337 153.078 194.802C153.177 195.191 153.611 195.331 153.953 195.334C154.421 195.334 154.503 194.624 154.992 194.446C156.42 193.926 157.48 194.264 157.958 195.579C158.136 196.068 158.219 197.698 158.082 198.259C157.375 199.24 154.13 203.188 152.179 206.366C149.392 210.871 146.366 216.357 147.327 219.115C148.083 221.309 150.485 222.179 152.669 221.512C154.665 220.914 157.07 218.634 158.538 215.886C159.621 213.831 160.297 210.776 160.341 208.674C160.439 205.318 159.918 200.613 159.825 198.135C160.225 197.479 161.089 196.228 161.82 195.195C162.636 194.047 164.966 190.39 164.867 190ZM158.486 200.07C158.74 202.872 158.942 205.65 158.898 207.752C158.766 212.184 158.066 213.887 157.062 215.572C156.191 217.038 154.387 219.567 152.429 220.152C151.312 220.474 149.562 220.345 148.957 219.032C147.719 216.333 151.056 211.117 153.656 206.68C155.288 203.915 157.745 201.191 158.486 200.07ZM185.577 182.633C185.426 182.219 185.187 181.795 184.75 181.997C184.237 182.226 181.795 185.925 180.312 187.699C178.119 190.327 176.51 191.637 175.683 191.938C175.006 192.184 174.48 191.907 174.199 191.371C173.799 190.623 174.079 190.223 174.154 188.791C174.588 187.994 174.967 187.048 175.322 186.152C175.892 184.795 176.227 183.609 176.152 183.168C176.049 182.652 175.311 182.495 174.771 182.649C174.105 182.807 174.781 183.029 173.9 184.116C173.65 183.781 173.237 182.995 172.413 182.486C171.343 181.769 169.778 181.444 168.599 181.831C167.495 182.19 165.794 185.236 164.763 187.782C163.656 190.356 162.888 193.274 163.381 194.627C164.092 196.582 165.808 196.383 166.484 196.137C167.161 195.891 168.801 194.783 169.993 193.498C170.67 192.783 171.698 191.515 172.296 190.702C172.429 191.419 172.809 192.345 173.072 192.718C173.769 193.698 175.253 193.797 176.004 193.523C177.508 192.976 179.903 190.785 181.549 188.525C183.367 186.034 185.686 182.933 185.577 182.633ZM172.502 184.837C172.708 185.401 172.797 185.879 172.933 186.255C172.469 187.786 170.915 190.183 169.022 192.234C168.052 193.31 166.805 194.445 166.34 194.572C165.561 194.77 165.257 194.753 164.884 194.08C164.604 193.544 165.317 190.475 166.099 188.53C167.001 186.329 168.521 183.605 169.372 183.252C170.373 182.845 172.242 184.123 172.502 184.837ZM217.987 148.999C218.014 148.606 216.347 149.171 214.618 149.8C213.302 150.279 211.764 150.966 210.613 151.428C208.159 152.406 203.201 154.806 201.722 155.771C199.757 157.039 197.943 158.721 197.407 159.47C196.894 160.167 195.675 161.377 194.518 168.14C194.068 170.646 194.158 174.401 192.987 178.318C192.246 180.844 190.688 183.581 190.074 184.699C189.449 185.906 188.379 187.061 187.651 187.283C186.736 187.574 185.98 186.785 185.741 185.893C185.446 184.851 186.177 182.414 187.277 180.524C187.916 179.355 189.005 178.022 189.467 177.769C189.853 177.543 190.201 177.799 190.625 178.028C190.984 178.196 191.087 178.712 191.476 178.612C191.866 178.513 192.122 178.164 192.047 177.724C191.92 176.791 190.228 176.002 189.2 176.334C188.472 176.556 186.801 178.398 185.773 180.135C184.506 182.384 183.639 185.381 184.189 186.543C184.955 188.18 186.432 189.43 188.246 188.684C189.61 188.103 190.334 187.286 191.29 185.704C192.462 183.66 193.589 181.376 194.275 179.169C195.45 175.378 195.698 171.499 196.261 168.017C196.657 165.83 197.21 162.904 198.426 160.631C199.645 158.953 199.884 158.908 202.665 156.96C204.702 155.537 212.916 151.909 215.007 151.105C216.347 150.575 216.398 150.599 217.434 150.052C217.857 149.813 217.973 149.43 217.987 148.999ZM223.484 168.665C223.32 168.214 223.167 168.142 222.739 168.255C222.087 168.45 219.99 172.278 217.772 174.49C216.43 175.83 215.049 177.184 213.611 177.792C212.798 178.131 212.182 177.376 212.018 176.925C211.813 176.361 212.253 174.881 212.735 173.514C213.1 172.53 214.354 170.711 214.162 170.185C214.053 169.884 213.434 169.471 212.884 169.714C212.546 169.837 212.067 170.394 211.634 171.191C211.09 172.154 210.568 173.409 210.165 173.939C209.731 174.267 208.993 174.578 208.292 174.876C207.643 175.197 207.199 175.614 206.57 175.758C206.082 175.467 205.736 175.338 205.189 175.239C204.591 175.116 204.386 175.02 203.645 175.205L204.034 173.701C204.386 172.679 204.478 171.411 204.259 170.81C204.094 170.359 203.442 170.086 202.98 170.339C202.519 170.592 201.242 173.398 200.391 174.686C199.64 175.896 197.313 178.276 197.365 178.768C197.43 179.297 197.765 179.516 198.294 179.451C198.773 179.362 199.131 178.593 199.695 177.92C200.088 177.479 200.498 177.202 200.829 176.826C200.249 178.271 198.896 181.105 199.225 182.007C199.539 182.871 200.626 183.753 202.041 183.195C203.869 182.487 204.306 181.817 205.232 180.502C205.987 179.418 206.349 178.307 206.571 177.63C207.268 177.207 208.211 176.523 208.662 176.359C209.226 176.153 209.55 175.993 210.036 175.688C209.896 176.591 210.115 177.192 210.269 177.732C210.566 178.901 211.903 180.117 213.707 179.46C215.662 178.749 217.476 177.067 219.256 175.057C220.912 173.177 223.69 169.229 223.484 168.665ZM204.445 177.638C204.65 178.202 204.258 179.111 203.797 179.832C203.311 180.605 202.495 181.285 202.068 181.398C201.829 181.442 201.367 181.695 201.124 181.145C200.909 180.67 201.483 179.44 202.087 178.411C202.354 177.973 202.62 177.536 202.764 177.228C202.955 177.286 203.307 177.201 203.7 177.228C204.004 177.245 204.349 177.375 204.445 177.638ZM259.949 154.882C259.881 154.694 259.658 154.435 259.457 154.465C258.613 154.602 256.693 158.451 254.497 160.953C252.508 163.209 250.704 164.802 249.577 165.213C248.938 165.445 248.599 165.1 248.367 164.461C248.161 163.897 248.554 162.052 248.714 160.504C248.908 158.815 249.742 157.363 249.28 156.211C248.887 155.248 247.916 154.92 246.724 155.269C245.418 155.659 243.314 158.766 241.988 159.802C241.906 159.576 241.718 159.176 241.455 158.804C240.966 158.045 240.084 157.26 238.393 157.875C236.664 158.505 231.891 163.051 231.102 164.275C230.715 163.564 229.382 162.474 228.408 162.957C227.284 163.493 225.268 164.738 224.09 166.061C222.788 167.514 221.152 169.684 221.323 170.388C221.436 170.815 221.942 170.802 222.396 170.764C222.977 170.723 223.916 168.508 225.136 167.298C226.219 166.18 227.377 165.035 228.279 164.706C228.73 164.542 229.205 164.795 229.407 165.232C229.732 166.008 228.875 167.512 228.267 168.882C227.778 169.997 227.04 171.244 227.311 171.87C227.499 172.269 227.94 172.662 228.418 172.573C229.324 172.371 229.641 171.021 230.099 170.174C230.867 168.66 231.198 167.347 232.25 165.56C232.988 164.312 234.905 162.21 236.302 161.02C237.638 159.895 238.714 159.461 238.94 159.379C239.429 159.201 240.027 159.324 240.232 159.888C240.396 160.339 240.506 161.576 239.659 163.459C239.218 164.471 238.03 166.351 238.334 166.836C238.638 167.321 239.151 167.56 239.639 167.382C240.203 167.177 240.558 166.282 240.896 165.222C241.152 164.405 241.487 163.219 242.051 162.078C243.004 160.837 246.167 157.132 246.82 156.937C247.172 156.851 247.63 156.94 247.79 157.264C248.061 157.89 247.244 159.506 247.081 160.928C246.873 162.579 246.74 164.67 246.891 165.084C247.41 166.512 248.884 167.168 249.946 166.696C251.333 166.063 253.356 164.603 255.536 161.937C257.152 159.944 260.216 155.849 259.949 154.882ZM266.052 153.895C265.471 153 264.043 153.052 263.277 153.288C262.823 153.325 262.437 153.551 262.074 153.726C262.156 153.015 262.347 152.136 262.624 151.142C262.822 150.048 263.638 148.9 263.395 148.35C263.166 147.837 262.821 147.707 262.349 148.049C262.076 148.234 261.523 149.286 261.093 150.677C260.779 151.686 260.454 152.783 260.106 153.931C258.764 156.208 258.067 158.036 258.59 159.591C259.158 161.385 261.943 161.903 263.498 160.912C265.463 159.644 267.304 155.696 266.052 153.895ZM264.857 155.054C265.557 156.161 263.949 158.875 262.801 159.463C261.991 159.928 260.945 159.628 260.456 158.869C259.94 158.036 260.811 157.037 260.882 156.415C261.244 155.773 261.993 155.373 262.779 154.959C263.602 154.532 264.525 154.494 264.857 155.054ZM156.601 235.065C156.454 234.778 156.539 234.662 156.088 234.826C155.637 234.99 153.092 239.109 151.196 241.033C150.014 242.23 149.078 242.698 148.039 243.119C146.662 243.663 145.23 242.652 144.977 242.19C144.765 241.842 144.481 241.647 144.546 241.24C145.769 239.689 146.606 238.362 147.545 237.084C148.679 235.522 150.353 233.806 150.175 233.317C150.08 233.054 149.793 232.733 149.516 232.791C148.672 232.928 147.391 235.139 146.117 236.667C145.013 237.963 144.026 239.812 143.349 240.058C143.031 239.067 143.468 237.929 143.007 236.778C142.719 235.988 141.383 235.709 140.484 236.163C139.087 236.885 136.965 239.36 136.043 240.334C135.083 241.322 132.145 245.413 132.169 245.83C132.21 246.411 132.675 246.285 133.242 246.206C133.772 246.141 135.852 242.617 137.301 240.983C138.565 239.544 140.123 237.742 140.751 237.599C141.305 237.482 141.551 237.691 141.702 238.104C142.03 239.006 141.074 241.525 140.329 243.456C139.834 244.786 138.212 247.93 138.567 248.439C138.817 248.774 139.323 248.76 139.736 248.61C140.338 248.391 140.836 245.783 141.259 245.076C141.874 243.958 142.462 243.233 142.933 242.423C143.542 242.926 144.092 243.619 144.594 243.947C145.705 244.777 146.813 245.013 148.354 244.452C150.008 243.85 150.998 243.063 152.331 241.812C154.306 239.987 156.963 235.827 156.601 235.065ZM177.014 227.976C176.84 227.614 176.57 227.456 176.221 227.668C175.873 227.88 173.762 231.671 172.798 233.001C171.774 234.395 170.67 235.223 170.031 235.455C168.903 235.866 168.288 235.579 167.823 234.301C167.303 232.872 168.048 231.409 168.56 228.839C168.727 228.012 169.143 227.052 169.044 226.194C168.979 225.664 168.299 225.784 167.848 225.948C167.096 226.222 166.618 227.716 166.324 228.546C166.103 229.223 165.877 229.773 165.614 230.337C165.167 230.628 163.943 230.775 163.379 230.98C162.44 231.322 162.18 231.544 161.274 231.746C161.431 231.008 161.575 230.232 161.164 229.573C160.952 229.224 160.628 228.917 160.238 229.016C158.943 229.317 157.966 231.546 157.304 232.766C155.616 235.849 153.515 237.21 154.113 238.269C154.233 238.481 154.53 238.713 154.756 238.631C155.668 238.214 157.345 235.22 158.377 234.078C158.289 235.004 157.971 236.822 157.647 237.919C157.323 239.016 156.4 240.927 157.04 241.631C157.197 241.829 157.457 241.607 157.696 241.562C158.677 241.333 159.486 238.059 159.868 236.77C160.254 235.608 160.431 234.692 160.701 233.913C161.278 233.746 162.642 233.164 163.503 232.723C164.077 232.429 165.061 232.326 165.738 232.08C165.738 232.548 165.68 233.676 166.094 234.93C166.627 236.396 167.769 237.896 170.1 237.048C171.227 236.637 172.738 235.406 174.029 233.574C175.101 232.077 177.281 228.475 177.014 227.976ZM187.225 223.535C186.596 221.806 184.815 221.007 182.71 221.773C181.507 222.211 179.95 223.544 178.504 225.305C178.163 225.77 177.982 226.559 177.627 226.986C177.288 227.11 176.786 227.25 176.492 227.612C175.611 228.699 175.519 230.435 175.824 231.389C176.309 232.957 178.005 234.341 180.738 233.431C182.331 232.894 184.579 231.352 185.897 229.127C187.035 227.223 187.786 225.077 187.225 223.535ZM185.715 223.83C186.317 225.484 185.357 227.408 184.394 228.738C183.283 230.248 181.787 231.517 180.622 231.941C179.269 232.433 177.737 231.969 177.368 230.954C177.259 230.654 177.262 228.907 178.198 228.439C178.635 228.237 178.827 228.295 179.175 228.083C179.845 227.584 179.657 226.716 180.118 225.995C180.989 224.528 182.178 223.585 183.394 223.185C184.235 222.921 185.291 222.665 185.715 223.83ZM211.727 215.256C211.604 214.918 211.184 214.815 210.859 214.976C210.572 215.123 207.747 219.174 206.951 220.144C205.728 221.696 204.105 222.968 203.842 223.064C203.504 223.187 203.473 222.985 203.432 222.873C203.227 222.309 203.517 220.884 203.752 219.776C203.998 218.58 204.435 216.974 204.079 215.996C203.723 215.019 203.04 214.544 202.049 214.862C200.87 215.249 200.081 216.004 198.967 216.921C198.348 217.444 198.27 217.813 197.436 218.329C197.402 217.533 197.433 217.266 197.135 216.566C196.824 215.828 196.079 215.418 195.365 215.678C193.861 216.225 192.57 218.057 191.203 219.917C189.898 221.711 188.119 224.189 188.505 224.9C188.666 225.225 189.038 225.43 189.353 225.358C189.78 225.245 190.982 222.466 192.29 220.798C193.305 219.492 194.388 217.906 195.064 217.66C195.403 217.537 195.659 217.656 195.762 218.172C196.046 219.303 195.465 221.686 194.581 224.051C194.168 225.138 193.273 226.655 192.607 227.749C192.098 228.573 191.671 229.154 191.739 229.342C191.982 229.892 192.638 230.292 193.229 230.161C194.501 229.912 195.433 226.039 196.235 224.385C197.167 222.386 197.926 220.96 198.64 219.764C199.681 218.065 201.226 216.694 201.94 216.435C202.316 216.298 202.34 216.246 202.528 216.646C202.801 217.398 202.511 218.823 202.173 220.351C201.88 221.65 201.498 223.406 201.744 224.083C201.935 224.609 203.016 225.238 203.617 225.019C204.933 224.54 206.371 222.995 207.744 221.388C208.933 219.976 211.96 215.895 211.727 215.256ZM233.355 207.129C233.207 206.842 233.293 206.726 232.842 206.89C232.391 207.054 229.846 211.173 227.95 213.097C226.768 214.294 225.832 214.762 224.793 215.183C223.416 215.727 221.984 214.716 221.731 214.254C221.519 213.906 221.235 213.711 221.3 213.304C222.523 211.752 223.36 210.426 224.299 209.148C225.433 207.586 227.107 205.87 226.929 205.381C226.833 205.118 226.546 204.797 226.27 204.855C225.425 204.992 224.145 207.203 222.87 208.731C221.767 210.027 220.78 211.876 220.103 212.122C219.785 211.131 220.222 209.993 219.76 208.842C219.473 208.052 218.137 207.772 217.238 208.227C215.841 208.949 213.719 211.424 212.797 212.398C211.837 213.386 208.899 217.477 208.923 217.894C208.964 218.475 209.429 218.349 209.996 218.27C210.526 218.205 212.606 214.681 214.055 213.047C215.319 211.608 216.876 209.806 217.505 209.662C218.059 209.546 218.305 209.754 218.455 210.168C218.784 211.07 217.828 213.589 217.083 215.52C216.588 216.85 214.966 219.994 215.321 220.503C215.571 220.838 216.077 220.824 216.49 220.674C217.091 220.455 217.59 217.847 218.013 217.14C218.628 216.022 219.216 215.297 219.687 214.487C220.295 214.989 220.846 215.683 221.348 216.011C222.459 216.841 223.567 217.076 225.108 216.516C226.761 215.914 227.752 215.127 229.085 213.876C231.059 212.051 233.717 207.891 233.355 207.129ZM252.702 200.853C252.633 200.665 252.179 200.235 251.854 200.396C251.191 200.679 248.414 204.627 247.058 206.398C245.934 207.871 244.257 210.397 243.526 211.429C243.31 210.486 243.31 209.082 243.292 207.513C243.309 206.273 243.5 204.926 243.701 203.959C244.097 202.708 244.838 201.587 245.477 200.418C245.996 199.505 247.359 197.519 247.233 197.055C247.079 196.515 246.323 196.194 245.797 196.385C245.346 196.549 244.137 198.139 243.502 199.434C242.829 200.743 242.59 201.724 242.156 202.989C240.602 205.853 237.127 208.82 234.947 209.614C234.496 209.778 233.809 209.645 233.669 209.143C233.125 207.297 235.414 204.932 235.185 204.419C234.983 203.982 234.59 203.955 234.112 204.044C233.469 204.15 231.198 208.084 231.988 209.67C232.631 210.968 232.949 211.959 235.618 210.988C237.234 210.399 240.172 208.181 241.59 206.345C241.727 207.657 241.423 209.513 241.502 210.548C241.643 212.455 241.432 214.448 241.422 215.941C240.52 217.674 238.888 220.907 237.077 224.589C235.192 228.297 233.034 232.658 233.895 235.026C234.456 236.567 235.953 236.704 237.019 236.358C238.776 235.804 239.878 231.699 241.029 228.429C242.603 223.982 242.602 218.364 242.98 216.481C243.653 214.703 245.644 211.169 247.858 207.895C249.013 206.155 252.907 201.417 252.702 200.853ZM241.074 219.899C240.808 221.741 240.058 225.76 239.43 228.244C238.815 230.767 237.234 234.492 236.37 234.807C236.144 234.889 235.56 234.804 235.426 234.554C234.958 233.618 236.679 229.458 237.96 226.311C238.991 223.764 240.473 221.054 241.074 219.899ZM262.227 173.293C262.076 172.88 261.536 172.566 261.273 172.662C260.709 172.867 259.464 178.215 258.497 181.76C257.944 183.749 257.405 185.775 257.146 186.934C256.501 190.191 256.269 191.893 256.577 192.505C256.751 192.867 257.11 193.034 257.499 192.935C257.851 192.849 258.182 190.132 258.711 187.726C259.141 185.867 259.708 183.916 260.203 182.118C261.237 178.293 262.459 173.932 262.227 173.293ZM257.909 203.3C257.448 202.616 256.877 202.101 256.06 202.313C255.055 202.593 255.22 203.981 255.552 205.009C255.788 205.775 256.072 206.438 256.823 206.632C258.136 206.963 258.648 204.393 257.909 203.3Z" fill="black"/>
<path d="M493.562 411.672L520.547 422.03L483.204 438.658L493.562 411.672Z" fill="#BEDA12"/>
<path d="M423.78 254.954L564.016 308.78L520.548 422.03L493.563 411.673L483.205 438.658L369.955 395.19L423.78 254.954Z" fill="#DDFF0F"/>
<path d="M458.223 318.686C458.264 318.064 457.973 317.49 457.361 317.39C456.453 317.241 454.359 318.641 453.243 319.391C450.92 320.956 449.441 322.436 448.454 323.146C447.482 323.757 446.274 324.451 444.921 325.162C444.189 325.548 442.367 326.405 442.371 326.629C442.381 326.813 442.47 327.01 442.612 327.013C442.875 327.015 443.853 326.486 444.625 326.106C445.199 325.815 445.478 325.597 446.089 325.333C445.614 325.883 445.198 326.322 444.67 326.944C443.939 327.818 443.743 328.272 443.522 329.249C443.402 329.736 444.029 330.366 444.285 330.408C445.331 330.579 446.283 330.087 447.294 329.239C448.278 328.427 449.277 327.273 449.374 326.681C449.416 326.425 448.935 325.9 448.484 325.806C447.879 325.666 446.873 325.866 446.479 325.923C446.77 325.505 447.2 325.109 447.715 324.687C448.276 324.232 448.883 323.986 449.277 323.686C451.002 323.178 453.574 322.323 455.307 321.39C456.995 320.491 458.194 319.107 458.223 318.686ZM457.466 318.603C457.1 319.232 456.142 320.129 454.701 320.886C453.503 321.52 451.749 322.206 450.231 322.687C450.936 321.972 452.265 320.912 453.741 319.938C454.929 319.119 456.863 317.957 457.29 318.067C457.484 318.119 457.581 318.398 457.466 318.603ZM448.48 326.697C448.432 327.115 447.593 328.031 446.819 328.674C445.976 329.367 445.201 329.767 444.701 329.726C444.461 329.707 444.276 329.474 444.292 329.254C444.321 328.954 444.552 328.283 445.037 327.673C445.476 327.097 445.679 326.968 445.843 326.833C446.274 326.68 447.743 326.374 448.253 326.477C448.371 326.497 448.499 326.579 448.48 326.697ZM466.024 322.598C466.112 322.308 465.805 321.954 465.483 321.942C465.2 321.936 463.365 324.351 462.091 325.946C460.39 328.039 457.943 331.104 457.848 331.433C457.79 331.667 457.981 331.86 458.228 331.961C458.781 332.173 461.234 328.583 463.062 326.328C464.255 324.862 465.929 322.927 466.024 322.598ZM472.426 324.498C472.533 323.846 471.778 323.257 471.225 323.166C470.022 322.969 468.846 323.587 467.658 324.163C466.623 324.662 465.6 325.71 465.559 326.332C465.528 326.894 465.826 327.429 466.694 327.572C467.444 327.694 468.778 327.224 469.494 327.057C469.009 327.789 468.387 328.497 467.653 329.39C467.122 330.033 466.598 330.636 466.25 331.025C465.118 331.874 463.715 332.029 463.602 332.72C463.559 332.976 463.816 333.14 464.073 333.182C464.389 333.234 464.996 332.745 465.432 332.553C466.198 332.212 466.825 331.971 467.299 332.048C467.91 332.148 468.194 332.276 468.398 332.512C468.639 332.774 468.788 333.103 468.946 333.129C469.242 333.177 469.645 332.817 469.674 332.64C469.768 332.067 469.119 331.576 468.619 331.413C468.155 331.276 467.727 331.287 467.388 331.252C467.985 330.458 468.594 329.707 469.079 329.097C469.787 328.24 470.563 327.334 471.045 326.744C471.953 325.778 472.294 325.307 472.426 324.498ZM471.17 324.495C471.086 325.129 470.473 325.657 469.787 326.011C468.772 326.514 467.149 327.018 466.744 326.769C466.543 326.635 466.49 326.343 466.571 326.092C466.744 325.533 467.473 325.166 468.166 324.773C469.082 324.254 470.363 323.856 470.801 324.029C470.972 324.097 471.196 324.337 471.17 324.495ZM479.589 327.13C479.644 326.794 479.525 326.531 479.219 326.421C478.913 326.31 478.621 326.485 478.438 326.738C478.307 326.92 478.343 327.067 478.268 327.278C478.089 327.755 477.803 328.013 477.679 328.398C477.608 328.589 477.819 328.907 478.069 328.988C478.55 329.148 479.531 327.485 479.589 327.13ZM475.186 332.488C475.168 332.101 474.993 331.808 474.631 331.668C474.094 331.479 473.511 331.951 473.459 332.51C473.412 333.049 473.87 333.59 474.406 333.536C474.899 333.495 475.226 332.982 475.186 332.488ZM489.781 326.893C489.937 326.068 489.274 325.29 488.662 325.19C488.228 325.119 487.347 325.299 487.039 325.573C486.473 325.683 485.955 326.125 485.562 326.547C484.949 327.197 484.049 328.61 483.056 329.846C481.496 331.819 480.278 333.444 480.064 334.503C479.96 335.013 480.567 335.518 481.099 335.605C481.77 335.715 483.117 335.287 484.161 334.607C485.772 333.553 486.057 333.053 487.047 331.837C488.442 330.12 489.571 328.055 489.781 326.893ZM488.86 326.824C488.751 327.495 487.789 329.283 486.813 330.663C486.286 331.408 485.791 331.955 485.319 332.486C484.129 333.811 482.461 334.713 481.649 334.601C481.471 334.572 481.451 334.325 481.477 334.167C481.58 333.657 483.684 331.083 484.614 329.858C484.824 329.568 485.538 328.55 486.16 327.719C486.563 327.238 486.858 326.922 487.193 326.612C487.547 326.305 488.188 326.106 488.405 326.141C488.543 326.164 488.941 326.33 488.86 326.824ZM497.954 328.232C498.109 327.406 497.446 326.629 496.834 326.528C496.4 326.457 495.519 326.637 495.211 326.911C494.646 327.021 494.128 327.463 493.734 327.885C493.121 328.535 492.221 329.948 491.228 331.184C489.669 333.158 488.45 334.782 488.236 335.841C488.132 336.351 488.739 336.856 489.272 336.943C489.943 337.053 491.29 336.625 492.333 335.945C493.945 334.891 494.229 334.391 495.219 333.175C496.615 331.458 497.743 329.393 497.954 328.232ZM497.033 328.162C496.923 328.833 495.961 330.621 494.985 332.002C494.458 332.746 493.963 333.293 493.491 333.824C492.302 335.149 490.634 336.052 489.821 335.939C489.644 335.91 489.623 335.663 489.649 335.505C489.753 334.995 491.856 332.421 492.787 331.196C492.996 330.906 493.71 329.888 494.333 329.057C494.736 328.576 495.031 328.26 495.365 327.95C495.719 327.643 496.36 327.444 496.577 327.479C496.715 327.502 497.114 327.669 497.033 328.162ZM451.271 347.988C451.323 347.794 451.27 347.501 451.066 347.508C450.78 347.522 449.001 348.366 447.591 348.682C446.349 348.965 444.922 349.137 444.357 349.125C443.913 349.114 443.586 348.756 443.716 348.088C443.794 347.736 444.471 346.692 445.058 346.079C446.324 344.786 447.527 344.618 447.888 344.637C448.148 344.659 448.11 345.018 448.147 345.287C448.247 345.912 447.581 346.512 447.5 346.762C447.451 346.937 447.511 347.19 447.705 347.242C448.116 347.329 448.775 346.404 448.904 345.736C449.05 344.969 448.863 344.006 448.09 343.9C446.824 343.713 445.088 345.03 444.544 345.508C444.022 345.97 442.891 347.183 442.815 348.143C442.742 349.084 443.415 349.68 444.161 349.823C444.691 349.93 446.545 349.747 448.007 349.358C449.344 348.99 451.216 348.202 451.271 347.988ZM456.928 348.245C457.077 347.337 456.496 346.553 455.391 346.372C454.759 346.269 453.754 346.469 452.693 346.883C452.43 347.002 452.158 347.302 451.899 347.401C451.721 347.372 451.468 347.311 451.251 347.397C450.601 347.655 450.136 348.39 450.035 348.88C449.863 349.683 450.264 350.701 451.679 350.973C452.504 351.128 453.862 351.006 454.981 350.358C455.943 349.807 456.796 349.055 456.928 348.245ZM456.198 348.004C456.056 348.873 455.166 349.477 454.421 349.821C453.567 350.208 452.604 350.395 451.992 350.295C451.282 350.178 450.728 349.601 450.815 349.068C450.841 348.91 451.269 348.15 451.792 348.174C452.032 348.193 452.102 348.266 452.306 348.258C452.72 348.205 452.85 347.78 453.227 347.579C453.966 347.152 454.715 347.032 455.344 347.155C455.775 347.246 456.298 347.392 456.198 348.004ZM464.566 349.922C464.592 349.764 464.539 349.593 464.381 349.567C464.164 349.531 463.343 349.964 462.548 350.361C461.734 350.755 460.966 351.115 460.847 351.096C460.945 350.747 461.003 350.514 461.022 350.274C461.082 349.29 460.19 348.921 459.848 348.784C460.205 348.458 460.494 348.181 461.041 347.683C461.71 347.063 462.229 346.62 462.26 346.18C462.285 345.779 462.176 345.578 461.798 345.537C461.38 345.488 460.216 345.419 459.523 345.569C458.744 345.746 458.071 346.021 458.026 346.297C457.997 346.475 458.059 346.586 458.283 346.704C458.471 346.796 458.963 346.39 459.531 346.26C460.159 346.14 460.892 346.118 461.011 346.137C461.326 346.189 461.333 346.271 461.281 346.465C461.232 346.64 460.576 347.181 460.081 347.606C459.491 348.118 458.309 348.897 458.251 349.131C458.199 349.325 458.354 349.492 458.502 349.577C458.706 349.692 458.916 349.402 459.172 349.444C459.922 349.566 460.301 349.973 460.188 350.664C460.146 350.92 459.783 351.651 459.587 351.862C459.038 352.117 456.657 353.045 455.029 353.953C452.711 355.236 450.049 356.887 449.794 358.325C449.587 359.466 450.421 360.434 451.537 360.677C452.553 360.905 454.16 360.499 455.473 359.66C456.447 359.029 457.49 357.862 458.023 356.957C458.887 355.517 459.811 353.338 460.377 352.235C460.712 352.047 461.395 351.713 461.966 351.441C462.603 351.14 464.514 350.116 464.566 349.922ZM459.32 352.751C458.745 354.035 458.153 355.296 457.62 356.202C456.478 358.102 455.756 358.673 454.906 359.162C454.167 359.588 452.762 360.25 451.765 360.026C451.199 359.893 450.468 359.408 450.525 358.688C450.646 357.208 453.377 355.75 455.596 354.452C456.984 353.645 458.722 353.058 459.32 352.751ZM478.93 342.343C478.971 341.721 478.68 341.147 478.068 341.047C477.16 340.898 475.066 342.298 473.95 343.048C471.627 344.613 470.148 346.093 469.161 346.803C468.189 347.414 466.981 348.108 465.629 348.819C464.896 349.206 463.074 350.062 463.078 350.286C463.088 350.47 463.178 350.667 463.319 350.67C463.582 350.672 464.56 350.144 465.332 349.763C465.907 349.472 466.185 349.254 466.796 348.99C466.321 349.54 465.905 349.979 465.377 350.602C464.646 351.475 464.45 351.929 464.23 352.906C464.109 353.393 464.736 354.023 464.992 354.065C466.038 354.236 466.991 353.744 468.001 352.896C468.985 352.084 469.985 350.93 470.081 350.338C470.123 350.082 469.642 349.557 469.191 349.463C468.586 349.323 467.58 349.523 467.186 349.58C467.477 349.162 467.907 348.766 468.422 348.344C468.983 347.889 469.59 347.644 469.984 347.343C471.709 346.835 474.281 345.98 476.014 345.047C477.702 344.148 478.901 342.764 478.93 342.343ZM478.173 342.26C477.807 342.889 476.849 343.786 475.408 344.543C474.21 345.178 472.456 345.863 470.938 346.344C471.643 345.629 472.972 344.569 474.448 343.595C475.636 342.777 477.57 341.614 477.997 341.724C478.192 341.776 478.288 342.055 478.173 342.26ZM469.187 350.354C469.139 350.772 468.3 351.688 467.526 352.331C466.683 353.024 465.908 353.424 465.408 353.383C465.168 353.364 464.983 353.131 464.999 352.911C465.028 352.611 465.259 351.94 465.744 351.33C466.183 350.754 466.387 350.625 466.551 350.49C466.981 350.337 468.45 350.031 468.96 350.134C469.078 350.154 469.207 350.236 469.187 350.354ZM478.593 351.793C478.742 350.885 478.161 350.101 477.055 349.92C476.424 349.816 475.418 350.016 474.357 350.43C474.095 350.55 473.823 350.85 473.563 350.949C473.386 350.92 473.132 350.858 472.916 350.944C472.265 351.203 471.8 351.937 471.7 352.427C471.528 353.23 471.929 354.248 473.343 354.52C474.169 354.676 475.527 354.554 476.646 353.906C477.608 353.354 478.46 352.602 478.593 351.793ZM477.862 351.552C477.72 352.42 476.831 353.024 476.085 353.368C475.232 353.755 474.269 353.942 473.657 353.842C472.946 353.726 472.392 353.149 472.48 352.616C472.506 352.458 472.934 351.697 473.457 351.722C473.697 351.741 473.766 351.813 473.97 351.806C474.384 351.752 474.515 351.328 474.892 351.126C475.631 350.7 476.38 350.579 477.008 350.702C477.439 350.793 477.963 350.94 477.862 351.552ZM490.941 354.159C490.953 353.959 490.874 353.824 490.67 353.831C490.466 353.838 488.619 354.975 487.873 355.319C487.085 355.676 486.401 355.767 486.066 355.712C485.474 355.615 485.276 355.339 485.386 354.668C485.508 353.918 486.191 353.463 487.043 352.467C487.318 352.147 487.735 351.831 487.902 351.432C488.003 351.185 487.677 351.071 487.44 351.032C487.045 350.968 486.471 351.502 486.14 351.792C485.878 352.033 485.645 352.218 485.392 352.399C485.126 352.417 484.557 352.182 484.26 352.133C483.767 352.052 483.599 352.086 483.155 351.952C483.404 351.669 483.657 351.365 483.639 350.977C483.632 350.774 483.566 350.56 483.371 350.508C482.733 350.322 481.762 351.055 481.174 351.425C479.684 352.357 478.435 352.436 478.437 353.044C478.437 353.166 478.51 353.34 478.628 353.359C479.128 353.4 480.592 352.505 481.321 352.26C481.056 352.642 480.473 353.357 480.063 353.756C479.653 354.155 478.784 354.763 478.89 355.226C478.91 355.351 479.078 355.317 479.193 355.357C479.677 355.497 480.831 354.267 481.313 353.799C481.765 353.386 482.067 353.03 482.375 352.757C482.668 352.825 483.404 352.905 483.888 352.923C484.21 352.935 484.664 353.131 485.02 353.19C484.905 353.394 484.604 353.871 484.478 354.52C484.352 355.289 484.483 356.223 485.706 356.423C486.298 356.52 487.258 356.353 488.269 355.87C489.103 355.48 490.935 354.442 490.941 354.159ZM416.4 362.544C416.452 362.35 416.399 362.058 416.195 362.065C415.909 362.079 414.129 362.922 412.72 363.239C411.478 363.522 410.051 363.693 409.486 363.682C409.042 363.67 408.715 363.312 408.845 362.645C408.923 362.293 409.6 361.248 410.187 360.635C411.453 359.343 412.656 359.175 413.017 359.193C413.277 359.216 413.239 359.574 413.276 359.844C413.376 360.468 412.71 361.069 412.629 361.319C412.58 361.493 412.64 361.746 412.834 361.798C413.245 361.886 413.904 360.96 414.033 360.292C414.179 359.526 413.992 358.563 413.219 358.456C411.953 358.269 410.217 359.586 409.673 360.064C409.151 360.526 408.02 361.739 407.944 362.7C407.871 363.64 408.544 364.237 409.29 364.379C409.82 364.486 411.674 364.304 413.136 363.915C414.473 363.546 416.345 362.758 416.4 362.544ZM434.814 365.073C434.82 364.912 434.886 364.882 434.649 364.843C434.412 364.804 432.295 365.978 430.997 366.353C430.189 366.585 429.666 366.561 429.11 366.49C428.376 366.39 427.999 365.599 428.002 365.336C427.995 365.132 427.919 364.977 428.046 364.816C428.959 364.439 429.649 364.065 430.371 363.737C431.248 363.334 432.398 362.995 432.44 362.739C432.463 362.6 432.416 362.39 432.281 362.348C431.879 362.201 430.78 362.852 429.85 363.206C429.052 363.501 428.169 364.066 427.814 364.008C427.918 363.498 428.387 363.109 428.467 362.493C428.535 362.079 428.021 361.63 427.518 361.608C426.732 361.581 425.201 362.141 424.561 362.34C423.9 362.536 421.618 363.601 421.527 363.789C421.403 364.052 421.636 364.111 421.903 364.215C422.15 364.317 423.919 363.289 424.95 362.931C425.854 362.613 426.974 362.208 427.283 362.3C427.553 362.384 427.609 362.535 427.574 362.752C427.496 363.226 426.463 364.091 425.666 364.75C425.125 365.209 423.648 366.183 423.678 366.492C423.705 366.699 423.929 366.817 424.146 366.852C424.462 366.904 425.317 365.889 425.675 365.684C426.217 365.347 426.65 365.175 427.054 364.937C427.196 365.305 427.267 365.742 427.405 366.008C427.687 366.642 428.112 367.015 428.921 367.148C429.79 367.29 430.414 367.19 431.301 366.97C432.609 366.657 434.786 365.494 434.814 365.073ZM447.358 367.33C447.449 367.142 447.235 366.965 447.093 366.962C446.814 366.937 445.793 367.6 444.598 368.094C443.731 368.438 442.653 368.829 441.943 368.713C440.877 368.538 440.181 367.837 440.291 367.166C440.378 366.633 440.972 366.223 441.684 365.59C442.107 365.234 442.796 364.738 442.943 364.337C443.021 364.106 442.758 363.982 442.528 363.904C442.008 363.738 441.159 364.835 440.618 365.172C439.695 365.73 438.664 366.21 437.965 366.521C437.331 366.802 436.681 367.061 436.066 367.224C434.857 367.553 434.154 367.64 433.858 367.592C433.621 367.553 433.393 367.333 433.455 367.08C433.523 366.787 433.851 366.395 434.195 366.025C434.418 365.778 434.773 365.715 434.858 365.445C434.9 365.31 434.808 365.133 434.673 365.09C433.982 364.856 432.913 366.18 432.699 366.996C432.533 367.638 432.814 368.15 433.741 368.302C434.294 368.393 435.448 368.156 436.535 367.827C437.731 367.456 439.001 366.873 439.261 366.774C439.196 366.925 439.266 367.241 439.402 367.648C439.64 368.295 440.215 369.119 441.794 369.377C442.78 369.539 444.15 369.094 445.119 368.625C446.064 368.172 447.21 367.609 447.358 367.33ZM459.842 369.252C459.822 369.006 459.779 368.776 459.499 368.872C459.306 368.941 457.493 369.861 456.242 370.325C455.552 370.576 454.54 370.816 454.264 370.771C453.672 370.674 453.453 370.152 453.538 369.76C453.612 369.428 454.085 369.019 454.475 368.617C454.917 368.142 455.709 367.765 455.734 367.485C455.762 367.064 455.597 366.835 455.186 366.747C454.953 366.688 454.454 367.255 453.847 367.744C453.428 368.08 452.797 368.463 452.266 368.741C451.29 369.25 449.379 369.91 448.497 369.725C448.224 369.66 448.375 369.482 448.42 369.328C448.577 368.867 449.547 367.891 449.921 367.587C450.62 367.033 451.136 366.854 451.213 366.38C451.252 366.143 450.955 365.851 450.692 365.849C450.209 365.831 449.148 366.366 448.478 366.5C447.676 366.693 446.07 367.22 445.943 367.625C445.894 367.799 446.006 367.98 446.2 368.032C446.612 368.119 447.275 367.66 447.961 367.428C448.497 367.253 448.963 367.126 449.351 366.987C448.737 367.393 447.531 368.939 447.415 369.528C447.308 370.057 447.647 370.458 448.345 370.531C449.618 370.679 452.196 369.662 452.596 369.444C452.567 369.622 452.594 369.95 452.697 370.312C452.857 370.824 453.23 371.392 454.22 371.534C454.874 371.621 455.82 371.289 456.789 370.941C458.061 370.481 459.856 369.538 459.842 369.252ZM465.092 370.112C465.16 369.819 464.979 369.81 464.861 369.79C464.624 369.752 462.891 370.684 461.551 371.194C460.319 371.661 459.662 371.837 459.389 371.772C459.155 371.714 458.773 371.57 458.822 371.274C458.864 371.017 458.91 370.863 459.09 370.629C459.563 370.585 460.224 370.51 460.891 370.275C461.708 369.983 462.598 369.501 462.786 368.599C462.9 368.03 462.572 367.186 461.98 367.089C461.486 367.008 460.833 367.286 459.938 368.173C459.043 369.061 458.139 370.493 458.02 371.224C457.926 371.796 458.576 372.531 459.141 372.542C459.707 372.554 461.057 372.228 462.111 371.731C463.123 371.249 465.005 370.523 465.092 370.112ZM462.003 368.431C461.903 369.043 461.561 369.149 461.151 369.426C460.626 369.786 459.946 369.857 459.581 369.858C459.731 369.68 460.288 369.001 460.538 368.718C460.914 368.273 461.482 367.899 461.719 367.938C461.936 367.974 462.032 368.253 462.003 368.431ZM475.788 371.944C475.8 371.744 475.721 371.609 475.517 371.616C475.313 371.623 473.465 372.76 472.72 373.104C471.932 373.461 471.248 373.552 470.913 373.497C470.321 373.4 470.123 373.124 470.232 372.453C470.355 371.703 471.038 371.248 471.89 370.252C472.165 369.932 472.582 369.616 472.748 369.217C472.85 368.97 472.524 368.856 472.287 368.818C471.892 368.753 471.318 369.287 470.987 369.577C470.725 369.818 470.492 370.003 470.239 370.185C469.973 370.202 469.403 369.967 469.107 369.918C468.614 369.837 468.446 369.871 468.002 369.737C468.251 369.454 468.503 369.151 468.486 368.763C468.479 368.559 468.412 368.345 468.218 368.293C467.58 368.108 466.609 368.84 466.021 369.21C464.531 370.142 463.282 370.221 463.284 370.829C463.284 370.951 463.357 371.125 463.475 371.144C463.975 371.185 465.439 370.29 466.168 370.045C465.903 370.427 465.32 371.142 464.91 371.541C464.5 371.94 463.63 372.548 463.737 373.011C463.757 373.136 463.925 373.103 464.04 373.142C464.524 373.282 465.677 372.052 466.159 371.584C466.612 371.171 466.913 370.815 467.222 370.542C467.515 370.61 468.251 370.69 468.735 370.708C469.057 370.721 469.511 370.917 469.867 370.975C469.752 371.179 469.451 371.657 469.324 372.305C469.198 373.074 469.329 374.008 470.553 374.208C471.145 374.305 472.105 374.138 473.116 373.655C473.95 373.265 475.782 372.227 475.788 371.944ZM494.916 374.914C494.932 374.816 494.899 374.648 494.804 374.612C494.402 374.465 492.623 375.674 491.053 376.227C489.634 376.725 488.458 376.978 487.866 376.881C487.53 376.826 487.467 376.593 487.522 376.257C487.57 375.961 488.193 375.252 488.642 374.617C489.14 373.928 489.858 373.498 489.939 372.883C490.003 372.367 489.66 371.987 489.055 371.847C488.39 371.698 486.712 372.537 485.881 372.665C485.9 372.546 485.916 372.326 485.892 372.099C485.865 371.649 485.673 371.09 484.784 370.945C483.877 370.796 480.683 371.611 480.039 371.951C480.045 371.547 479.73 370.746 479.188 370.718C478.566 370.677 477.383 370.726 476.545 371.014C475.622 371.329 474.377 371.875 474.28 372.224C474.224 372.438 474.448 372.556 474.656 372.651C474.919 372.775 475.87 372.039 476.698 371.81C477.444 371.587 478.229 371.371 478.703 371.449C478.94 371.488 479.085 371.714 479.066 371.954C479.018 372.372 478.276 372.818 477.676 373.267C477.19 373.633 476.563 373.997 476.528 374.335C476.512 374.556 476.608 374.835 476.839 374.913C477.283 375.047 477.752 374.536 478.159 374.278C478.864 373.806 479.33 373.315 480.226 372.793C480.853 372.429 482.203 371.981 483.103 371.805C483.961 371.641 484.537 371.715 484.655 371.734C484.912 371.776 485.142 371.976 485.094 372.272C485.055 372.509 484.8 373.076 483.97 373.689C483.531 374.023 482.552 374.552 482.566 374.838C482.58 375.124 482.745 375.353 483.002 375.395C483.298 375.444 483.672 375.14 484.078 374.761C484.39 374.468 484.826 374.032 485.351 373.672C486.07 373.365 488.356 372.523 488.689 372.598C488.863 372.646 489.041 372.797 489.032 372.978C488.997 373.317 488.245 373.822 487.826 374.402C487.331 375.071 486.762 375.95 486.726 376.167C486.603 376.917 487.085 377.564 487.664 377.618C488.424 377.682 489.663 377.54 491.266 376.911C492.458 376.437 494.796 375.401 494.916 374.914ZM500.389 375.628C500.538 374.72 499.957 373.936 498.852 373.755C498.22 373.652 497.214 373.852 496.154 374.266C495.891 374.385 495.619 374.685 495.359 374.784C495.182 374.755 494.928 374.693 494.712 374.78C494.061 375.038 493.597 375.772 493.496 376.263C493.324 377.065 493.725 378.084 495.139 378.356C495.965 378.511 497.323 378.389 498.442 377.741C499.404 377.189 500.257 376.437 500.389 375.628ZM499.659 375.387C499.516 376.255 498.627 376.86 497.882 377.204C497.028 377.591 496.065 377.778 495.453 377.677C494.743 377.561 494.189 376.984 494.276 376.451C494.302 376.293 494.73 375.532 495.253 375.557C495.493 375.576 495.562 375.648 495.766 375.641C496.18 375.588 496.311 375.163 496.688 374.961C497.427 374.535 498.176 374.415 498.805 374.538C499.236 374.629 499.759 374.775 499.659 375.387ZM519.625 379.001C519.641 378.781 519.617 378.675 519.4 378.64C519.183 378.604 517.571 379.414 516.247 379.826C515.35 380.105 514.499 380.229 514.052 380.115C513.584 379.998 513.166 379.828 513.274 379.42C513.365 379.111 513.607 378.745 513.895 378.346C514.262 377.839 514.577 377.647 514.977 377.186C515.174 376.975 515.617 376.744 515.711 376.414C515.763 376.22 515.563 376.086 515.368 376.034C514.49 375.829 512.641 376.479 511.668 376.847C510.65 377.248 509.556 377.616 508.876 377.808C508.981 377.542 509.072 377.232 509.216 376.972C509.399 376.597 509.704 376.221 509.818 375.774C509.876 375.54 509.636 375.399 509.441 375.347C509.093 375.25 508.312 376.054 507.735 376.365C506.976 376.788 505.899 377.301 505.016 377.622C502.667 378.474 501.895 378.732 501.441 378.658C501.204 378.619 500.95 378.314 501.012 378.061C501.123 377.633 501.319 377.422 501.621 377.066C501.87 376.783 502.337 376.778 502.375 376.42C502.385 376.239 502.276 376.038 502.078 376.006C501.509 375.893 500.204 377.3 500.137 377.715C499.985 378.642 500.555 379.242 501.364 379.375C502.312 379.53 504.072 378.805 505.222 378.345C506.22 377.941 507.172 377.448 507.711 377.253C507.653 377.608 507.493 377.967 507.345 378.247C507.139 378.639 506.641 379.205 506.573 379.498C506.55 379.636 506.676 379.738 506.811 379.78C507.159 379.878 507.736 379.324 508.308 379.053C509.339 378.573 509.943 378.348 511.007 377.914C512.203 377.421 513.513 376.967 514.135 376.886C513.951 377.14 513.39 377.595 513.053 378.046C512.719 378.478 512.463 378.923 512.399 379.317C512.282 380.028 512.692 380.622 513.929 380.865C514.616 380.998 515.665 380.784 516.676 380.423C517.603 380.088 519.586 379.359 519.625 379.001Z" fill="black"/>
</svg>
